<svg id="Ebene_1" data-name="Ebene 1" xmlns="http://www.w3.org/2000/svg" width="107.569mm" height="15.87677mm" viewBox="0 0 304.91999 45.005">
  <defs>
    <style>
      .cls-1 {
        fill: #f8b891;
      }

      .cls-1, .cls-2, .cls-3, .cls-5, .cls-8 {
        fill-rule: evenodd;
      }

      .cls-2 {
        fill: #bcd277;
      }

      .cls-3 {
        fill: #7f8080;
      }

      .cls-4 {
        fill: #fff;
      }

      .cls-5 {
        fill: #5c9bd4;
      }

      .cls-6 {
        fill: #bfbebf;
      }

      .cls-7, .cls-9 {
        fill: none;
        stroke: #010101;
        stroke-linecap: round;
        stroke-linejoin: round;
      }

      .cls-8 {
        fill: #010101;
      }

      .cls-9 {
        stroke-width: 0.25px;
      }
    </style>
  </defs>
  <title>FIG_Annex_LEAVETAIL</title>
  <path class="cls-1" d="M289.12,38.77837h11.1a2.21487,2.21487,0,0,0,2.22-2.22v-2.22a2.22858,2.22858,0,0,0-2.22-2.28h-11.1a2.22857,2.22857,0,0,0-2.22,2.28v2.22a2.21486,2.21486,0,0,0,2.22,2.22" transform="translate(-158.67999 -2.83833)"/>
  <g>
    <path d="M290.25,37.27881V32.98389h1.9043a2.5606,2.5606,0,0,1,.873.11523.96047.96047,0,0,1,.47754.40918,1.21928,1.21928,0,0,1,.17871.64746,1.08013,1.08013,0,0,1-.2959.77051,1.49746,1.49746,0,0,1-.91406.39844,1.47391,1.47391,0,0,1,.34277.21387,2.95321,2.95321,0,0,1,.47168.57129l.74707,1.16895h-.71484l-.56836-.89355q-.249-.38672-.41016-.5918a1.30989,1.30989,0,0,0-.28809-.28711.866.866,0,0,0-.25977-.11426,1.70744,1.70744,0,0,0-.31641-.02051h-.65918v1.90723Zm.56836-2.39941H292.04a1.80523,1.80523,0,0,0,.60938-.08105.63862.63862,0,0,0,.334-.25781.69341.69341,0,0,0,.11426-.38477.64038.64038,0,0,0-.22168-.501,1.03346,1.03346,0,0,0-.69824-.19629h-1.35937Z" transform="translate(-158.67999 -2.83833)"/>
    <path d="M294.09082,37.27881l1.64941-4.29492h.6123l1.75781,4.29492h-.64746l-.501-1.30078H295.166l-.47168,1.30078Zm1.23926-1.76367h1.45605l-.44824-1.18945q-.20508-.542-.30469-.89062a5.475,5.475,0,0,1-.23145.82031Z" transform="translate(-158.67999 -2.83833)"/>
    <path d="M301.13965,36.772v.50684h-2.83887a.93285.93285,0,0,1,.06152-.36621,1.93525,1.93525,0,0,1,.34668-.57129,5.44823,5.44823,0,0,1,.69043-.65039,5.80473,5.80473,0,0,0,.94629-.91016,1.08561,1.08561,0,0,0,.24609-.63379.69911.69911,0,0,0-.22461-.52832.80193.80193,0,0,0-.584-.21582.82358.82358,0,0,0-.60937.22852.86464.86464,0,0,0-.23145.63281l-.542-.05566a1.33293,1.33293,0,0,1,.41895-.92383,1.42929,1.42929,0,0,1,.97559-.31836,1.36134,1.36134,0,0,1,.97852.34277,1.12534,1.12534,0,0,1,.36035.84961,1.28858,1.28858,0,0,1-.10547.50684,1.96983,1.96983,0,0,1-.35059.52441,8.50971,8.50971,0,0,1-.8125.75586c-.31641.26563-.51953.44629-.60937.54a1.77844,1.77844,0,0,0-.22266.28613Z" transform="translate(-158.67999 -2.83833)"/>
  </g>
  <path class="cls-2" d="M450.22,15.85835h11.16a2.21486,2.21486,0,0,0,2.22-2.22v-2.22a2.22857,2.22857,0,0,0-2.22-2.28H450.22a2.267,2.267,0,0,0-2.22,2.28v2.22a2.25426,2.25426,0,0,0,2.22,2.22" transform="translate(-158.67999 -2.83833)"/>
  <g>
    <path d="M454.71094,14.35889V10.064h1.9043a2.5606,2.5606,0,0,1,.873.11523.96258.96258,0,0,1,.47852.40918,1.21846,1.21846,0,0,1,.17773.64746,1.07934,1.07934,0,0,1-.29492.77051,1.49746,1.49746,0,0,1-.91406.39844,1.46469,1.46469,0,0,1,.3418.21387,2.9559,2.9559,0,0,1,.47266.57129l.74609,1.16895h-.71484l-.56836-.89355q-.249-.38672-.41016-.5918a1.30927,1.30927,0,0,0-.28711-.28711.866.866,0,0,0-.25977-.11426,1.70744,1.70744,0,0,0-.31641-.02051h-.66016v1.90723Zm.56836-2.39941H456.502a1.80523,1.80523,0,0,0,.60938-.08105.63862.63862,0,0,0,.334-.25781.69245.69245,0,0,0,.11328-.38477.6427.6427,0,0,0-.2207-.501,1.03808,1.03808,0,0,0-.69922-.19629H455.2793Z" transform="translate(-158.67999 -2.83833)"/>
    <path d="M458.83008,12.979l.53613-.04687a1.17742,1.17742,0,0,0,.17676.52832.95577.95577,0,0,0,.43262.334,1.62019,1.62019,0,0,0,.65918.12793,1.57954,1.57954,0,0,0,.57422-.09668.797.797,0,0,0,.37109-.26562.61745.61745,0,0,0,.12109-.36719.56225.56225,0,0,0-.11719-.35352.87582.87582,0,0,0-.38672-.25293,7.79408,7.79408,0,0,0-.76465-.21,3.85641,3.85641,0,0,1-.8291-.26758,1.15756,1.15756,0,0,1-.459-.40039.97571.97571,0,0,1-.15039-.53418,1.09546,1.09546,0,0,1,.18457-.6084,1.14788,1.14788,0,0,1,.53906-.42871,2.04507,2.04507,0,0,1,.78809-.14648,2.165,2.165,0,0,1,.8418.15332,1.21811,1.21811,0,0,1,.56152.45313,1.3,1.3,0,0,1,.21094.67676l-.54492.041a.87961.87961,0,0,0-.29785-.61523,1.156,1.156,0,0,0-.748-.208,1.19631,1.19631,0,0,0-.752.18945.564.564,0,0,0-.23535.45508.4884.4884,0,0,0,.167.38086,2.25672,2.25672,0,0,0,.85742.30664,5.7006,5.7006,0,0,1,.9502.27344,1.30864,1.30864,0,0,1,.55371.4375,1.0708,1.0708,0,0,1,.17871.61133,1.17217,1.17217,0,0,1-.19629.64648,1.29193,1.29193,0,0,1-.56445.4707,1.96263,1.96263,0,0,1-.82715.16895,2.47378,2.47378,0,0,1-.97754-.16992,1.35971,1.35971,0,0,1-.61719-.51074A1.44313,1.44313,0,0,1,458.83008,12.979Z" transform="translate(-158.67999 -2.83833)"/>
  </g>
  <path class="cls-1" d="M289.12,27.85835h11.1a2.178,2.178,0,0,0,2.22-2.22v-2.22a2.178,2.178,0,0,0-2.22-2.22h-11.1a2.178,2.178,0,0,0-2.22,2.22v2.22a2.178,2.178,0,0,0,2.22,2.22" transform="translate(-158.67999 -2.83833)"/>
  <g>
    <path d="M290.252,26.35889V22.064h1.9043a2.5606,2.5606,0,0,1,.873.11523.96047.96047,0,0,1,.47754.40918,1.21928,1.21928,0,0,1,.17871.64746,1.08013,1.08013,0,0,1-.2959.77051,1.49746,1.49746,0,0,1-.91406.39844,1.47391,1.47391,0,0,1,.34277.21387,2.95321,2.95321,0,0,1,.47168.57129l.74707,1.16895h-.71484l-.56836-.89355q-.249-.38672-.41016-.5918a1.30989,1.30989,0,0,0-.28809-.28711.866.866,0,0,0-.25977-.11426,1.70744,1.70744,0,0,0-.31641-.02051h-.65918v1.90723Zm.56836-2.39941H292.042a1.80523,1.80523,0,0,0,.60938-.08105.63862.63862,0,0,0,.334-.25781.69341.69341,0,0,0,.11426-.38477.64038.64038,0,0,0-.22168-.501,1.03346,1.03346,0,0,0-.69824-.19629h-1.35937Z" transform="translate(-158.67999 -2.83833)"/>
    <path d="M294.09277,26.35889l1.64941-4.29492h.6123l1.75781,4.29492h-.64746l-.501-1.30078H295.168l-.47168,1.30078Zm1.23926-1.76367h1.45605l-.44824-1.18945q-.20508-.542-.30469-.89062a5.475,5.475,0,0,1-.23145.82031Z" transform="translate(-158.67999 -2.83833)"/>
    <path d="M300.35645,26.35889h-.52734V22.99854a2.75449,2.75449,0,0,1-.499.36328,3.58591,3.58591,0,0,1-.55566.27246v-.50977a3.18475,3.18475,0,0,0,.77344-.50391,1.98211,1.98211,0,0,0,.46875-.57422h.33984Z" transform="translate(-158.67999 -2.83833)"/>
  </g>
  <path class="cls-3" d="M185.2,41.59834h75.6a3.7518,3.7518,0,0,0,3.72-3.78v-31.26a3.73872,3.73872,0,0,0-3.72-3.72H185.2a3.73872,3.73872,0,0,0-3.72,3.72v31.26a3.75179,3.75179,0,0,0,3.72,3.78" transform="translate(-158.67999 -2.83833)"/>
  <g>
    <path class="cls-4" d="M198.86914,10.61768v-.6709l2.418-.00391V12.063a4.27309,4.27309,0,0,1-1.14844.668,3.4118,3.4118,0,0,1-1.2168.22461,3.24178,3.24178,0,0,1-1.52832-.36035,2.38207,2.38207,0,0,1-1.03857-1.043,3.27753,3.27753,0,0,1-.35059-1.52344,3.53857,3.53857,0,0,1,.34863-1.55664,2.318,2.318,0,0,1,1.00342-1.07324,3.14855,3.14855,0,0,1,1.50879-.35059,2.98576,2.98576,0,0,1,1.11914.2002,1.85361,1.85361,0,0,1,.78516.55957,2.499,2.499,0,0,1,.43359.93555l-.68359.18652a2.07752,2.07752,0,0,0-.31836-.68555,1.30557,1.30557,0,0,0-.54492-.39941,2.00146,2.00146,0,0,0-.78711-.15039,2.31314,2.31314,0,0,0-.89648.1582,1.66681,1.66681,0,0,0-.61035.415,1.95981,1.95981,0,0,0-.36035.56445,2.98918,2.98918,0,0,0-.21826,1.14941,2.78886,2.78886,0,0,0,.2627,1.27832,1.684,1.684,0,0,0,.76611.76367,2.37589,2.37589,0,0,0,1.06836.25,2.52943,2.52943,0,0,0,.957-.18945,2.45585,2.45585,0,0,0,.709-.40332V10.61768Z" transform="translate(-158.67999 -2.83833)"/>
    <path class="cls-4" d="M201.791,12.85791,203.98438,7.146h.81445l2.33789,5.71191h-.86035l-.667-1.73047H203.2207l-.627,1.73047Zm1.64844-2.3457H205.376l-.59668-1.582q-.27246-.7207-.40527-1.18457a7.16323,7.16323,0,0,1-.30762,1.09082Z" transform="translate(-158.67999 -2.83833)"/>
    <path class="cls-4" d="M207.75684,12.85791V7.146h2.15527a5.12749,5.12749,0,0,1,.86914.05469,1.71329,1.71329,0,0,1,.70508.2666,1.40366,1.40366,0,0,1,.458.55078,1.86111,1.86111,0,0,1-.291,2.0127,2.21979,2.21979,0,0,1-1.6748.50488H208.5127v2.32227Zm.75586-2.99609h1.47754a1.56039,1.56039,0,0,0,1.04-.27344.97158.97158,0,0,0,.30762-.76758,1.03663,1.03663,0,0,0-.18066-.61328.85045.85045,0,0,0-.47754-.33691,3.19771,3.19771,0,0,0-.70508-.05078H208.5127Z" transform="translate(-158.67999 -2.83833)"/>
    <path class="cls-4" d="M212.86523,10.07568a3.10433,3.10433,0,0,1,.76367-2.22656,2.59665,2.59665,0,0,1,1.97168-.80469,2.73269,2.73269,0,0,1,1.42578.37793,2.47231,2.47231,0,0,1,.96875,1.05371,3.43058,3.43058,0,0,1,.333,1.5332,3.36788,3.36788,0,0,1-.35059,1.55469,2.39666,2.39666,0,0,1-.99414,1.03906,2.8426,2.8426,0,0,1-1.38672.35254,2.69768,2.69768,0,0,1-1.44141-.38965,2.50655,2.50655,0,0,1-.96289-1.06445A3.22562,3.22562,0,0,1,212.86523,10.07568Zm.7793.01172a2.28967,2.28967,0,0,0,.55566,1.627,1.93711,1.93711,0,0,0,2.79688-.00586,2.42476,2.42476,0,0,0,.55176-1.70312,2.92913,2.92913,0,0,0-.23535-1.21777,1.80805,1.80805,0,0,0-.69043-.80566,1.86461,1.86461,0,0,0-1.01855-.28711,1.92959,1.92959,0,0,0-1.38086.55176A2.462,2.462,0,0,0,213.64453,10.0874Z" transform="translate(-158.67999 -2.83833)"/>
    <path class="cls-4" d="M219.27832,12.85791V7.146h2.15527a5.12749,5.12749,0,0,1,.86914.05469,1.71329,1.71329,0,0,1,.70508.2666,1.40366,1.40366,0,0,1,.458.55078,1.86111,1.86111,0,0,1-.291,2.0127,2.21979,2.21979,0,0,1-1.6748.50488h-1.46582v2.32227Zm.75586-2.99609h1.47754a1.56039,1.56039,0,0,0,1.04-.27344.97159.97159,0,0,0,.30762-.76758,1.03663,1.03663,0,0,0-.18066-.61328.85045.85045,0,0,0-.47754-.33691,3.19771,3.19771,0,0,0-.70508-.05078h-1.46191Z" transform="translate(-158.67999 -2.83833)"/>
    <path class="cls-4" d="M224.63184,12.85791V7.146h4.13086v.67383h-3.375v1.749h3.16016v.6709H225.3877v1.94434h3.50684v.67383Z" transform="translate(-158.67999 -2.83833)"/>
    <path class="cls-4" d="M229.94727,12.85791V7.146h.77539l3.001,4.48437V7.146h.72461v5.71191h-.77539l-3-4.48828v4.48828Z" transform="translate(-158.67999 -2.83833)"/>
  </g>
  <g>
    <path class="cls-4" d="M237.86279,12.8584V8.56348h1.62012a3.92236,3.92236,0,0,1,.65381.041,1.29,1.29,0,0,1,.5293.20117,1.0626,1.0626,0,0,1,.3457.41406,1.40593,1.40593,0,0,1-.21875,1.51367,1.67292,1.67292,0,0,1-1.26025.37891h-1.10156V12.8584Zm.56836-2.25293h1.11035a1.18,1.18,0,0,0,.78271-.20508.73012.73012,0,0,0,.23047-.57715.7808.7808,0,0,0-.13477-.46094.642.642,0,0,0-.35937-.25391,2.4369,2.4369,0,0,0-.53076-.03809h-1.09863Z" transform="translate(-158.67999 -2.83833)"/>
    <path class="cls-4" d="M241.86523,12.8584V8.56348h.85547l1.0166,3.041q.14063.4248.20508.63574.07324-.23437.22852-.68848l1.02832-2.98828h.76465V12.8584H245.416V9.26367l-1.248,3.59473h-.5127l-1.24219-3.65625V12.8584Z" transform="translate(-158.67999 -2.83833)"/>
    <path class="cls-4" d="M246.875,12.8584V8.56348h3.10547v.50684h-2.53711v1.31543h2.376v.50391h-2.376v1.46191h2.63672v.50684Z" transform="translate(-158.67999 -2.83833)"/>
  </g>
  <path class="cls-5" d="M185.2,41.59834h75.6a3.7518,3.7518,0,0,0,3.72-3.78v-4.44H181.48v4.44a3.75179,3.75179,0,0,0,3.72,3.78" transform="translate(-158.67999 -2.83833)"/>
  <g>
    <path class="cls-4" d="M185.84668,40.51123v-5.4873h1.16309v.43652H186.374v4.61426h.63574v.43652Z" transform="translate(-158.67999 -2.83833)"/>
    <path class="cls-4" d="M188.80273,39.31885l-1.66406-4.29492h.61523l1.11621,3.12012q.13477.375.22559.70313.09961-.35156.23145-.70312l1.16016-3.12012h.58008l-1.68164,4.29492Z" transform="translate(-158.67999 -2.83833)"/>
    <path class="cls-4" d="M191.51758,39.31885V35.02393h1.61133a1.99089,1.99089,0,0,1,.78906.13086,1.02624,1.02624,0,0,1,.4668.40039,1.07012,1.07012,0,0,1,.168.56738.97384.97384,0,0,1-.14941.51855,1.06684,1.06684,0,0,1-.45117.39258,1.1204,1.1204,0,0,1,.59863.38965,1.04393,1.04393,0,0,1,.21.65039,1.247,1.247,0,0,1-.12793.56152,1.08149,1.08149,0,0,1-.31445.39941,1.29992,1.29992,0,0,1-.4707.21191,2.80535,2.80535,0,0,1-.69238.07227Zm.56836-2.49023h.92871a2.07229,2.07229,0,0,0,.542-.0498.59747.59747,0,0,0,.32617-.21387.60991.60991,0,0,0,.11035-.375.69471.69471,0,0,0-.10254-.377.5275.5275,0,0,0-.293-.22266,2.49457,2.49457,0,0,0-.65332-.05957h-.8584Zm0,1.9834h1.06934a2.46138,2.46138,0,0,0,.38672-.02051.92664.92664,0,0,0,.32813-.11719.62066.62066,0,0,0,.2168-.23828.74928.74928,0,0,0,.085-.3623.71215.71215,0,0,0-.123-.417.657.657,0,0,0-.3418-.25,2.14845,2.14845,0,0,0-.62793-.07129h-.99316Z" transform="translate(-158.67999 -2.83833)"/>
    <path class="cls-4" d="M195.62793,36.80811v-.60059h.60059v.60059Zm0,2.51074v-.60059h.60059v.60059Z" transform="translate(-158.67999 -2.83833)"/>
    <path class="cls-4" d="M198.81641,39.31885V35.02393h.52734v4.29492Z" transform="translate(-158.67999 -2.83833)"/>
    <path class="cls-4" d="M202.29688,38.31689l.54492.06738a1.32952,1.32952,0,0,1-.47754.74121,1.6193,1.6193,0,0,1-1.97363-.15625,1.64806,1.64806,0,0,1-.39941-1.17969,1.7192,1.7192,0,0,1,.4043-1.21875,1.36853,1.36853,0,0,1,1.04883-.43359,1.33015,1.33015,0,0,1,1.01953.4248,1.68786,1.68786,0,0,1,.39551,1.19531q0,.04688-.00293.14063h-2.32031a1.19562,1.19562,0,0,0,.29.78516.86326.86326,0,0,0,.65039.27246.80693.80693,0,0,0,.49512-.15234A1.01127,1.01127,0,0,0,202.29688,38.31689Zm-1.73145-.85254h1.7373a1.054,1.054,0,0,0-.19922-.58887.80821.80821,0,0,0-.65332-.30469.835.835,0,0,0-.61035.24316A.95831.95831,0,0,0,200.56543,37.46436Z" transform="translate(-158.67999 -2.83833)"/>
    <path class="cls-4" d="M205.54,38.93506a1.96546,1.96546,0,0,1-.56445.35156,1.62694,1.62694,0,0,1-.58105.10254,1.13574,1.13574,0,0,1-.78809-.25.82924.82924,0,0,1-.27539-.64062.86116.86116,0,0,1,.377-.7207,1.26711,1.26711,0,0,1,.37891-.17285,3.76818,3.76818,0,0,1,.46875-.0791,4.82,4.82,0,0,0,.94043-.18164q.00293-.1084.00293-.1377a.5822.5822,0,0,0-.14941-.4541.88255.88255,0,0,0-.60059-.17871.93513.93513,0,0,0-.54883.12988.79642.79642,0,0,0-.2627.46191l-.51562-.07031a1.27542,1.27542,0,0,1,.23145-.53418,1.02331,1.02331,0,0,1,.46582-.31445,2.10242,2.10242,0,0,1,.70605-.10937,1.86878,1.86878,0,0,1,.64746.09375.85357.85357,0,0,1,.36621.23633.82745.82745,0,0,1,.16406.3584,2.96921,2.96921,0,0,1,.02637.48633v.70313a7.2366,7.2366,0,0,0,.03418.93066,1.14668,1.14668,0,0,0,.13281.373h-.55078A1.11811,1.11811,0,0,1,205.54,38.93506Zm-.04395-1.17773a3.869,3.869,0,0,1-.86133.19922,1.9923,1.9923,0,0,0-.46.10547.46376.46376,0,0,0-.208.1709.45418.45418,0,0,0-.07324.251.44649.44649,0,0,0,.16016.35156.68389.68389,0,0,0,.4668.14063,1.07762,1.07762,0,0,0,.542-.13379.81486.81486,0,0,0,.34863-.36426,1.27389,1.27389,0,0,0,.085-.52734Z" transform="translate(-158.67999 -2.83833)"/>
    <path class="cls-4" d="M207.6748,39.31885l-1.18359-3.11133h.55664l.668,1.86328q.1084.30176.19922.627.07031-.24609.19629-.5918l.69141-1.89844h.542L208.167,39.31885Z" transform="translate(-158.67999 -2.83833)"/>
    <path class="cls-4" d="M209.81934,35.63037v-.60645h.52734v.60645Zm0,3.68848V36.20752h.52734v3.11133Z" transform="translate(-158.67999 -2.83833)"/>
    <path class="cls-4" d="M211.19141,39.31885V36.20752h.47461v.44238a1.11843,1.11843,0,0,1,.99023-.5127,1.28017,1.28017,0,0,1,.5166.10156.80687.80687,0,0,1,.35352.26465,1.01772,1.01772,0,0,1,.16406.38965,3.01959,3.01959,0,0,1,.0293.5127v1.91309h-.52734V37.42627a1.42775,1.42775,0,0,0-.06152-.48242.51261.51261,0,0,0-.21777-.25391.69866.69866,0,0,0-.36816-.0957.8514.8514,0,0,0-.58105.21387,1.05114,1.05114,0,0,0-.24512.81152v1.69922Z" transform="translate(-158.67999 -2.83833)"/>
    <path class="cls-4" d="M214.39551,39.57666l.5127.07617a.48857.48857,0,0,0,.17871.3457.878.878,0,0,0,.53613.14648.94155.94155,0,0,0,.56543-.14648.72088.72088,0,0,0,.26953-.41016,3.36813,3.36813,0,0,0,.03809-.67676,1.08466,1.08466,0,0,1-.86133.40723,1.17427,1.17427,0,0,1-.99316-.46289,1.78256,1.78256,0,0,1-.35156-1.11035,2.06419,2.06419,0,0,1,.16113-.82129,1.28513,1.28513,0,0,1,.46777-.582,1.258,1.258,0,0,1,.71875-.20508,1.11537,1.11537,0,0,1,.9082.44531v-.375h.48633V38.897a2.543,2.543,0,0,1-.14844,1.0293,1.0732,1.0732,0,0,1-.46875.47949,1.61989,1.61989,0,0,1-.78906.17578,1.48239,1.48239,0,0,1-.89941-.251A.845.845,0,0,1,214.39551,39.57666Zm.43652-1.86914a1.34976,1.34976,0,0,0,.24316.89355.80169.80169,0,0,0,1.21875.001,1.30269,1.30269,0,0,0,.24609-.877,1.27585,1.27585,0,0,0-.25391-.86133.78267.78267,0,0,0-.61035-.29.75871.75871,0,0,0-.59766.28613A1.26534,1.26534,0,0,0,214.832,37.70752Z" transform="translate(-158.67999 -2.83833)"/>
    <path class="cls-4" d="M217.36133,40.51123v-.38086h3.49512v.38086Z" transform="translate(-158.67999 -2.83833)"/>
    <path class="cls-4" d="M222.0127,39.31885l-1.18359-3.11133h.55664l.668,1.86328q.1084.30176.19922.627.07031-.24609.19629-.5918l.69141-1.89844h.542l-1.17773,3.11133Z" transform="translate(-158.67999 -2.83833)"/>
    <path class="cls-4" d="M226.27832,38.31689l.54492.06738a1.32952,1.32952,0,0,1-.47754.74121,1.6193,1.6193,0,0,1-1.97363-.15625,1.64806,1.64806,0,0,1-.39941-1.17969,1.7192,1.7192,0,0,1,.4043-1.21875,1.36853,1.36853,0,0,1,1.04883-.43359,1.33015,1.33015,0,0,1,1.01953.4248,1.68786,1.68786,0,0,1,.39551,1.19531q0,.04688-.00293.14063h-2.32031a1.19562,1.19562,0,0,0,.29.78516.86326.86326,0,0,0,.65039.27246.80693.80693,0,0,0,.49512-.15234A1.01126,1.01126,0,0,0,226.27832,38.31689Zm-1.73145-.85254h1.7373a1.054,1.054,0,0,0-.19922-.58887.80821.80821,0,0,0-.65332-.30469.835.835,0,0,0-.61035.24316A.95831.95831,0,0,0,224.54688,37.46436Z" transform="translate(-158.67999 -2.83833)"/>
    <path class="cls-4" d="M227.49121,39.31885V35.02393h.52734v1.541a1.17809,1.17809,0,0,1,.93164-.42773,1.24512,1.24512,0,0,1,.60059.13672.80019.80019,0,0,1,.36523.376,1.75407,1.75407,0,0,1,.10938.69727v1.97168H229.498V37.34717a.80711.80711,0,0,0-.17187-.5752.63136.63136,0,0,0-.48437-.18066.85977.85977,0,0,0-.44141.12207.68952.68952,0,0,0-.29395.3291,1.51378,1.51378,0,0,0-.08789.57422v1.70215Z" transform="translate(-158.67999 -2.83833)"/>
    <path class="cls-4" d="M230.83691,35.63037v-.60645h.52734v.60645Zm0,3.68848V36.20752h.52734v3.11133Z" transform="translate(-158.67999 -2.83833)"/>
    <path class="cls-4" d="M234.20313,38.1792l.51855.06738a1.353,1.353,0,0,1-.43457.83984,1.27492,1.27492,0,0,1-.86035.30273,1.33031,1.33031,0,0,1-1.02637-.418,1.6866,1.6866,0,0,1-.38867-1.19629,2.16571,2.16571,0,0,1,.167-.88184,1.15529,1.15529,0,0,1,.50879-.56641,1.49369,1.49369,0,0,1,.74219-.18945,1.29651,1.29651,0,0,1,.8291.25586,1.17936,1.17936,0,0,1,.41309.72852l-.5127.0791a.85685.85685,0,0,0-.25879-.47168.674.674,0,0,0-.4502-.1582.8212.8212,0,0,0-.64746.28516,1.35925,1.35925,0,0,0-.249.9043,1.40171,1.40171,0,0,0,.24023.91113.78179.78179,0,0,0,.627.28418.7389.7389,0,0,0,.51855-.19043A.945.945,0,0,0,234.20313,38.1792Z" transform="translate(-158.67999 -2.83833)"/>
    <path class="cls-4" d="M235.168,39.31885V35.02393h.52734v4.29492Z" transform="translate(-158.67999 -2.83833)"/>
    <path class="cls-4" d="M238.64844,38.31689l.54492.06738a1.32952,1.32952,0,0,1-.47754.74121,1.6193,1.6193,0,0,1-1.97363-.15625,1.64806,1.64806,0,0,1-.39941-1.17969,1.7192,1.7192,0,0,1,.4043-1.21875,1.36853,1.36853,0,0,1,1.04883-.43359,1.33015,1.33015,0,0,1,1.01953.4248,1.68786,1.68786,0,0,1,.39551,1.19531q0,.04688-.00293.14063H236.8877a1.19562,1.19562,0,0,0,.29.78516.86326.86326,0,0,0,.65039.27246.80693.80693,0,0,0,.49512-.15234A1.01127,1.01127,0,0,0,238.64844,38.31689Zm-1.73145-.85254h1.7373a1.054,1.054,0,0,0-.19922-.58887.80821.80821,0,0,0-.65332-.30469.835.835,0,0,0-.61035.24316A.95831.95831,0,0,0,236.917,37.46436Z" transform="translate(-158.67999 -2.83833)"/>
    <path class="cls-4" d="M240.74316,40.51123h-1.16309v-.43652h.63574V35.46045h-.63574v-.43652h1.16309Z" transform="translate(-158.67999 -2.83833)"/>
  </g>
  <rect class="cls-6" x="22.8" y="15.30002" width="83.04" height="15.23999"/>
  <g>
    <path d="M185.84668,28.751v-5.4873h1.16309v.43652H186.374v4.61426h.63574V28.751Z" transform="translate(-158.67999 -2.83833)"/>
    <path d="M187.58105,27.55859V23.26367h1.47949a3.58867,3.58867,0,0,1,.76465.06152,1.45473,1.45473,0,0,1,.62988.30762,1.75881,1.75881,0,0,1,.50879.73438,2.90031,2.90031,0,0,1,.168,1.02051,2.99989,2.99989,0,0,1-.11426.86719,2.107,2.107,0,0,1-.293.626,1.53692,1.53692,0,0,1-.3916.38867,1.57657,1.57657,0,0,1-.51172.21582,2.93628,2.93628,0,0,1-.69043.07324Zm.56836-.50684h.917a2.23327,2.23327,0,0,0,.667-.0791.95813.95813,0,0,0,.38477-.22266,1.35216,1.35216,0,0,0,.31445-.543,2.65919,2.65919,0,0,0,.11328-.82812,2.00678,2.00678,0,0,0-.2207-1.03516,1.11954,1.11954,0,0,0-.53809-.48535,2.22214,2.22214,0,0,0-.73535-.08789h-.90234Z" transform="translate(-158.67999 -2.83833)"/>
    <path d="M191.93848,27.55859V23.26367h3.10547v.50684h-2.53711v1.31543h2.376v.50391h-2.376v1.46191h2.63672v.50684Z" transform="translate(-158.67999 -2.83833)"/>
    <path d="M195.74707,26.17871l.53613-.04687a1.17742,1.17742,0,0,0,.17676.52832.95577.95577,0,0,0,.43262.334,1.62019,1.62019,0,0,0,.65918.12793,1.57954,1.57954,0,0,0,.57422-.09668.797.797,0,0,0,.37109-.26562.61745.61745,0,0,0,.12109-.36719.56225.56225,0,0,0-.11719-.35352.87582.87582,0,0,0-.38672-.25293,7.79408,7.79408,0,0,0-.76465-.21,3.8564,3.8564,0,0,1-.8291-.26758,1.15756,1.15756,0,0,1-.459-.40039.97571.97571,0,0,1-.15039-.53418,1.09546,1.09546,0,0,1,.18457-.6084,1.14788,1.14788,0,0,1,.53906-.42871,2.04507,2.04507,0,0,1,.78809-.14648,2.165,2.165,0,0,1,.8418.15332,1.21811,1.21811,0,0,1,.56152.45313,1.3,1.3,0,0,1,.21094.67676l-.54492.041a.87961.87961,0,0,0-.29785-.61523,1.156,1.156,0,0,0-.748-.208,1.19631,1.19631,0,0,0-.752.18945.564.564,0,0,0-.23535.45508.48839.48839,0,0,0,.167.38086,2.25672,2.25672,0,0,0,.85742.30664,5.7006,5.7006,0,0,1,.9502.27344,1.30864,1.30864,0,0,1,.55371.4375,1.0708,1.0708,0,0,1,.17871.61133,1.17217,1.17217,0,0,1-.19629.64648,1.29193,1.29193,0,0,1-.56445.4707,1.96262,1.96262,0,0,1-.82715.16895,2.47378,2.47378,0,0,1-.97754-.16992,1.35971,1.35971,0,0,1-.61719-.51074A1.44313,1.44313,0,0,1,195.74707,26.17871Z" transform="translate(-158.67999 -2.83833)"/>
    <path d="M199.35254,28.751v-.38086h3.49512V28.751Z" transform="translate(-158.67999 -2.83833)"/>
    <path d="M205.26465,25.874v-.50391l1.81934-.00293v1.59375a3.185,3.185,0,0,1-.86426.502,2.56386,2.56386,0,0,1-.91406.16895,2.44069,2.44069,0,0,1-1.15039-.27051,1.79138,1.79138,0,0,1-.78027-.78418,2.46753,2.46753,0,0,1-.26367-1.14551,2.64294,2.64294,0,0,1,.2627-1.16992,1.73911,1.73911,0,0,1,.75391-.80762,2.36414,2.36414,0,0,1,1.13379-.26367,2.25259,2.25259,0,0,1,.84277.15137,1.40009,1.40009,0,0,1,.58984.41992,1.86477,1.86477,0,0,1,.3252.70313l-.5127.14063a1.58681,1.58681,0,0,0-.24023-.51562.9948.9948,0,0,0-.41016-.30078,1.5217,1.5217,0,0,0-.5918-.1123,1.76124,1.76124,0,0,0-.67383.11816,1.27262,1.27262,0,0,0-.459.3125,1.48619,1.48619,0,0,0-.27051.4248,2.24774,2.24774,0,0,0-.16406.86426,2.08434,2.08434,0,0,0,.19824.96094,1.26,1.26,0,0,0,.5752.57422,1.78236,1.78236,0,0,0,.80273.1875,1.889,1.889,0,0,0,.7207-.14258,1.83756,1.83756,0,0,0,.5332-.30273V25.874Z" transform="translate(-158.67999 -2.83833)"/>
    <path d="M207.46289,27.55859l1.64941-4.29492h.6123l1.75781,4.29492H210.835l-.501-1.30078h-1.7959l-.47168,1.30078Zm1.23926-1.76367h1.45605L209.71,24.60547q-.20508-.542-.30469-.89062a5.475,5.475,0,0,1-.23145.82031Z" transform="translate(-158.67999 -2.83833)"/>
    <path d="M211.90039,27.55859V23.26367h1.62012a3.91171,3.91171,0,0,1,.65332.041,1.29451,1.29451,0,0,1,.53027.20117,1.06056,1.06056,0,0,1,.34473.41406,1.4005,1.4005,0,0,1-.21875,1.51367,1.67237,1.67237,0,0,1-1.25977.37891h-1.10156v1.74609Zm.56836-2.25293h1.11035a1.17757,1.17757,0,0,0,.78223-.20508.73071.73071,0,0,0,.23145-.57715.78134.78134,0,0,0-.13574-.46094.642.642,0,0,0-.35937-.25391,2.42846,2.42846,0,0,0-.53027-.03809h-1.09863Z" transform="translate(-158.67999 -2.83833)"/>
    <path d="M216.05957,25.04785v-.60059h.60059v.60059Zm0,2.51074V26.958h.60059v.60059Z" transform="translate(-158.67999 -2.83833)"/>
    <path d="M220.42188,27.08691l.07617.46582a1.95606,1.95606,0,0,1-.39844.04688.902.902,0,0,1-.44531-.09082.50514.50514,0,0,1-.22266-.23926,1.88049,1.88049,0,0,1-.06445-.62207v-1.79h-.38672v-.41016h.38672v-.77051l.52441-.31641v1.08691h.53027v.41016h-.53027v1.81934a.88473.88473,0,0,0,.02832.29.21245.21245,0,0,0,.08984.10254.3528.3528,0,0,0,.18066.03809A1.71546,1.71546,0,0,0,220.42188,27.08691Z" transform="translate(-158.67999 -2.83833)"/>
    <path d="M220.69922,26.00293a1.60368,1.60368,0,0,1,.48047-1.28027,1.44776,1.44776,0,0,1,.97852-.3457,1.39919,1.39919,0,0,1,1.04883.41992,1.60222,1.60222,0,0,1,.40723,1.16211,2.04731,2.04731,0,0,1-.18066.94531,1.272,1.272,0,0,1-.52344.53418,1.53132,1.53132,0,0,1-.752.19043,1.39964,1.39964,0,0,1-1.05664-.41895A1.67325,1.67325,0,0,1,220.69922,26.00293Zm.542,0a1.32665,1.32665,0,0,0,.26074.89551.86865.86865,0,0,0,1.30957-.002,1.35662,1.35662,0,0,0,.26074-.91113,1.28909,1.28909,0,0,0-.26172-.874.86945.86945,0,0,0-1.30859-.002A1.31927,1.31927,0,0,0,221.24121,26.00293Z" transform="translate(-158.67999 -2.83833)"/>
    <path d="M223.75781,28.751v-.38086h3.49512V28.751Z" transform="translate(-158.67999 -2.83833)"/>
    <path d="M229.6123,27.55859V27.166a.96772.96772,0,0,1-.87012.46289,1.224,1.224,0,0,1-.68457-.20508,1.34519,1.34519,0,0,1-.48242-.57227,1.96736,1.96736,0,0,1-.17187-.8457,2.2183,2.2183,0,0,1,.15527-.8457,1.228,1.228,0,0,1,.46582-.58105,1.24539,1.24539,0,0,1,.69434-.20215,1.041,1.041,0,0,1,.8584.42773v-1.541h.52441v4.29492Zm-1.667-1.55273a1.35121,1.35121,0,0,0,.252.89355.75971.75971,0,0,0,.59473.2959.74567.74567,0,0,0,.58789-.2832,1.30569,1.30569,0,0,0,.24121-.8623,1.46312,1.46312,0,0,0-.24609-.9375.75693.75693,0,0,0-.60645-.29883.73157.73157,0,0,0-.58789.28711A1.41723,1.41723,0,0,0,227.94531,26.00586Z" transform="translate(-158.67999 -2.83833)"/>
    <path d="M233.02441,26.55664l.54492.06738a1.32952,1.32952,0,0,1-.47754.74121,1.6193,1.6193,0,0,1-1.97363-.15625,1.64806,1.64806,0,0,1-.39941-1.17969,1.7192,1.7192,0,0,1,.4043-1.21875,1.36853,1.36853,0,0,1,1.04883-.43359,1.33015,1.33015,0,0,1,1.01953.4248,1.68786,1.68786,0,0,1,.39551,1.19531q0,.04688-.00293.14063h-2.32031a1.19562,1.19562,0,0,0,.29.78516.86326.86326,0,0,0,.65039.27246.80693.80693,0,0,0,.49512-.15234A1.01127,1.01127,0,0,0,233.02441,26.55664ZM231.293,25.7041h1.7373a1.054,1.054,0,0,0-.19922-.58887.80821.80821,0,0,0-.65332-.30469.835.835,0,0,0-.61035.24316A.95831.95831,0,0,0,231.293,25.7041Z" transform="translate(-158.67999 -2.83833)"/>
    <path d="M235.40039,27.08691l.07617.46582a1.95606,1.95606,0,0,1-.39844.04688.902.902,0,0,1-.44531-.09082.50514.50514,0,0,1-.22266-.23926,1.88049,1.88049,0,0,1-.06445-.62207v-1.79H233.959v-.41016h.38672v-.77051l.52441-.31641v1.08691h.53027v.41016h-.53027v1.81934a.88473.88473,0,0,0,.02832.29.21245.21245,0,0,0,.08984.10254.3528.3528,0,0,0,.18066.03809A1.71546,1.71546,0,0,0,235.40039,27.08691Z" transform="translate(-158.67999 -2.83833)"/>
    <path d="M237.959,27.1748a1.96546,1.96546,0,0,1-.56445.35156,1.62694,1.62694,0,0,1-.58105.10254,1.13574,1.13574,0,0,1-.78809-.25.82924.82924,0,0,1-.27539-.64062.86116.86116,0,0,1,.377-.7207,1.26711,1.26711,0,0,1,.37891-.17285,3.76818,3.76818,0,0,1,.46875-.0791,4.82,4.82,0,0,0,.94043-.18164q.00293-.1084.00293-.1377a.5822.5822,0,0,0-.14941-.4541.88254.88254,0,0,0-.60059-.17871.93513.93513,0,0,0-.54883.12988.79642.79642,0,0,0-.2627.46191l-.51562-.07031a1.27542,1.27542,0,0,1,.23145-.53418,1.02331,1.02331,0,0,1,.46582-.31445,2.10242,2.10242,0,0,1,.70605-.10937,1.86878,1.86878,0,0,1,.64746.09375.85357.85357,0,0,1,.36621.23633.82745.82745,0,0,1,.16406.3584,2.96921,2.96921,0,0,1,.02637.48633v.70313a7.2366,7.2366,0,0,0,.03418.93066,1.14668,1.14668,0,0,0,.13281.373h-.55078A1.11811,1.11811,0,0,1,237.959,27.1748Zm-.04395-1.17773a3.869,3.869,0,0,1-.86133.19922,1.9923,1.9923,0,0,0-.46.10547.46376.46376,0,0,0-.208.1709.45418.45418,0,0,0-.07324.251.44649.44649,0,0,0,.16016.35156.68389.68389,0,0,0,.4668.14063,1.07762,1.07762,0,0,0,.542-.13379.81486.81486,0,0,0,.34863-.36426,1.27389,1.27389,0,0,0,.085-.52734Z" transform="translate(-158.67999 -2.83833)"/>
    <path d="M241.25977,26.41895l.51855.06738a1.353,1.353,0,0,1-.43457.83984,1.27492,1.27492,0,0,1-.86035.30273,1.33031,1.33031,0,0,1-1.02637-.418,1.6866,1.6866,0,0,1-.38867-1.19629,2.16571,2.16571,0,0,1,.167-.88184,1.15529,1.15529,0,0,1,.50879-.56641,1.49369,1.49369,0,0,1,.74219-.18945,1.29651,1.29651,0,0,1,.8291.25586,1.17935,1.17935,0,0,1,.41309.72852l-.5127.0791a.85685.85685,0,0,0-.25879-.47168.674.674,0,0,0-.4502-.1582.8212.8212,0,0,0-.64746.28516,1.35925,1.35925,0,0,0-.249.9043,1.40171,1.40171,0,0,0,.24023.91113.78179.78179,0,0,0,.627.28418.7389.7389,0,0,0,.51855-.19043A.945.945,0,0,0,241.25977,26.41895Z" transform="translate(-158.67999 -2.83833)"/>
    <path d="M242.24121,27.55859V23.26367h.52734v1.541a1.17809,1.17809,0,0,1,.93164-.42773,1.24512,1.24512,0,0,1,.60059.13672.80019.80019,0,0,1,.36523.376,1.75407,1.75407,0,0,1,.10938.69727v1.97168H244.248V25.58691a.80711.80711,0,0,0-.17187-.5752.63136.63136,0,0,0-.48437-.18066.85977.85977,0,0,0-.44141.12207.68952.68952,0,0,0-.29395.3291,1.51378,1.51378,0,0,0-.08789.57422v1.70215Z" transform="translate(-158.67999 -2.83833)"/>
    <path d="M246.47168,28.751h-1.16309v-.43652h.63574V23.7002h-.63574v-.43652h1.16309Z" transform="translate(-158.67999 -2.83833)"/>
  </g>
  <line class="cls-7" x1="105.84" y1="9.66" x2="178.56001" y2="9.66"/>
  <polyline class="cls-8" points="177.9 6.9 183.48 9.66 177.9 12.48 177.9 6.9"/>
  <rect class="cls-4" x="115.92001" y="5.82001" width="8.34" height="7.20001"/>
  <g>
    <path d="M275.0708,14.11816V9.82324h1.90381a2.5606,2.5606,0,0,1,.873.11523.96258.96258,0,0,1,.47852.40918,1.21846,1.21846,0,0,1,.17773.64746,1.07934,1.07934,0,0,1-.29492.77051,1.49746,1.49746,0,0,1-.91406.39844,1.46469,1.46469,0,0,1,.3418.21387,2.9559,2.9559,0,0,1,.47266.57129l.74609,1.16895h-.71484l-.56836-.89355q-.249-.38672-.41016-.5918a1.30927,1.30927,0,0,0-.28711-.28711.866.866,0,0,0-.25977-.11426,1.70744,1.70744,0,0,0-.31641-.02051h-.66016v1.90723Zm.56787-2.39941h1.22266a1.80523,1.80523,0,0,0,.60938-.08105.63862.63862,0,0,0,.334-.25781.69245.69245,0,0,0,.11328-.38477.6427.6427,0,0,0-.2207-.501,1.03808,1.03808,0,0,0-.69922-.19629h-1.35937Z" transform="translate(-158.67999 -2.83833)"/>
    <path d="M279.18945,12.73828l.53613-.04687a1.17742,1.17742,0,0,0,.17676.52832.95577.95577,0,0,0,.43262.334,1.62019,1.62019,0,0,0,.65918.12793,1.57954,1.57954,0,0,0,.57422-.09668.797.797,0,0,0,.37109-.26562.61745.61745,0,0,0,.12109-.36719.56225.56225,0,0,0-.11719-.35352.87582.87582,0,0,0-.38672-.25293,7.79407,7.79407,0,0,0-.76465-.21,3.8564,3.8564,0,0,1-.8291-.26758,1.15756,1.15756,0,0,1-.459-.40039.97571.97571,0,0,1-.15039-.53418,1.09546,1.09546,0,0,1,.18457-.6084,1.14788,1.14788,0,0,1,.53906-.42871,2.04507,2.04507,0,0,1,.78809-.14648,2.165,2.165,0,0,1,.8418.15332,1.21811,1.21811,0,0,1,.56152.45312,1.3,1.3,0,0,1,.21094.67676l-.54492.041a.87961.87961,0,0,0-.29785-.61523,1.156,1.156,0,0,0-.748-.208,1.19631,1.19631,0,0,0-.752.18945.564.564,0,0,0-.23535.45508.4884.4884,0,0,0,.167.38086,2.25672,2.25672,0,0,0,.85742.30664,5.7006,5.7006,0,0,1,.9502.27344,1.30864,1.30864,0,0,1,.55371.4375,1.0708,1.0708,0,0,1,.17871.61133,1.17217,1.17217,0,0,1-.19629.64648,1.29193,1.29193,0,0,1-.56445.4707,1.96263,1.96263,0,0,1-.82715.16895,2.47378,2.47378,0,0,1-.97754-.16992,1.35971,1.35971,0,0,1-.61719-.51074A1.44313,1.44313,0,0,1,279.18945,12.73828Z" transform="translate(-158.67999 -2.83833)"/>
  </g>
  <line class="cls-9" x1="105.84" y1="21.72003" x2="128.21999" y2="21.72003"/>
  <path class="cls-8" d="M284.8,24.55836a2.07461,2.07461,0,0,0,2.1,2.04,2.07021,2.07021,0,0,0,0-4.14,2.08692,2.08692,0,0,0-2.1,2.1" transform="translate(-158.67999 -2.83833)"/>
  <rect class="cls-4" x="109.92001" y="17.94003" width="11.64" height="7.20001"/>
  <g>
    <path d="M269.01074,26.23779V21.94287h1.9043a2.5606,2.5606,0,0,1,.873.11523.96047.96047,0,0,1,.47754.40918,1.21928,1.21928,0,0,1,.17871.64746,1.08013,1.08013,0,0,1-.2959.77051,1.49746,1.49746,0,0,1-.91406.39844,1.47391,1.47391,0,0,1,.34277.21387,2.95321,2.95321,0,0,1,.47168.57129l.74707,1.16895h-.71484l-.56836-.89355q-.249-.38672-.41016-.5918a1.30989,1.30989,0,0,0-.28809-.28711.866.866,0,0,0-.25977-.11426,1.70744,1.70744,0,0,0-.31641-.02051h-.65918v1.90723Zm.56836-2.39941h1.22168a1.80523,1.80523,0,0,0,.60938-.08105.63862.63862,0,0,0,.334-.25781.69341.69341,0,0,0,.11426-.38477.64038.64038,0,0,0-.22168-.501,1.03346,1.03346,0,0,0-.69824-.19629H269.5791Z" transform="translate(-158.67999 -2.83833)"/>
    <path d="M272.85156,26.23779l1.64941-4.29492h.6123l1.75781,4.29492h-.64746l-.501-1.30078h-1.7959l-.47168,1.30078Zm1.23926-1.76367h1.45605l-.44824-1.18945q-.20508-.542-.30469-.89062a5.475,5.475,0,0,1-.23145.82031Z" transform="translate(-158.67999 -2.83833)"/>
    <path d="M279.11523,26.23779h-.52734V22.87744a2.75449,2.75449,0,0,1-.499.36328,3.58591,3.58591,0,0,1-.55566.27246v-.50977a3.18474,3.18474,0,0,0,.77344-.50391,1.9821,1.9821,0,0,0,.46875-.57422h.33984Z" transform="translate(-158.67999 -2.83833)"/>
  </g>
  <line class="cls-9" x1="2.04" y1="19.38" x2="17.94" y2="19.38"/>
  <path class="cls-8" d="M162.82,22.21834a2.12588,2.12588,0,0,0-2.1-2.1,2.07463,2.07463,0,0,0-2.04,2.1,2.02316,2.02316,0,0,0,2.04,2.04,2.07462,2.07462,0,0,0,2.1-2.04" transform="translate(-158.67999 -2.83833)"/>
  <polyline class="cls-8" points="17.28 16.62 22.8 19.38 17.28 22.14 17.28 16.62"/>
  <line class="cls-7" x1="266.52" y1="9.66" x2="289.31998" y2="9.66"/>
  <path class="cls-8" d="M445.9,12.49834a2.08691,2.08691,0,0,0,2.1,2.1,2.0506,2.0506,0,0,0,2.1-2.1,2.08693,2.08693,0,0,0-2.1-2.1,2.12586,2.12586,0,0,0-2.1,2.1" transform="translate(-158.67999 -2.83833)"/>
  <rect class="cls-4" x="272.46" y="5.94003" width="8.34" height="7.20001"/>
  <g>
    <path d="M431.55078,14.17773V9.88281h1.9043a2.5606,2.5606,0,0,1,.873.11523.96047.96047,0,0,1,.47754.40918,1.21928,1.21928,0,0,1,.17871.64746,1.08013,1.08013,0,0,1-.2959.77051,1.49746,1.49746,0,0,1-.91406.39844,1.47391,1.47391,0,0,1,.34277.21387,2.95321,2.95321,0,0,1,.47168.57129l.74707,1.16895h-.71484l-.56836-.89355q-.249-.38672-.41016-.5918a1.30989,1.30989,0,0,0-.28809-.28711.866.866,0,0,0-.25977-.11426,1.70744,1.70744,0,0,0-.31641-.02051h-.65918v1.90723Zm.56836-2.39941h1.22168a1.80523,1.80523,0,0,0,.60938-.08105.63862.63862,0,0,0,.334-.25781.69341.69341,0,0,0,.11426-.38477.64038.64038,0,0,0-.22168-.501,1.03346,1.03346,0,0,0-.69824-.19629h-1.35937Z" transform="translate(-158.67999 -2.83833)"/>
    <path d="M435.66992,12.79785l.53613-.04687a1.17742,1.17742,0,0,0,.17676.52832.95577.95577,0,0,0,.43262.334,1.62019,1.62019,0,0,0,.65918.12793,1.57954,1.57954,0,0,0,.57422-.09668.797.797,0,0,0,.37109-.26562.61745.61745,0,0,0,.12109-.36719.56225.56225,0,0,0-.11719-.35352.87582.87582,0,0,0-.38672-.25293,7.79408,7.79408,0,0,0-.76465-.21,3.8564,3.8564,0,0,1-.8291-.26758,1.15756,1.15756,0,0,1-.459-.40039.97571.97571,0,0,1-.15039-.53418,1.09546,1.09546,0,0,1,.18457-.6084,1.14788,1.14788,0,0,1,.53906-.42871,2.04507,2.04507,0,0,1,.78809-.14648,2.165,2.165,0,0,1,.8418.15332,1.21811,1.21811,0,0,1,.56152.45313,1.3,1.3,0,0,1,.21094.67676l-.54492.041a.87961.87961,0,0,0-.29785-.61523,1.156,1.156,0,0,0-.748-.208,1.19631,1.19631,0,0,0-.752.18945.564.564,0,0,0-.23535.45508.4884.4884,0,0,0,.167.38086,2.25672,2.25672,0,0,0,.85742.30664,5.70059,5.70059,0,0,1,.9502.27344,1.30865,1.30865,0,0,1,.55371.4375,1.0708,1.0708,0,0,1,.17871.61133,1.17217,1.17217,0,0,1-.19629.64648,1.29193,1.29193,0,0,1-.56445.4707,1.96262,1.96262,0,0,1-.82715.16895,2.47378,2.47378,0,0,1-.97754-.16992,1.35971,1.35971,0,0,1-.61719-.51074A1.44313,1.44313,0,0,1,435.66992,12.79785Z" transform="translate(-158.67999 -2.83833)"/>
  </g>
  <path class="cls-3" d="M345.88,41.59834h75.6a3.75179,3.75179,0,0,0,3.72-3.78v-31.26a3.73871,3.73871,0,0,0-3.72-3.72h-75.6a3.73871,3.73871,0,0,0-3.72,3.72v31.26a3.75179,3.75179,0,0,0,3.72,3.78" transform="translate(-158.67999 -2.83833)"/>
  <g>
    <path class="cls-4" d="M360.23438,22.458V16.74609h1.96777a4.84854,4.84854,0,0,1,1.01758.08105,1.94882,1.94882,0,0,1,.83789.40918,2.33036,2.33036,0,0,1,.67578.97656,3.83042,3.83042,0,0,1,.22363,1.35742,4.01126,4.01126,0,0,1-.15137,1.15332,2.79256,2.79256,0,0,1-.38965.832,2.07806,2.07806,0,0,1-.52051.51855,2.1153,2.1153,0,0,1-.68164.28613,3.86925,3.86925,0,0,1-.918.09766Zm.75586-.67383H362.21a2.95131,2.95131,0,0,0,.88672-.10547,1.27572,1.27572,0,0,0,.5127-.2959,1.81661,1.81661,0,0,0,.41895-.72266,3.551,3.551,0,0,0,.14941-1.10156,2.65792,2.65792,0,0,0-.29395-1.377,1.47554,1.47554,0,0,0-.71484-.64453,2.95075,2.95075,0,0,0-.97852-.11719h-1.2002Z" transform="translate(-158.67999 -2.83833)"/>
    <path class="cls-4" d="M366.0127,22.458V16.74609h4.13086v.67383h-3.375v1.749h3.16016v.6709h-3.16016v1.94434h3.50684V22.458Z" transform="translate(-158.67999 -2.83833)"/>
    <path class="cls-4" d="M372.77441,22.458V17.41992h-1.88184v-.67383h4.52734v.67383h-1.88965V22.458Z" transform="translate(-158.67999 -2.83833)"/>
    <path class="cls-4" d="M375.60742,22.458l2.19336-5.71191h.81445l2.33789,5.71191h-.86035l-.667-1.73047h-2.38867l-.627,1.73047Zm1.64844-2.3457h1.93652l-.59668-1.582q-.27246-.7207-.40527-1.18457a7.16323,7.16323,0,0,1-.30762,1.09082Z" transform="translate(-158.67999 -2.83833)"/>
    <path class="cls-4" d="M385.64941,20.45508l.75586.19141a2.54342,2.54342,0,0,1-.85547,1.41992,2.35458,2.35458,0,0,1-1.50977.48926,2.71937,2.71937,0,0,1-1.502-.376,2.35227,2.35227,0,0,1-.88086-1.08887,3.8921,3.8921,0,0,1-.30176-1.53223,3.36462,3.36462,0,0,1,.34082-1.55664,2.3358,2.3358,0,0,1,.9707-1.00879,2.836,2.836,0,0,1,1.38477-.34473,2.34082,2.34082,0,0,1,1.44141.43652,2.26733,2.26733,0,0,1,.81445,1.22754l-.74414.1748a1.76059,1.76059,0,0,0-.57617-.90723,1.53326,1.53326,0,0,0-.95117-.28516,1.8506,1.8506,0,0,0-1.10059.31543,1.66652,1.66652,0,0,0-.62109.84766,3.39688,3.39688,0,0,0-.17969,1.09668,3.48438,3.48438,0,0,0,.21191,1.27246,1.58107,1.58107,0,0,0,.66113.8125,1.84745,1.84745,0,0,0,.96973.26855,1.62352,1.62352,0,0,0,1.0752-.36621A1.87017,1.87017,0,0,0,385.64941,20.45508Z" transform="translate(-158.67999 -2.83833)"/>
    <path class="cls-4" d="M387.35938,22.458V16.74609h.75586v2.3457H391.085v-2.3457h.75586V22.458H391.085V19.76563h-2.96973V22.458Z" transform="translate(-158.67999 -2.83833)"/>
  </g>
  <g>
    <path class="cls-4" d="M395.18359,22.4585V18.16357h1.62012a3.91171,3.91171,0,0,1,.65332.041,1.29451,1.29451,0,0,1,.53027.20117,1.06056,1.06056,0,0,1,.34473.41406,1.4005,1.4005,0,0,1-.21875,1.51367,1.67237,1.67237,0,0,1-1.25977.37891H395.752V22.4585Zm.56836-2.25293h1.11035a1.17757,1.17757,0,0,0,.78223-.20508.73071.73071,0,0,0,.23145-.57715.78134.78134,0,0,0-.13574-.46094.642.642,0,0,0-.35937-.25391,2.42846,2.42846,0,0,0-.53027-.03809H395.752Z" transform="translate(-158.67999 -2.83833)"/>
    <path class="cls-4" d="M399.18555,22.4585V18.16357h.85547l1.0166,3.041q.14063.4248.20508.63574.07324-.23437.22852-.68848l1.02832-2.98828h.76465V22.4585h-.54785V18.86377l-1.248,3.59473h-.5127l-1.24219-3.65625V22.4585Z" transform="translate(-158.67999 -2.83833)"/>
    <path class="cls-4" d="M404.19531,22.4585V18.16357h3.10547v.50684h-2.53711v1.31543h2.376v.50391h-2.376v1.46191h2.63672v.50684Z" transform="translate(-158.67999 -2.83833)"/>
  </g>
  <path class="cls-5" d="M345.88,41.59834h75.6a3.75179,3.75179,0,0,0,3.72-3.78v-4.44H342.16v4.44a3.75179,3.75179,0,0,0,3.72,3.78" transform="translate(-158.67999 -2.83833)"/>
  <g>
    <path class="cls-4" d="M346.52637,40.51025v-5.4873h1.16309v.43652h-.63574v4.61426h.63574v.43652Z" transform="translate(-158.67999 -2.83833)"/>
    <path class="cls-4" d="M349.48242,39.31787l-1.66406-4.29492h.61523l1.11621,3.12012q.13477.375.22559.70313.09961-.35156.23145-.70312l1.16016-3.12012h.58008l-1.68164,4.29492Z" transform="translate(-158.67999 -2.83833)"/>
    <path class="cls-4" d="M352.19727,39.31787V35.02295h1.61133a1.99089,1.99089,0,0,1,.78906.13086,1.02624,1.02624,0,0,1,.4668.40039,1.07012,1.07012,0,0,1,.168.56738.97384.97384,0,0,1-.14941.51855,1.06684,1.06684,0,0,1-.45117.39258,1.1204,1.1204,0,0,1,.59863.38965,1.04393,1.04393,0,0,1,.21.65039,1.247,1.247,0,0,1-.12793.56152,1.08149,1.08149,0,0,1-.31445.39941,1.29992,1.29992,0,0,1-.4707.21191,2.80535,2.80535,0,0,1-.69238.07227Zm.56836-2.49023h.92871a2.07229,2.07229,0,0,0,.542-.0498.59747.59747,0,0,0,.32617-.21387.60991.60991,0,0,0,.11035-.375.69471.69471,0,0,0-.10254-.377.5275.5275,0,0,0-.293-.22266,2.49457,2.49457,0,0,0-.65332-.05957h-.8584Zm0,1.9834H353.835a2.46138,2.46138,0,0,0,.38672-.02051.92664.92664,0,0,0,.32813-.11719.62066.62066,0,0,0,.2168-.23828.74928.74928,0,0,0,.085-.3623.71215.71215,0,0,0-.123-.417.657.657,0,0,0-.3418-.25,2.14845,2.14845,0,0,0-.62793-.07129h-.99316Z" transform="translate(-158.67999 -2.83833)"/>
    <path class="cls-4" d="M356.30762,36.80713v-.60059h.60059v.60059Zm0,2.51074v-.60059h.60059v.60059Z" transform="translate(-158.67999 -2.83833)"/>
    <path class="cls-4" d="M359.49609,39.31787V35.02295h.52734v4.29492Z" transform="translate(-158.67999 -2.83833)"/>
    <path class="cls-4" d="M362.97656,38.31592l.54492.06738a1.32952,1.32952,0,0,1-.47754.74121,1.6193,1.6193,0,0,1-1.97363-.15625,1.64806,1.64806,0,0,1-.39941-1.17969,1.7192,1.7192,0,0,1,.4043-1.21875,1.36853,1.36853,0,0,1,1.04883-.43359,1.33015,1.33015,0,0,1,1.01953.4248,1.68786,1.68786,0,0,1,.39551,1.19531q0,.04688-.00293.14063h-2.32031a1.19562,1.19562,0,0,0,.29.78516.86326.86326,0,0,0,.65039.27246.80693.80693,0,0,0,.49512-.15234A1.01127,1.01127,0,0,0,362.97656,38.31592Zm-1.73145-.85254h1.7373a1.054,1.054,0,0,0-.19922-.58887.80821.80821,0,0,0-.65332-.30469.835.835,0,0,0-.61035.24316A.95831.95831,0,0,0,361.24512,37.46338Z" transform="translate(-158.67999 -2.83833)"/>
    <path class="cls-4" d="M366.21973,38.93408a1.96546,1.96546,0,0,1-.56445.35156,1.62694,1.62694,0,0,1-.58105.10254,1.13574,1.13574,0,0,1-.78809-.25.82924.82924,0,0,1-.27539-.64062.86116.86116,0,0,1,.377-.7207,1.26711,1.26711,0,0,1,.37891-.17285,3.76818,3.76818,0,0,1,.46875-.0791,4.82,4.82,0,0,0,.94043-.18164q.00293-.1084.00293-.1377a.5822.5822,0,0,0-.14941-.4541.88255.88255,0,0,0-.60059-.17871.93513.93513,0,0,0-.54883.12988.79642.79642,0,0,0-.2627.46191l-.51562-.07031a1.27542,1.27542,0,0,1,.23145-.53418,1.02331,1.02331,0,0,1,.46582-.31445,2.10242,2.10242,0,0,1,.70605-.10937,1.86878,1.86878,0,0,1,.64746.09375.85357.85357,0,0,1,.36621.23633.82745.82745,0,0,1,.16406.3584,2.96921,2.96921,0,0,1,.02637.48633v.70313a7.2366,7.2366,0,0,0,.03418.93066,1.14668,1.14668,0,0,0,.13281.373h-.55078A1.11811,1.11811,0,0,1,366.21973,38.93408Zm-.04395-1.17773a3.869,3.869,0,0,1-.86133.19922,1.9923,1.9923,0,0,0-.46.10547.46376.46376,0,0,0-.208.1709.45418.45418,0,0,0-.07324.251.44649.44649,0,0,0,.16016.35156.68389.68389,0,0,0,.4668.14063,1.07762,1.07762,0,0,0,.542-.13379.81486.81486,0,0,0,.34863-.36426,1.27389,1.27389,0,0,0,.085-.52734Z" transform="translate(-158.67999 -2.83833)"/>
    <path class="cls-4" d="M368.35449,39.31787l-1.18359-3.11133h.55664l.668,1.86328q.1084.30176.19922.627.07031-.24609.19629-.5918l.69141-1.89844h.542l-1.17773,3.11133Z" transform="translate(-158.67999 -2.83833)"/>
    <path class="cls-4" d="M370.499,35.62939v-.60645h.52734v.60645Zm0,3.68848V36.20654h.52734v3.11133Z" transform="translate(-158.67999 -2.83833)"/>
    <path class="cls-4" d="M371.87109,39.31787V36.20654h.47461v.44238a1.11843,1.11843,0,0,1,.99023-.5127,1.28017,1.28017,0,0,1,.5166.10156.80687.80687,0,0,1,.35352.26465,1.01772,1.01772,0,0,1,.16406.38965,3.0196,3.0196,0,0,1,.0293.5127v1.91309h-.52734V37.42529a1.42775,1.42775,0,0,0-.06152-.48242.51261.51261,0,0,0-.21777-.25391.69866.69866,0,0,0-.36816-.0957.8514.8514,0,0,0-.58105.21387,1.05114,1.05114,0,0,0-.24512.81152v1.69922Z" transform="translate(-158.67999 -2.83833)"/>
    <path class="cls-4" d="M375.0752,39.57568l.5127.07617a.48857.48857,0,0,0,.17871.3457.878.878,0,0,0,.53613.14648.94155.94155,0,0,0,.56543-.14648.72088.72088,0,0,0,.26953-.41016,3.36813,3.36813,0,0,0,.03809-.67676,1.08466,1.08466,0,0,1-.86133.40723,1.17427,1.17427,0,0,1-.99316-.46289,1.78256,1.78256,0,0,1-.35156-1.11035,2.06419,2.06419,0,0,1,.16113-.82129,1.28513,1.28513,0,0,1,.46777-.582,1.258,1.258,0,0,1,.71875-.20508,1.11537,1.11537,0,0,1,.9082.44531v-.375h.48633V38.896a2.543,2.543,0,0,1-.14844,1.0293,1.0732,1.0732,0,0,1-.46875.47949,1.61989,1.61989,0,0,1-.78906.17578,1.48239,1.48239,0,0,1-.89941-.251A.845.845,0,0,1,375.0752,39.57568Zm.43652-1.86914a1.34976,1.34976,0,0,0,.24316.89355.80169.80169,0,0,0,1.21875.001,1.30269,1.30269,0,0,0,.24609-.877,1.27585,1.27585,0,0,0-.25391-.86133.78267.78267,0,0,0-.61035-.29.75871.75871,0,0,0-.59766.28613A1.26534,1.26534,0,0,0,375.51172,37.70654Z" transform="translate(-158.67999 -2.83833)"/>
    <path class="cls-4" d="M378.041,40.51025v-.38086h3.49512v.38086Z" transform="translate(-158.67999 -2.83833)"/>
    <path class="cls-4" d="M382.69238,39.31787l-1.18359-3.11133h.55664l.668,1.86328q.1084.30176.19922.627.07031-.24609.19629-.5918l.69141-1.89844h.542l-1.17773,3.11133Z" transform="translate(-158.67999 -2.83833)"/>
    <path class="cls-4" d="M386.958,38.31592l.54492.06738a1.32952,1.32952,0,0,1-.47754.74121,1.6193,1.6193,0,0,1-1.97363-.15625,1.64806,1.64806,0,0,1-.39941-1.17969,1.7192,1.7192,0,0,1,.4043-1.21875,1.36853,1.36853,0,0,1,1.04883-.43359,1.33015,1.33015,0,0,1,1.01953.4248,1.68786,1.68786,0,0,1,.39551,1.19531q0,.04688-.00293.14063h-2.32031a1.19562,1.19562,0,0,0,.29.78516.86326.86326,0,0,0,.65039.27246.80693.80693,0,0,0,.49512-.15234A1.01126,1.01126,0,0,0,386.958,38.31592Zm-1.73145-.85254h1.7373a1.054,1.054,0,0,0-.19922-.58887.80821.80821,0,0,0-.65332-.30469.835.835,0,0,0-.61035.24316A.95831.95831,0,0,0,385.22656,37.46338Z" transform="translate(-158.67999 -2.83833)"/>
    <path class="cls-4" d="M388.1709,39.31787V35.02295h.52734v1.541a1.17809,1.17809,0,0,1,.93164-.42773,1.24512,1.24512,0,0,1,.60059.13672.80019.80019,0,0,1,.36523.376,1.75407,1.75407,0,0,1,.10938.69727v1.97168h-.52734V37.34619a.80711.80711,0,0,0-.17187-.5752.63136.63136,0,0,0-.48437-.18066.85977.85977,0,0,0-.44141.12207.68952.68952,0,0,0-.29395.3291,1.51378,1.51378,0,0,0-.08789.57422v1.70215Z" transform="translate(-158.67999 -2.83833)"/>
    <path class="cls-4" d="M391.5166,35.62939v-.60645h.52734v.60645Zm0,3.68848V36.20654h.52734v3.11133Z" transform="translate(-158.67999 -2.83833)"/>
    <path class="cls-4" d="M394.88281,38.17822l.51855.06738a1.353,1.353,0,0,1-.43457.83984,1.27492,1.27492,0,0,1-.86035.30273,1.33031,1.33031,0,0,1-1.02637-.418,1.6866,1.6866,0,0,1-.38867-1.19629,2.16571,2.16571,0,0,1,.167-.88184,1.15529,1.15529,0,0,1,.50879-.56641,1.49369,1.49369,0,0,1,.74219-.18945,1.29651,1.29651,0,0,1,.8291.25586,1.17936,1.17936,0,0,1,.41309.72852l-.5127.0791a.85685.85685,0,0,0-.25879-.47168.674.674,0,0,0-.4502-.1582.8212.8212,0,0,0-.64746.28516,1.35925,1.35925,0,0,0-.249.9043,1.40171,1.40171,0,0,0,.24023.91113.78179.78179,0,0,0,.627.28418.7389.7389,0,0,0,.51855-.19043A.945.945,0,0,0,394.88281,38.17822Z" transform="translate(-158.67999 -2.83833)"/>
    <path class="cls-4" d="M395.84766,39.31787V35.02295h.52734v4.29492Z" transform="translate(-158.67999 -2.83833)"/>
    <path class="cls-4" d="M399.32813,38.31592l.54492.06738a1.32952,1.32952,0,0,1-.47754.74121,1.6193,1.6193,0,0,1-1.97363-.15625,1.64806,1.64806,0,0,1-.39941-1.17969,1.7192,1.7192,0,0,1,.4043-1.21875,1.36853,1.36853,0,0,1,1.04883-.43359,1.33015,1.33015,0,0,1,1.01953.4248,1.68786,1.68786,0,0,1,.39551,1.19531q0,.04688-.00293.14063h-2.32031a1.19562,1.19562,0,0,0,.29.78516.86326.86326,0,0,0,.65039.27246.80693.80693,0,0,0,.49512-.15234A1.01127,1.01127,0,0,0,399.32813,38.31592Zm-1.73145-.85254h1.7373a1.054,1.054,0,0,0-.19922-.58887.80821.80821,0,0,0-.65332-.30469.835.835,0,0,0-.61035.24316A.95831.95831,0,0,0,397.59668,37.46338Z" transform="translate(-158.67999 -2.83833)"/>
    <path class="cls-4" d="M401.42285,40.51025h-1.16309v-.43652h.63574V35.45947h-.63574v-.43652h1.16309Z" transform="translate(-158.67999 -2.83833)"/>
  </g>
  <line class="cls-9" x1="105.84" y1="32.58002" x2="128.21999" y2="32.58002"/>
  <path class="cls-8" d="M284.8,35.41835a2.12586,2.12586,0,0,0,2.1,2.1,2.07463,2.07463,0,0,0,2.04-2.1,2.02317,2.02317,0,0,0-2.04-2.04,2.07462,2.07462,0,0,0-2.1,2.04" transform="translate(-158.67999 -2.83833)"/>
  <rect class="cls-4" x="109.92001" y="28.86002" width="11.64" height="7.20001"/>
  <g>
    <path d="M269.01172,37.09814V32.80322h1.9043a2.5606,2.5606,0,0,1,.873.11523.96047.96047,0,0,1,.47754.40918,1.21928,1.21928,0,0,1,.17871.64746,1.08013,1.08013,0,0,1-.2959.77051,1.49746,1.49746,0,0,1-.91406.39844,1.47391,1.47391,0,0,1,.34277.21387,2.95321,2.95321,0,0,1,.47168.57129l.74707,1.16895H272.082l-.56836-.89355q-.249-.38672-.41016-.5918a1.30989,1.30989,0,0,0-.28809-.28711.866.866,0,0,0-.25977-.11426,1.70744,1.70744,0,0,0-.31641-.02051h-.65918v1.90723Zm.56836-2.39941h1.22168a1.80523,1.80523,0,0,0,.60938-.08105.63862.63862,0,0,0,.334-.25781.69341.69341,0,0,0,.11426-.38477.64038.64038,0,0,0-.22168-.501,1.03346,1.03346,0,0,0-.69824-.19629h-1.35937Z" transform="translate(-158.67999 -2.83833)"/>
    <path d="M272.85254,37.09814l1.64941-4.29492h.6123l1.75781,4.29492h-.64746l-.501-1.30078h-1.7959l-.47168,1.30078Zm1.23926-1.76367h1.45605l-.44824-1.18945q-.20508-.542-.30469-.89062a5.475,5.475,0,0,1-.23145.82031Z" transform="translate(-158.67999 -2.83833)"/>
    <path d="M279.90137,36.59131v.50684H277.0625a.93285.93285,0,0,1,.06152-.36621,1.93525,1.93525,0,0,1,.34668-.57129,5.44824,5.44824,0,0,1,.69043-.65039,5.80472,5.80472,0,0,0,.94629-.91016,1.08561,1.08561,0,0,0,.24609-.63379.69911.69911,0,0,0-.22461-.52832.80193.80193,0,0,0-.584-.21582.82358.82358,0,0,0-.60937.22852.86464.86464,0,0,0-.23145.63281l-.542-.05566a1.33293,1.33293,0,0,1,.41895-.92383,1.42929,1.42929,0,0,1,.97559-.31836,1.36134,1.36134,0,0,1,.97852.34277,1.12534,1.12534,0,0,1,.36035.84961,1.28858,1.28858,0,0,1-.10547.50684,1.96982,1.96982,0,0,1-.35059.52441,8.50969,8.50969,0,0,1-.8125.75586c-.31641.26563-.51953.44629-.60937.54a1.77844,1.77844,0,0,0-.22266.28613Z" transform="translate(-158.67999 -2.83833)"/>
  </g>
  <path class="cls-9" d="M425.2,31.87834h11.1a7.92,7.92,0,1,1,0,15.84H334.9a7.91246,7.91246,0,0,1-7.92-7.92v-.3a7.5797,7.5797,0,0,1,7.56-7.62h2.76" transform="translate(-158.67999 -2.83833)"/>
  <polyline class="cls-8" points="177.96 26.28 183.48 29.04 177.96 31.8 177.96 26.28"/>
  <rect class="cls-4" x="270.96" y="25.98001" width="11.70001" height="7.20001"/>
  <g>
    <path d="M430.1123,34.21826V29.92334h1.9043a2.5606,2.5606,0,0,1,.873.11523.96047.96047,0,0,1,.47754.40918,1.21928,1.21928,0,0,1,.17871.64746,1.08013,1.08013,0,0,1-.2959.77051,1.49746,1.49746,0,0,1-.91406.39844,1.47391,1.47391,0,0,1,.34277.21387,2.95321,2.95321,0,0,1,.47168.57129l.74707,1.16895h-.71484l-.56836-.89355q-.249-.38672-.41016-.5918a1.30989,1.30989,0,0,0-.28809-.28711.866.866,0,0,0-.25977-.11426,1.70744,1.70744,0,0,0-.31641-.02051h-.65918v1.90723Zm.56836-2.39941h1.22168a1.80523,1.80523,0,0,0,.60938-.08105.63862.63862,0,0,0,.334-.25781.69341.69341,0,0,0,.11426-.38477.64038.64038,0,0,0-.22168-.501,1.03346,1.03346,0,0,0-.69824-.19629h-1.35937Z" transform="translate(-158.67999 -2.83833)"/>
    <path d="M433.95313,34.21826l1.64941-4.29492h.6123l1.75781,4.29492h-.64746l-.501-1.30078h-1.7959l-.47168,1.30078Zm1.23926-1.76367h1.45605l-.44824-1.18945q-.20508-.542-.30469-.89062a5.475,5.475,0,0,1-.23145.82031Z" transform="translate(-158.67999 -2.83833)"/>
    <path d="M440.2168,34.21826h-.52734V30.85791a2.75449,2.75449,0,0,1-.499.36328,3.58591,3.58591,0,0,1-.55566.27246v-.50977a3.18474,3.18474,0,0,0,.77344-.50391,1.9821,1.9821,0,0,0,.46875-.57422h.33984Z" transform="translate(-158.67999 -2.83833)"/>
  </g>
</svg>
