<svg id="Ebene_1" data-name="Ebene 1" xmlns="http://www.w3.org/2000/svg" width="76.21058mm" height="39.27475mm" viewBox="0 0 216.02999 111.33">
  <defs>
    <style>
      .cls-1 {
        fill: #5c9bd4;
      }

      .cls-1, .cls-5, .cls-9 {
        fill-rule: evenodd;
      }

      .cls-2 {
        fill: #fff;
      }

      .cls-10, .cls-3, .cls-4 {
        fill: none;
      }

      .cls-3 {
        stroke: #fff;
        stroke-miterlimit: 2;
        stroke-width: 0.439px;
      }

      .cls-4 {
        stroke: #010101;
        stroke-width: 0.25px;
      }

      .cls-10, .cls-4 {
        stroke-linecap: round;
        stroke-linejoin: round;
      }

      .cls-5, .cls-6 {
        fill: #010101;
      }

      .cls-7 {
        fill: #7f8080;
      }

      .cls-8 {
        fill: #bfbebf;
      }

      .cls-9 {
        fill: #dae9f6;
      }

      .cls-10 {
        stroke: #5c9bd4;
        stroke-width: 1.5px;
      }
    </style>
  </defs>
  <title>FIG_Annex_ABORT</title>
  <path class="cls-1" d="M122.63,31.21869h27.18a3.368,3.368,0,0,0,3.42-3.36v-21.54a3.38085,3.38085,0,0,0-3.42-3.42H122.63a3.41839,3.41839,0,0,0-3.42,3.42v21.54a3.4061,3.4061,0,0,0,3.42,3.36" transform="translate(-118.46 -1.8187)"/>
  <g>
    <path class="cls-2" d="M131.94385,14.71875V9.00684h2.15479a5.11708,5.11708,0,0,1,.86865.05469,1.71553,1.71553,0,0,1,.70557.2666,1.39452,1.39452,0,0,1,.45752.55078,1.86027,1.86027,0,0,1-.29,2.0127,2.22237,2.22237,0,0,1-1.67578.50488h-1.46484v2.32227Zm.75586-2.99609h1.47656a1.5619,1.5619,0,0,0,1.04053-.27344.97159.97159,0,0,0,.30762-.76758,1.03011,1.03011,0,0,0-.18115-.61328.84772.84772,0,0,0-.47705-.33691,3.203,3.203,0,0,0-.70557-.05078h-1.46094Z" transform="translate(-118.46 -1.8187)"/>
    <path class="cls-2" d="M137.251,14.71875V9.00684h.75586v5.03809h2.81348v.67383Z" transform="translate(-118.46 -1.8187)"/>
  </g>
  <g>
    <path class="cls-2" d="M128.23242,24.31934V20.02441h.52734v4.29492Z" transform="translate(-118.46 -1.8187)"/>
    <path class="cls-2" d="M131.69482,23.31738l.54492.06738a1.32952,1.32952,0,0,1-.47754.74121,1.61859,1.61859,0,0,1-1.97314-.15625,1.644,1.644,0,0,1-.3999-1.17969,1.7192,1.7192,0,0,1,.4043-1.21875,1.36853,1.36853,0,0,1,1.04883-.43359,1.33015,1.33015,0,0,1,1.01953.4248,1.68786,1.68786,0,0,1,.39551,1.19531q0,.04688-.00293.14063h-2.32031a1.19562,1.19562,0,0,0,.29.78516.86326.86326,0,0,0,.65039.27246.80693.80693,0,0,0,.49512-.15234A1.01126,1.01126,0,0,0,131.69482,23.31738Zm-1.73145-.85254h1.7373a1.054,1.054,0,0,0-.19922-.58887.80821.80821,0,0,0-.65332-.30469.83774.83774,0,0,0-.61084.24316A.9624.9624,0,0,0,129.96338,22.46484Z" transform="translate(-118.46 -1.8187)"/>
    <path class="cls-2" d="M134.9502,23.93555a1.96365,1.96365,0,0,1-.564.35156,1.62961,1.62961,0,0,1-.58154.10254,1.13574,1.13574,0,0,1-.78809-.25.82924.82924,0,0,1-.27539-.64062.85592.85592,0,0,1,.104-.418.86787.86787,0,0,1,.27246-.30273,1.28117,1.28117,0,0,1,.37939-.17285,3.76818,3.76818,0,0,1,.46875-.0791,4.82,4.82,0,0,0,.94043-.18164q.00293-.1084.00293-.1377a.5822.5822,0,0,0-.14941-.4541.88254.88254,0,0,0-.60059-.17871.939.939,0,0,0-.54932.12988.80134.80134,0,0,0-.26221.46191l-.51562-.07031a1.27542,1.27542,0,0,1,.23145-.53418,1.02331,1.02331,0,0,1,.46582-.31445,2.10242,2.10242,0,0,1,.70605-.10937,1.86878,1.86878,0,0,1,.64746.09375.85357.85357,0,0,1,.36621.23633.82745.82745,0,0,1,.16406.3584,2.9692,2.9692,0,0,1,.02637.48633v.70313a7.473,7.473,0,0,0,.03369.93066,1.17089,1.17089,0,0,0,.1333.373h-.55078A1.11811,1.11811,0,0,1,134.9502,23.93555Zm-.04395-1.17773a3.869,3.869,0,0,1-.86133.19922,1.9923,1.9923,0,0,0-.46.10547.46376.46376,0,0,0-.208.1709.45418.45418,0,0,0-.07324.251.44911.44911,0,0,0,.15967.35156.687.687,0,0,0,.46729.14063,1.07762,1.07762,0,0,0,.542-.13379.81486.81486,0,0,0,.34863-.36426,1.27389,1.27389,0,0,0,.085-.52734Z" transform="translate(-118.46 -1.8187)"/>
    <path class="cls-2" d="M138.23975,24.31934v-.39258a.96772.96772,0,0,1-.87012.46289,1.2201,1.2201,0,0,1-.68408-.20508,1.34721,1.34721,0,0,1-.4834-.57227,1.98182,1.98182,0,0,1-.17139-.8457,2.2183,2.2183,0,0,1,.15527-.8457,1.228,1.228,0,0,1,.46582-.58105,1.24539,1.24539,0,0,1,.69434-.20215,1.041,1.041,0,0,1,.8584.42773v-1.541h.52441v4.29492Zm-1.667-1.55273a1.35121,1.35121,0,0,0,.252.89355.75971.75971,0,0,0,.59473.2959.74335.74335,0,0,0,.5874-.2832,1.30019,1.30019,0,0,0,.2417-.8623,1.46312,1.46312,0,0,0-.24609-.9375.75693.75693,0,0,0-.60645-.29883.73065.73065,0,0,0-.5874.28711A1.41706,1.41706,0,0,0,136.57275,22.7666Z" transform="translate(-118.46 -1.8187)"/>
    <path class="cls-2" d="M141.70557,23.31738l.54492.06738a1.32952,1.32952,0,0,1-.47754.74121,1.61859,1.61859,0,0,1-1.97314-.15625,1.644,1.644,0,0,1-.3999-1.17969,1.7192,1.7192,0,0,1,.4043-1.21875,1.36853,1.36853,0,0,1,1.04883-.43359,1.33015,1.33015,0,0,1,1.01953.4248,1.68786,1.68786,0,0,1,.39551,1.19531q0,.04688-.00293.14063h-2.32031a1.19562,1.19562,0,0,0,.29.78516.86326.86326,0,0,0,.65039.27246.80693.80693,0,0,0,.49512-.15234A1.01127,1.01127,0,0,0,141.70557,23.31738Zm-1.73145-.85254h1.7373a1.054,1.054,0,0,0-.19922-.58887.80821.80821,0,0,0-.65332-.30469.83774.83774,0,0,0-.61084.24316A.9624.9624,0,0,0,139.97412,22.46484Z" transform="translate(-118.46 -1.8187)"/>
    <path class="cls-2" d="M142.9248,24.31934V21.208h.47461v.47168a1.28713,1.28713,0,0,1,.33545-.43652.58555.58555,0,0,1,.33838-.10547,1.0286,1.0286,0,0,1,.542.16992l-.18164.48926a.75453.75453,0,0,0-.38672-.11426.50783.50783,0,0,0-.31055.10352.56882.56882,0,0,0-.19629.28906,2.05408,2.05408,0,0,0-.08789.61523v1.62891Z" transform="translate(-118.46 -1.8187)"/>
  </g>
  <path class="cls-1" d="M303.89,31.57869h27.24a3.368,3.368,0,0,0,3.36-3.42V6.6187a3.35448,3.35448,0,0,0-3.36-3.36H303.89a3.40611,3.40611,0,0,0-3.42,3.36v21.54a3.41841,3.41841,0,0,0,3.42,3.42" transform="translate(-118.46 -1.8187)"/>
  <g>
    <path class="cls-2" d="M313.78223,14.41895V10.124h1.9043a2.5606,2.5606,0,0,1,.873.11523.96047.96047,0,0,1,.47754.40918,1.21928,1.21928,0,0,1,.17871.64746,1.08013,1.08013,0,0,1-.2959.77051,1.49746,1.49746,0,0,1-.91406.39844,1.47391,1.47391,0,0,1,.34277.21387,2.95321,2.95321,0,0,1,.47168.57129l.74707,1.16895h-.71484l-.56836-.89355q-.249-.38672-.41016-.5918a1.29,1.29,0,0,0-.28906-.28711.85054.85054,0,0,0-.25879-.11426,1.70744,1.70744,0,0,0-.31641-.02051h-.65918v1.90723Zm.56836-2.39941h1.22168a1.80523,1.80523,0,0,0,.60938-.08105.63862.63862,0,0,0,.334-.25781.69341.69341,0,0,0,.11426-.38477.64038.64038,0,0,0-.22168-.501,1.03346,1.03346,0,0,0-.69824-.19629h-1.35937Z" transform="translate(-118.46 -1.8187)"/>
    <path class="cls-2" d="M317.90039,13.03906l.53613-.04687a1.17763,1.17763,0,0,0,.17773.52832.95268.95268,0,0,0,.43164.334,1.62019,1.62019,0,0,0,.65918.12793,1.57954,1.57954,0,0,0,.57422-.09668.792.792,0,0,0,.37109-.26562.61094.61094,0,0,0,.12109-.36719.56225.56225,0,0,0-.11719-.35352.87582.87582,0,0,0-.38672-.25293,7.79407,7.79407,0,0,0-.76465-.21,3.8564,3.8564,0,0,1-.8291-.26758,1.15435,1.15435,0,0,1-.458-.40039.97648.97648,0,0,1-.15137-.53418,1.09546,1.09546,0,0,1,.18457-.6084,1.14788,1.14788,0,0,1,.53906-.42871,2.04507,2.04507,0,0,1,.78809-.14648,2.17346,2.17346,0,0,1,.84277.15332,1.22039,1.22039,0,0,1,.56055.45313,1.3,1.3,0,0,1,.21094.67676l-.54492.041a.87886.87886,0,0,0-.29687-.61523,1.159,1.159,0,0,0-.749-.208,1.19312,1.19312,0,0,0-.751.18945.565.565,0,0,0-.23633.45508.4884.4884,0,0,0,.167.38086,2.26407,2.26407,0,0,0,.85742.30664,5.67083,5.67083,0,0,1,.9502.27344,1.30864,1.30864,0,0,1,.55371.4375,1.0708,1.0708,0,0,1,.17871.61133,1.17217,1.17217,0,0,1-.19629.64648,1.28914,1.28914,0,0,1-.56348.4707,1.96716,1.96716,0,0,1-.82812.16895,2.46869,2.46869,0,0,1-.97656-.16992,1.36738,1.36738,0,0,1-.61816-.51074A1.45159,1.45159,0,0,1,317.90039,13.03906Z" transform="translate(-118.46 -1.8187)"/>
  </g>
  <line class="cls-3" x1="194.85" y1="13.2" x2="203.19" y2="13.2"/>
  <g>
    <path class="cls-2" d="M313.20508,23.41895V17.707h2.15527a5.10667,5.10667,0,0,1,.86816.05469,1.71777,1.71777,0,0,1,.70605.2666,1.39351,1.39351,0,0,1,.457.55078,1.85759,1.85759,0,0,1-.29,2.0127,2.22088,2.22088,0,0,1-1.67578.50488h-1.46484v2.32227Zm.75586-2.99609h1.47656a1.5634,1.5634,0,0,0,1.041-.27344.97158.97158,0,0,0,.30762-.76758,1.03039,1.03039,0,0,0-.18164-.61328.845.845,0,0,0-.47656-.33691,3.20832,3.20832,0,0,0-.70605-.05078h-1.46094Z" transform="translate(-118.46 -1.8187)"/>
    <path class="cls-2" d="M318.5127,23.41895V17.707h.75586v5.03809H322.082v.67383Z" transform="translate(-118.46 -1.8187)"/>
  </g>
  <line class="cls-4" x1="34.77" y1="15.6" x2="57.15" y2="15.59999"/>
  <polyline class="cls-5" points="56.49 12.84 62.01 15.6 56.49 18.36 56.49 12.84"/>
  <line class="cls-4" x1="34.77" y1="90.72" x2="92.13" y2="90.72"/>
  <polyline class="cls-5" points="91.47 87.96 96.99 90.72 91.47 93.48 91.47 87.96"/>
  <line class="cls-4" x1="131.01" y1="90.72" x2="177.21" y2="90.72"/>
  <polyline class="cls-5" points="176.49 87.96 182.01 90.72 176.49 93.48 176.49 87.96"/>
  <path class="cls-6" d="M137.50977,68.12329a.12006.12006,0,0,1-.0625-.0166.12567.12567,0,0,1-.0459-.1709c.07471-.12988.15283-.25781.23389-.38574a.12516.12516,0,0,1,.21094.13477c-.0791.124-.15527.25-.228.376A.12573.12573,0,0,1,137.50977,68.12329Zm.9541-1.39648a.12511.12511,0,0,1-.09814-.20215,14.94782,14.94782,0,0,1,1.17139-1.30957.12533.12533,0,0,1,.17676.17773,14.65519,14.65519,0,0,0-1.15186,1.28613A.12579.12579,0,0,1,138.46387,66.7268Zm2.07568-2.14551a.124.124,0,0,1-.09424-.043.12525.12525,0,0,1,.01221-.17676c.42139-.36523.8833-.7334,1.37354-1.09375a.125.125,0,1,1,.14844.20117c-.48486.35645-.94189.7207-1.35791,1.082A.12471.12471,0,0,1,140.53955,64.58129Zm2.38965-1.80371a.12428.12428,0,0,1-.104-.05566.12565.12565,0,0,1,.03516-.17383c.4751-.31543.97607-.62793,1.48828-.93066a.12477.12477,0,1,1,.127.21484c-.5083.30078-1.00537.61133-1.47705.9248A.12881.12881,0,0,1,142.9292,62.77758Zm2.56982-1.54492a.12472.12472,0,0,1-.05957-.23437c.50391-.27539,1.02832-.54785,1.55713-.81055a.12534.12534,0,0,1,.11133.22461c-.52637.26074-1.04736.53223-1.54932.80469A.11816.11816,0,0,1,145.499,61.23266Zm2.67969-1.35059a.125.125,0,0,1-.05273-.23828c.51709-.24121,1.05566-.4834,1.60059-.71924a.12486.12486,0,1,1,.09961.229c-.543.23535-1.07959.47656-1.59473.7168A.12722.12722,0,0,1,148.17871,59.88207Zm2.75049-1.20459a.125.125,0,0,1-.04736-.24072q.7998-.32812,1.62939-.64941a.125.125,0,1,1,.08984.2334q-.82617.31934-1.62451.64746A.12577.12577,0,0,1,150.9292,58.67748Zm2.79688-1.0918a.125.125,0,0,1-.04346-.24219q.81372-.30176,1.6499-.5957a.12612.12612,0,0,1,.15918.07666.12464.12464,0,0,1-.07617.15918q-.83423.2937-1.646.59424A.122.122,0,0,1,153.72607,57.58569Zm2.83008-1.00342a.12491.12491,0,0,1-.04-.24316q.824-.28052,1.66455-.55322a.12477.12477,0,0,1,.07715.2373q-.83936.27319-1.66162.55225A.11514.11514,0,0,1,156.55615,56.58227Zm2.854-.93555a.125.125,0,0,1-.0376-.24414q.83057-.26221,1.67432-.52051a.12761.12761,0,0,1,.15625.083.12558.12558,0,0,1-.083.15625q-.84229.25781-1.67236.51953A.12818.12818,0,0,1,159.41016,55.64672Zm2.87158-.88086a.12493.12493,0,0,1-.03564-.24463q.835-.249,1.68164-.49463a.125.125,0,0,1,.06934.24023q-.84448.24536-1.67969.49365A.11284.11284,0,0,1,162.28174,54.76586Zm2.8833-.83936a.125.125,0,0,1-.03418-.24512q.83936-.23877,1.687-.4751a.12982.12982,0,0,1,.1543.08691.12527.12527,0,0,1-.08691.1543q-.84668.23511-1.686.47412A.11806.11806,0,0,1,165.165,53.92651Zm2.89258-.80811a.125.125,0,0,1-.0332-.24561q.84375-.23145,1.69092-.46045a.125.125,0,0,1,.06543.24121q-.84741.22925-1.68994.46045A.13213.13213,0,0,1,168.05762,53.1184Zm2.89893-.78613a.12493.12493,0,0,1-.03223-.24561q.84521-.22632,1.69287-.45117a.12484.12484,0,0,1,.06445.24121q-.84741.22485-1.69287.45117A.122.122,0,0,1,170.95654,52.33227Zm2.90674-.772a.12481.12481,0,0,1-.03174-.24561l1.69678-.44727a.12518.12518,0,0,1,.06348.24219l-1.69678.44678A.14461.14461,0,0,1,173.86328,51.5603Zm2.90625-.76611a.12508.12508,0,0,1-.03174-.24609l1.69043-.44434a.12518.12518,0,1,1,.06348.24219l-1.69043.44434A.14461.14461,0,0,1,176.76953,50.79418Zm2.90039-.76318a.12488.12488,0,0,1-.03174-.24561q.84888-.22485,1.69287-.4502a.12634.12634,0,0,1,.15283.08838.1244.1244,0,0,1-.08838.15283q-.84375.22559-1.69385.4502A.11582.11582,0,0,1,179.66992,50.031Zm2.90186-.77441a.125.125,0,0,1-.03271-.24561q.84961-.22925,1.69043-.459a.12509.12509,0,1,1,.06641.24121q-.84155.23-1.69141.459A.12843.12843,0,0,1,182.57178,49.25659Zm2.89746-.7915a.125.125,0,0,1-.0332-.24561q.84888-.23584,1.686-.47314a.12489.12489,0,1,1,.06836.24023q-.83716.238-1.688.47412A.12652.12652,0,0,1,185.46924,48.46508Zm2.88965-.81836a.125.125,0,0,1-.03467-.24512q.84814-.24609,1.68018-.49414a.12483.12483,0,1,1,.07129.23926q-.832.249-1.68213.49512A.12376.12376,0,0,1,188.35889,47.64672Zm2.87842-.85742a.125.125,0,0,1-.03662-.24463q.84668-.25854,1.67139-.52246a.12508.12508,0,1,1,.07617.23828q-.82617.26367-1.67432.52344A.13565.13565,0,0,1,191.2373,46.7893Zm2.86279-.91064a.125.125,0,0,1-.03906-.24365q.84229-.27759,1.65771-.56152a.12508.12508,0,0,1,.082.23633q-.81665.28418-1.66162.5625A.12331.12331,0,0,1,194.1001,45.87866Zm2.83887-.98047a.125.125,0,0,1-.04248-.24268q.83569-.30322,1.6377-.61426a.12522.12522,0,1,1,.09082.2334q-.8042.31128-1.64355.61621A.12746.12746,0,0,1,196.939,44.89819Zm2.80371-1.07861a.125.125,0,0,1-.04736-.24072c.55713-.228,1.09814-.459,1.6084-.686a.125.125,0,1,1,.10156.22852c-.51221.228-1.05566.46-1.61523.689A.12577.12577,0,0,1,199.74268,43.81957Zm2.74756-1.21143a.125.125,0,0,1-.05371-.23779c.54883-.26221,1.07324-.52686,1.55859-.78662a.12517.12517,0,0,1,.11816.2207c-.48877.26123-1.0166.52734-1.56934.7915A.12322.12322,0,0,1,202.49023,42.60815Zm2.65576-1.3999a.12505.12505,0,0,1-.06348-.23291c.52588-.30908,1.02051-.62256,1.4707-.93213a.12674.12674,0,0,1,.17383.03223.1248.1248,0,0,1-.03223.17383c-.45508.313-.95508.62939-1.48535.94189A.1253.1253,0,0,1,205.146,41.20825Zm2.48486-1.67676a.125.125,0,0,1-.07715-.22314,14.44156,14.44156,0,0,0,1.29492-1.14648.125.125,0,0,1,.17773.17578,14.59125,14.59125,0,0,1-1.31836,1.167A.12264.12264,0,0,1,207.63086,39.53149Zm2.13379-2.08643a.125.125,0,0,1-.09814-.20264,8.09848,8.09848,0,0,0,.916-1.43555.12684.12684,0,0,1,.16748-.05713.1254.1254,0,0,1,.05713.16748,8.41064,8.41064,0,0,1-.94434,1.48047A.12528.12528,0,0,1,209.76465,37.44506Zm1.373-2.60791a.11483.11483,0,0,1-.03369-.00488.12431.12431,0,0,1-.08643-.15381,6.1533,6.1533,0,0,0,.22754-1.65967.125.125,0,0,1,.25,0,6.37562,6.37562,0,0,1-.2373,1.72705A.12454.12454,0,0,1,211.1377,34.83715Z" transform="translate(-118.46 -1.8187)"/>
  <polyline class="cls-5" points="21.93 66.24 17.79 70.86 16.59 64.8 21.93 66.24"/>
  <rect class="cls-2" x="65.67" y="41.76" width="11.64" height="7.2"/>
  <g>
    <path d="M184.06055,48.97852,185.71,44.68359h.6123l1.75781,4.29492h-.64746l-.501-1.30078h-1.7959l-.47168,1.30078Zm1.23926-1.76367h1.45605l-.44824-1.18945q-.20508-.542-.30469-.89062a5.475,5.475,0,0,1-.23145.82031Z" transform="translate(-118.46 -1.8187)"/>
    <path d="M188.52881,48.97852V44.68359h1.61133a1.99349,1.99349,0,0,1,.78955.13086,1.01887,1.01887,0,0,1,.46582.40039,1.06212,1.06212,0,0,1,.16846.56738.97384.97384,0,0,1-.14941.51855,1.06684,1.06684,0,0,1-.45117.39258,1.12175,1.12175,0,0,1,.59912.38965,1.04357,1.04357,0,0,1,.20947.65039,1.25962,1.25962,0,0,1-.12744.56152,1.09242,1.09242,0,0,1-.31494.39941,1.29742,1.29742,0,0,1-.47021.21191,2.80956,2.80956,0,0,1-.69287.07227Zm.56836-2.49023h.92871a2.07229,2.07229,0,0,0,.542-.0498.60242.60242,0,0,0,.32666-.21387.61607.61607,0,0,0,.10986-.375.69471.69471,0,0,0-.10254-.377.5275.5275,0,0,0-.293-.22266,2.49457,2.49457,0,0,0-.65332-.05957h-.8584Zm0,1.9834h1.06934a2.46138,2.46138,0,0,0,.38672-.02051.92664.92664,0,0,0,.32813-.11719.62066.62066,0,0,0,.2168-.23828.74928.74928,0,0,0,.085-.3623.71215.71215,0,0,0-.123-.417.65581.65581,0,0,0-.34131-.25,2.15217,2.15217,0,0,0-.62842-.07129h-.99316Z" transform="translate(-118.46 -1.8187)"/>
    <path d="M193.61084,48.97852V45.19043h-1.415v-.50684h3.4043v.50684h-1.4209v3.78809Z" transform="translate(-118.46 -1.8187)"/>
  </g>
  <rect class="cls-7" x="62.01" width="61.74" height="31.2"/>
  <g>
    <path class="cls-2" d="M203.26709,10.064l.71289-.0625a1.579,1.579,0,0,0,.23584.70313,1.28658,1.28658,0,0,0,.57471.44434,2.17287,2.17287,0,0,0,.877.16895,2.09694,2.09694,0,0,0,.76367-.12793,1.05817,1.05817,0,0,0,.49268-.35254.81823.81823,0,0,0,.16211-.48926.74281.74281,0,0,0-.15625-.46973,1.15179,1.15179,0,0,0-.51416-.33691,10.12217,10.12217,0,0,0-1.01709-.27832,5.22353,5.22353,0,0,1-1.10254-.35645,1.54948,1.54948,0,0,1-.60986-.53223,1.30256,1.30256,0,0,1-.20068-.71094A1.45411,1.45411,0,0,1,203.731,6.855a1.51754,1.51754,0,0,1,.7168-.57129,2.7202,2.7202,0,0,1,1.04834-.19434,2.87417,2.87417,0,0,1,1.12012.2041,1.62021,1.62021,0,0,1,.74609.60254,1.7307,1.7307,0,0,1,.28076.90039l-.7251.05371a1.16826,1.16826,0,0,0-.39551-.81836,1.543,1.543,0,0,0-.99512-.27637,1.594,1.594,0,0,0-.99951.252.75159.75159,0,0,0-.314.60547.65129.65129,0,0,0,.22217.50684,3.03358,3.03358,0,0,0,1.13965.40723,7.459,7.459,0,0,1,1.26465.36426,1.73773,1.73773,0,0,1,.73633.582,1.42173,1.42173,0,0,1,.23779.8125,1.55218,1.55218,0,0,1-.26123.85938,1.71817,1.71817,0,0,1-.75.627,2.61266,2.61266,0,0,1-1.10059.22461,3.27561,3.27561,0,0,1-1.2998-.22656,1.81746,1.81746,0,0,1-.82178-.67969A1.92594,1.92594,0,0,1,203.26709,10.064Z" transform="translate(-118.46 -1.8187)"/>
    <path class="cls-2" d="M208.83936,11.89893V6.187h.77539l3.00049,4.48438V6.187h.72461v5.71191h-.77539L209.564,7.41064v4.48828Z" transform="translate(-118.46 -1.8187)"/>
    <path class="cls-2" d="M214.60986,11.89893V6.187h1.96777a4.84329,4.84329,0,0,1,1.01709.08105,1.9442,1.9442,0,0,1,.8374.40918,2.32694,2.32694,0,0,1,.67627.97656,3.83019,3.83019,0,0,1,.22412,1.35742,3.97592,3.97592,0,0,1-.15234,1.15332,2.76877,2.76877,0,0,1-.38965.832,2.06068,2.06068,0,0,1-.52.51855,2.11067,2.11067,0,0,1-.68164.28613,3.86925,3.86925,0,0,1-.918.09766Zm.75586-.67383h1.21973a2.95215,2.95215,0,0,0,.88623-.10547,1.27572,1.27572,0,0,0,.5127-.2959,1.799,1.799,0,0,0,.41846-.72266,3.53432,3.53432,0,0,0,.15039-1.10156,2.65753,2.65753,0,0,0-.29443-1.377,1.47554,1.47554,0,0,0-.71484-.64453,2.94938,2.94938,0,0,0-.978-.11719h-1.2002Z" transform="translate(-118.46 -1.8187)"/>
  </g>
  <rect class="cls-8" x="62.01" y="13.74" width="61.74" height="17.46"/>
  <g>
    <path d="M184.89746,23.71094v-5.4873h1.16309v.43652h-.63574v4.61426h.63574v.43652Z" transform="translate(-118.46 -1.8187)"/>
    <path d="M186.56055,22.51855V18.22363h.85547l1.0166,3.041q.14063.4248.20508.63574.07324-.23437.22852-.68848l1.02832-2.98828h.76465v4.29492h-.54785V18.92383l-1.248,3.59473h-.5127L187.1084,18.8623v3.65625Z" transform="translate(-118.46 -1.8187)"/>
    <path d="M191.69141,20.00781v-.60059h.60059v.60059Zm0,2.51074V21.918h.60059v.60059Z" transform="translate(-118.46 -1.8187)"/>
    <path d="M194.7373,20.42676a2.3327,2.3327,0,0,1,.57422-1.67383,1.95269,1.95269,0,0,1,1.48242-.60547,2.05654,2.05654,0,0,1,1.07227.28418,1.86022,1.86022,0,0,1,.728.792,2.57893,2.57893,0,0,1,.25049,1.15332,2.53073,2.53073,0,0,1-.26367,1.16895,1.80133,1.80133,0,0,1-.74707.78125,2.134,2.134,0,0,1-1.043.26465,2.03084,2.03084,0,0,1-1.084-.293,1.88529,1.88529,0,0,1-.72363-.7998A2.42388,2.42388,0,0,1,194.7373,20.42676Zm.58594.00879a1.72187,1.72187,0,0,0,.41748,1.22363,1.457,1.457,0,0,0,2.10352-.00488,1.82424,1.82424,0,0,0,.41455-1.28027,2.20574,2.20574,0,0,0-.17725-.916,1.35926,1.35926,0,0,0-.51855-.60547,1.398,1.398,0,0,0-.76611-.21582,1.45369,1.45369,0,0,0-1.03857.415A1.85026,1.85026,0,0,0,195.32324,20.43555Z" transform="translate(-118.46 -1.8187)"/>
    <path d="M199.5918,22.51855V18.22363h1.9043a2.5606,2.5606,0,0,1,.873.11523.96047.96047,0,0,1,.47754.40918,1.21928,1.21928,0,0,1,.17871.64746,1.08013,1.08013,0,0,1-.2959.77051,1.49746,1.49746,0,0,1-.91406.39844,1.47391,1.47391,0,0,1,.34277.21387,2.95321,2.95321,0,0,1,.47168.57129l.74707,1.16895h-.71484l-.56836-.89355q-.249-.38672-.41016-.5918a1.28959,1.28959,0,0,0-.28857-.28711.853.853,0,0,0-.25928-.11426,1.70744,1.70744,0,0,0-.31641-.02051h-.65918v1.90723Zm.56836-2.39941h1.22168a1.80523,1.80523,0,0,0,.60938-.08105.63862.63862,0,0,0,.334-.25781.69341.69341,0,0,0,.11426-.38477.64.64,0,0,0-.22119-.501,1.0349,1.0349,0,0,0-.69873-.19629h-1.35937Z" transform="translate(-118.46 -1.8187)"/>
    <path d="M203.916,22.51855V18.22363h1.47949a3.58867,3.58867,0,0,1,.76465.06152,1.45473,1.45473,0,0,1,.62988.30762,1.749,1.749,0,0,1,.5083.73438,2.878,2.878,0,0,1,.16846,1.02051,2.99989,2.99989,0,0,1-.11426.86719,2.107,2.107,0,0,1-.293.626,1.53548,1.53548,0,0,1-.39111.38867,1.57308,1.57308,0,0,1-.5127.21582,2.92614,2.92614,0,0,1-.68994.07324Zm.56836-.50684h.917a2.22528,2.22528,0,0,0,.6665-.0791.95351.95351,0,0,0,.38525-.22266,1.35276,1.35276,0,0,0,.31494-.543,2.66023,2.66023,0,0,0,.11279-.82812,1.99661,1.99661,0,0,0-.22119-1.03516,1.1144,1.1144,0,0,0-.5376-.48535,2.22214,2.22214,0,0,0-.73535-.08789h-.90234Z" transform="translate(-118.46 -1.8187)"/>
    <path d="M207.69531,23.71094v-.38086h3.49512v.38086Z" transform="translate(-118.46 -1.8187)"/>
    <path d="M211.11426,22.51855l1.64941-4.29492h.6123l1.75781,4.29492h-.64746l-.501-1.30078h-1.7959l-.47168,1.30078Zm1.23926-1.76367h1.45605l-.44824-1.18945q-.20508-.542-.30469-.89062a5.475,5.475,0,0,1-.23145.82031Z" transform="translate(-118.46 -1.8187)"/>
    <path d="M216.68066,22.51855V18.73047h-1.415v-.50684h3.4043v.50684H217.249v3.78809Z" transform="translate(-118.46 -1.8187)"/>
    <path d="M220.35205,22.51855V18.73047h-1.415v-.50684h3.4043v.50684h-1.4209v3.78809Z" transform="translate(-118.46 -1.8187)"/>
    <path d="M222.4585,22.51855l1.64941-4.29492h.6123l1.75781,4.29492h-.64746l-.501-1.30078h-1.7959l-.47168,1.30078Zm1.23926-1.76367h1.45605l-.44824-1.18945q-.20508-.542-.30469-.89062a5.475,5.475,0,0,1-.23145.82031Z" transform="translate(-118.46 -1.8187)"/>
    <path d="M229.96,21.0127l.56836.14355a1.90793,1.90793,0,0,1-.64258,1.06738,1.768,1.768,0,0,1-1.13574.36816,2.03833,2.03833,0,0,1-1.12891-.28223,1.76664,1.76664,0,0,1-.66211-.81934,2.92166,2.92166,0,0,1-.22705-1.15137,2.52875,2.52875,0,0,1,.25635-1.16992,1.764,1.764,0,0,1,.72949-.75977,2.13993,2.13993,0,0,1,1.041-.25879,1.7607,1.7607,0,0,1,1.084.32813,1.704,1.704,0,0,1,.6123.92285l-.55957.13184a1.32735,1.32735,0,0,0-.43359-.68262,1.15542,1.15542,0,0,0-.71484-.21387,1.387,1.387,0,0,0-.82715.2373,1.256,1.256,0,0,0-.46729.63672,2.57267,2.57267,0,0,0-.13477.8252,2.6144,2.6144,0,0,0,.15967.95605,1.18669,1.18669,0,0,0,.49658.61133,1.38974,1.38974,0,0,0,.729.20215,1.2224,1.2224,0,0,0,.80859-.27539A1.40937,1.40937,0,0,0,229.96,21.0127Z" transform="translate(-118.46 -1.8187)"/>
    <path d="M231.28809,22.51855V18.22363h.56836V19.9873h2.23242V18.22363h.56836v4.29492h-.56836V20.49414h-2.23242v2.02441Z" transform="translate(-118.46 -1.8187)"/>
    <path d="M235.66211,22.51855V21.918h.60059v.60059a1.07056,1.07056,0,0,1-.11719.53516.768.768,0,0,1-.37207.31445l-.14648-.22559a.50153.50153,0,0,0,.24609-.21582.91539.91539,0,0,0,.08789-.4082Z" transform="translate(-118.46 -1.8187)"/>
  </g>
  <g>
    <path d="M184.96045,29.71875V25.42383h1.9043a2.5606,2.5606,0,0,1,.873.11523.96047.96047,0,0,1,.47754.40918,1.21928,1.21928,0,0,1,.17871.64746,1.08013,1.08013,0,0,1-.2959.77051,1.49746,1.49746,0,0,1-.91406.39844,1.47391,1.47391,0,0,1,.34277.21387,2.95321,2.95321,0,0,1,.47168.57129l.74707,1.16895h-.71484l-.56836-.89355q-.249-.38672-.41016-.5918a1.28959,1.28959,0,0,0-.28857-.28711.853.853,0,0,0-.25928-.11426,1.70744,1.70744,0,0,0-.31641-.02051h-.65918v1.90723Zm.56836-2.39941h1.22168a1.80523,1.80523,0,0,0,.60938-.08105.63862.63862,0,0,0,.334-.25781.69341.69341,0,0,0,.11426-.38477.64.64,0,0,0-.22119-.501,1.0349,1.0349,0,0,0-.69873-.19629h-1.35937Z" transform="translate(-118.46 -1.8187)"/>
    <path d="M189.35156,27.208v-.60059h.60059V27.208Zm0,2.51074v-.60059h.60059v.60059Z" transform="translate(-118.46 -1.8187)"/>
    <path d="M192.51514,30.91113V26.60742h.48047v.4043a1.1719,1.1719,0,0,1,.38379-.35547,1.044,1.044,0,0,1,.51855-.11914,1.22943,1.22943,0,0,1,.70313.20508,1.26228,1.26228,0,0,1,.46.57813,2.11858,2.11858,0,0,1,.15527.81934A2.08538,2.08538,0,0,1,195.04492,29a1.30129,1.30129,0,0,1-1.18506.78906.99239.99239,0,0,1-.47314-.11133,1.07749,1.07749,0,0,1-.34424-.28125v1.51465Zm.47754-2.73047a1.35337,1.35337,0,0,0,.24316.8877.74568.74568,0,0,0,.58887.28711.76182.76182,0,0,0,.60205-.29687,1.41232,1.41232,0,0,0,.25049-.92187,1.3746,1.3746,0,0,0-.24463-.89062.73647.73647,0,0,0-.58447-.2959.76.76,0,0,0-.59619.31543A1.4076,1.4076,0,0,0,192.99268,28.18066Z" transform="translate(-118.46 -1.8187)"/>
    <path d="M197.90039,29.335a1.96365,1.96365,0,0,1-.564.35156,1.62961,1.62961,0,0,1-.58154.10254,1.13574,1.13574,0,0,1-.78809-.25.82924.82924,0,0,1-.27539-.64062.85592.85592,0,0,1,.104-.418.86787.86787,0,0,1,.27246-.30273,1.28117,1.28117,0,0,1,.37939-.17285,3.76818,3.76818,0,0,1,.46875-.0791,4.82,4.82,0,0,0,.94043-.18164q.00293-.1084.00293-.1377a.5822.5822,0,0,0-.14941-.4541.88254.88254,0,0,0-.60059-.17871.939.939,0,0,0-.54932.12988.80134.80134,0,0,0-.26221.46191l-.51562-.07031a1.27542,1.27542,0,0,1,.23145-.53418,1.02331,1.02331,0,0,1,.46582-.31445,2.10242,2.10242,0,0,1,.70605-.10937,1.86878,1.86878,0,0,1,.64746.09375.85357.85357,0,0,1,.36621.23633.82745.82745,0,0,1,.16406.3584,2.96921,2.96921,0,0,1,.02637.48633V28.415a7.473,7.473,0,0,0,.03369.93066,1.17089,1.17089,0,0,0,.1333.373h-.55078A1.11811,1.11811,0,0,1,197.90039,29.335Zm-.04395-1.17773a3.869,3.869,0,0,1-.86133.19922,1.9923,1.9923,0,0,0-.46.10547.46376.46376,0,0,0-.208.1709.45418.45418,0,0,0-.07324.251.44911.44911,0,0,0,.15967.35156.687.687,0,0,0,.46729.14063,1.07762,1.07762,0,0,0,.542-.13379.81486.81486,0,0,0,.34863-.36426,1.27389,1.27389,0,0,0,.085-.52734Z" transform="translate(-118.46 -1.8187)"/>
    <path d="M199.15918,29.71875V26.60742h.47461v.47168a1.28713,1.28713,0,0,1,.33545-.43652.58555.58555,0,0,1,.33838-.10547,1.0286,1.0286,0,0,1,.542.16992l-.18164.48926a.75453.75453,0,0,0-.38672-.11426.50783.50783,0,0,0-.31055.10352.56882.56882,0,0,0-.19629.28906,2.05408,2.05408,0,0,0-.08789.61523v1.62891Z" transform="translate(-118.46 -1.8187)"/>
    <path d="M202.35059,29.24707l.07617.46582a1.95606,1.95606,0,0,1-.39844.04688.902.902,0,0,1-.44531-.09082.50514.50514,0,0,1-.22266-.23926,1.88049,1.88049,0,0,1-.06445-.62207v-1.79h-.38672v-.41016h.38672v-.77051l.52441-.31641v1.08691h.53027v.41016h-.53027v1.81934a.919.919,0,0,0,.02783.29.21963.21963,0,0,0,.09082.10254.35082.35082,0,0,0,.18018.03809A1.71546,1.71546,0,0,0,202.35059,29.24707Z" transform="translate(-118.46 -1.8187)"/>
    <path d="M202.833,26.03027v-.60645h.52734v.60645Zm0,3.68848V26.60742h.52734v3.11133Z" transform="translate(-118.46 -1.8187)"/>
    <path d="M206.23535,28.5791l.51855.06738a1.34871,1.34871,0,0,1-.43506.83984,1.27189,1.27189,0,0,1-.85986.30273,1.33281,1.33281,0,0,1-1.02686-.418,1.69094,1.69094,0,0,1-.38818-1.19629,2.16571,2.16571,0,0,1,.167-.88184,1.159,1.159,0,0,1,.5083-.56641,1.49817,1.49817,0,0,1,.74268-.18945,1.29651,1.29651,0,0,1,.8291.25586,1.17935,1.17935,0,0,1,.41309.72852l-.5127.0791a.85135.85135,0,0,0-.25928-.47168.67091.67091,0,0,0-.44971-.1582.8212.8212,0,0,0-.64746.28516,1.35925,1.35925,0,0,0-.249.9043,1.40171,1.40171,0,0,0,.24023.91113.78179.78179,0,0,0,.627.28418.7389.7389,0,0,0,.51855-.19043A.945.945,0,0,0,206.23535,28.5791Z" transform="translate(-118.46 -1.8187)"/>
    <path d="M207.208,26.03027v-.60645h.52734v.60645Zm0,3.68848V26.60742h.52734v3.11133Z" transform="translate(-118.46 -1.8187)"/>
    <path d="M208.52637,30.91113V26.60742h.48047v.4043a1.17191,1.17191,0,0,1,.38379-.35547,1.044,1.044,0,0,1,.51855-.11914,1.22943,1.22943,0,0,1,.70313.20508,1.26227,1.26227,0,0,1,.46.57813,2.11858,2.11858,0,0,1,.15527.81934A2.08538,2.08538,0,0,1,211.05615,29a1.30129,1.30129,0,0,1-1.18506.78906.99239.99239,0,0,1-.47314-.11133,1.07749,1.07749,0,0,1-.34424-.28125v1.51465Zm.47754-2.73047a1.35337,1.35337,0,0,0,.24316.8877.74568.74568,0,0,0,.58887.28711.76182.76182,0,0,0,.60205-.29687,1.41232,1.41232,0,0,0,.25049-.92187,1.3746,1.3746,0,0,0-.24463-.89062.73647.73647,0,0,0-.58447-.2959.76.76,0,0,0-.59619.31543A1.4076,1.4076,0,0,0,209.00391,28.18066Z" transform="translate(-118.46 -1.8187)"/>
    <path d="M213.85156,29.335a1.96365,1.96365,0,0,1-.564.35156,1.62961,1.62961,0,0,1-.58154.10254,1.13574,1.13574,0,0,1-.78809-.25.82924.82924,0,0,1-.27539-.64062.85592.85592,0,0,1,.104-.418.86787.86787,0,0,1,.27246-.30273,1.28117,1.28117,0,0,1,.37939-.17285,3.76818,3.76818,0,0,1,.46875-.0791,4.82,4.82,0,0,0,.94043-.18164q.00293-.1084.00293-.1377a.5822.5822,0,0,0-.14941-.4541.88254.88254,0,0,0-.60059-.17871.939.939,0,0,0-.54932.12988.80134.80134,0,0,0-.26221.46191l-.51562-.07031a1.27542,1.27542,0,0,1,.23145-.53418,1.02331,1.02331,0,0,1,.46582-.31445,2.10242,2.10242,0,0,1,.70605-.10937,1.86878,1.86878,0,0,1,.64746.09375.85357.85357,0,0,1,.36621.23633.82745.82745,0,0,1,.16406.3584,2.9692,2.9692,0,0,1,.02637.48633V28.415a7.473,7.473,0,0,0,.03369.93066,1.17089,1.17089,0,0,0,.1333.373H213.957A1.11811,1.11811,0,0,1,213.85156,29.335Zm-.04395-1.17773a3.869,3.869,0,0,1-.86133.19922,1.9923,1.9923,0,0,0-.46.10547.46376.46376,0,0,0-.208.1709.45418.45418,0,0,0-.07324.251.44911.44911,0,0,0,.15967.35156.687.687,0,0,0,.46729.14063,1.07762,1.07762,0,0,0,.542-.13379.81486.81486,0,0,0,.34863-.36426,1.27389,1.27389,0,0,0,.085-.52734Z" transform="translate(-118.46 -1.8187)"/>
    <path d="M215.17578,29.71875V26.60742h.47461v.44238a1.11843,1.11843,0,0,1,.99023-.5127,1.28253,1.28253,0,0,1,.51709.10156.80524.80524,0,0,1,.353.26465,1.01772,1.01772,0,0,1,.16406.38965,3.0196,3.0196,0,0,1,.0293.5127v1.91309h-.52734V27.82617a1.42775,1.42775,0,0,0-.06152-.48242.50883.50883,0,0,0-.21826-.25391.69448.69448,0,0,0-.36768-.0957.85438.85438,0,0,0-.58154.21387,1.055,1.055,0,0,0-.24463.81152v1.69922Z" transform="translate(-118.46 -1.8187)"/>
    <path d="M219.68213,29.24707l.07617.46582a1.95606,1.95606,0,0,1-.39844.04688.902.902,0,0,1-.44531-.09082.50514.50514,0,0,1-.22266-.23926,1.88049,1.88049,0,0,1-.06445-.62207v-1.79h-.38672v-.41016h.38672v-.77051l.52441-.31641v1.08691h.53027v.41016h-.53027v1.81934a.919.919,0,0,0,.02783.29.21963.21963,0,0,0,.09082.10254.35082.35082,0,0,0,.18018.03809A1.71546,1.71546,0,0,0,219.68213,29.24707Z" transform="translate(-118.46 -1.8187)"/>
    <path d="M221.0918,30.91113h-1.16309v-.43652h.63574V25.86035h-.63574v-.43652h1.16309Z" transform="translate(-118.46 -1.8187)"/>
  </g>
  <line class="cls-4" x1="123.74999" y1="15.6" x2="177.20999" y2="15.6"/>
  <polyline class="cls-5" points="176.49 12.84 182.01 15.6 176.49 18.36 176.49 12.84"/>
  <rect class="cls-7" x="96.99" y="78.66" width="34.02" height="24.12"/>
  <g>
    <path class="cls-2" d="M227.49268,89.22705h.75635v3.2998a3.908,3.908,0,0,1-.19531,1.36816,1.66764,1.66764,0,0,1-.70361.82422,2.49694,2.49694,0,0,1-1.33447.31738,2.74034,2.74034,0,0,1-1.313-.27734,1.57675,1.57675,0,0,1-.72852-.7998,3.81842,3.81842,0,0,1-.21826-1.43262v-3.2998h.75586v3.2959a3.20879,3.20879,0,0,0,.13818,1.09668,1.04988,1.04988,0,0,0,.47559.54395,1.65151,1.65151,0,0,0,.82422.19141,1.57041,1.57041,0,0,0,1.188-.37891,2.17693,2.17693,0,0,0,.355-1.45312Z" transform="translate(-118.46 -1.8187)"/>
    <path class="cls-2" d="M229.25,93.104l.71289-.0625a1.57893,1.57893,0,0,0,.23535.70313,1.29088,1.29088,0,0,0,.5752.44434,2.17122,2.17122,0,0,0,.877.16895,2.09694,2.09694,0,0,0,.76367-.12793,1.0566,1.0566,0,0,0,.49219-.35254.815.815,0,0,0,.16211-.48926.74.74,0,0,0-.15625-.46973,1.15271,1.15271,0,0,0-.51367-.33691,10.10535,10.10535,0,0,0-1.01758-.27832,5.23362,5.23362,0,0,1-1.10254-.35645,1.55128,1.55128,0,0,1-.60937-.53223,1.303,1.303,0,0,1-.20117-.71094,1.45076,1.45076,0,0,1,.24609-.80859,1.51518,1.51518,0,0,1,.7168-.57129,2.7177,2.7177,0,0,1,1.04785-.19434,2.87245,2.87245,0,0,1,1.12012.2041,1.62021,1.62021,0,0,1,.74609.60254,1.73558,1.73558,0,0,1,.28125.90039l-.72559.05371a1.16445,1.16445,0,0,0-.39551-.81836,1.542,1.542,0,0,0-.99512-.27637,1.5933,1.5933,0,0,0-.999.252.75078.75078,0,0,0-.31445.60547.65012.65012,0,0,0,.22266.50684,3.03358,3.03358,0,0,0,1.13965.40723,7.459,7.459,0,0,1,1.26465.36426,1.7438,1.7438,0,0,1,.73633.582,1.42138,1.42138,0,0,1,.2373.8125,1.55556,1.55556,0,0,1-.26074.85938,1.71817,1.71817,0,0,1-.75.627,2.61425,2.61425,0,0,1-1.10059.22461,3.274,3.274,0,0,1-1.2998-.22656,1.81875,1.81875,0,0,1-.82227-.67969A1.92551,1.92551,0,0,1,229.25,93.104Z" transform="translate(-118.46 -1.8187)"/>
    <path class="cls-2" d="M235.82715,94.939l-1.51562-5.71191h.77539l.86914,3.74414q.14063.58887.24121,1.16895.21826-.91553.25684-1.05566l1.08789-3.85742h.91113l.81836,2.89063a15.33658,15.33658,0,0,1,.44434,2.02246q.10986-.542.28418-1.24316l.89648-3.66992h.75977L240.08984,94.939h-.72852l-1.2041-4.35254q-.15234-.54492-.17871-.66992c-.06055.2627-.11621.48535-.168.66992L236.59863,94.939Z" transform="translate(-118.46 -1.8187)"/>
  </g>
  <path class="cls-9" d="M122.63,112.39869h27.18a3.4184,3.4184,0,0,0,3.42-3.42v-32.88a3.38085,3.38085,0,0,0-3.42-3.42H122.63a3.41839,3.41839,0,0,0-3.42,3.42v32.88a3.45759,3.45759,0,0,0,3.42,3.42" transform="translate(-118.46 -1.8187)"/>
  <path class="cls-10" d="M122.63,112.39869h27.18a3.4184,3.4184,0,0,0,3.42-3.42v-32.88a3.38085,3.38085,0,0,0-3.42-3.42H122.63a3.41839,3.41839,0,0,0-3.42,3.42v32.88A3.45759,3.45759,0,0,0,122.63,112.39869Z" transform="translate(-118.46 -1.8187)"/>
  <g>
    <path d="M125.60205,80.53906h-.70166V76.06934a3.62973,3.62973,0,0,1-.66406.4834,4.69486,4.69486,0,0,1-.73828.3623V76.2373a4.2573,4.2573,0,0,0,1.02832-.66992,2.65092,2.65092,0,0,0,.62354-.76367h.45215Z" transform="translate(-118.46 -1.8187)"/>
    <path d="M128.05273,82.21875h-.50244a7.03545,7.03545,0,0,0,1.165-3.74512,6.39085,6.39085,0,0,0-.168-1.45312,6.09214,6.09214,0,0,0-.37012-1.12207,13.184,13.184,0,0,0-.627-1.16895h.50244a7.46384,7.46384,0,0,1,1.083,1.96387,5.3649,5.3649,0,0,1-.103,3.81055A7.1548,7.1548,0,0,1,128.05273,82.21875Z" transform="translate(-118.46 -1.8187)"/>
    <path d="M133.59473,80.53906l-1.51562-5.71191h.77539l.86865,3.74414q.14063.58887.2417,1.16895.21826-.91553.25684-1.05566l1.0874-3.85742h.91162l.81836,2.89063a15.41537,15.41537,0,0,1,.44434,2.02246q.10913-.542.28418-1.24316l.89648-3.66992h.75977l-1.56641,5.71191h-.72852l-1.2041-4.35254q-.15234-.54492-.1792-.66992c-.06006.2627-.11572.48535-.16748.66992l-1.21191,4.35254Z" transform="translate(-118.46 -1.8187)"/>
    <path d="M140.168,80.53906V74.82715h3.85352V75.501h-3.09766v1.76855h2.68066v.6748h-2.68066v2.59473Z" transform="translate(-118.46 -1.8187)"/>
    <path d="M146.67578,80.53906l-2.21289-5.71191h.81836l1.48438,4.14941q.17944.49951.2998.93555.13257-.46875.30811-.93555l1.543-4.14941h.77148l-2.23682,5.71191Z" transform="translate(-118.46 -1.8187)"/>
  </g>
  <g>
    <path d="M126.64648,89.46484v.67383h-3.77539a1.24258,1.24258,0,0,1,.08154-.4873,2.58665,2.58665,0,0,1,.46191-.75977,7.33977,7.33977,0,0,1,.91748-.86523,7.78713,7.78713,0,0,0,1.25879-1.209,1.45018,1.45018,0,0,0,.32715-.84375.93893.93893,0,0,0-.29785-.7041,1.07741,1.07741,0,0,0-.77734-.28613,1.097,1.097,0,0,0-.81055.30371,1.15273,1.15273,0,0,0-.30811.8418l-.7207-.07422a1.77152,1.77152,0,0,1,.55713-1.22852,1.89986,1.89986,0,0,1,1.29785-.42285,1.80711,1.80711,0,0,1,1.30127.45605,1.49533,1.49533,0,0,1,.479,1.12988,1.70819,1.70819,0,0,1-.14014.67383,2.6109,2.6109,0,0,1-.46533.69727,11.50075,11.50075,0,0,1-1.08154,1.00586q-.63135.52881-.81055.71875a2.2547,2.2547,0,0,0-.2959.37988Z" transform="translate(-118.46 -1.8187)"/>
    <path d="M128.05322,91.81836h-.50244a7.03545,7.03545,0,0,0,1.165-3.74512,6.39085,6.39085,0,0,0-.168-1.45312,6.09214,6.09214,0,0,0-.37012-1.12207,13.184,13.184,0,0,0-.627-1.16895h.50244a7.46384,7.46384,0,0,1,1.083,1.96387,5.36491,5.36491,0,0,1-.103,3.81055A7.1548,7.1548,0,0,1,128.05322,91.81836Z" transform="translate(-118.46 -1.8187)"/>
    <path d="M133.59521,90.13867l-1.51562-5.71191h.77539l.86865,3.74414q.14063.58887.2417,1.16895.21826-.91553.25684-1.05566l1.0874-3.85742h.91162l.81836,2.89063a15.41537,15.41537,0,0,1,.44434,2.02246q.10913-.542.28418-1.24316l.89648-3.66992h.75977l-1.56641,5.71191h-.72852l-1.2041-4.35254q-.15234-.54492-.1792-.66992c-.06006.2627-.11572.48535-.16748.66992l-1.21191,4.35254Z" transform="translate(-118.46 -1.8187)"/>
    <path d="M140.12939,90.13867V84.42676h2.15479a5.11707,5.11707,0,0,1,.86865.05469,1.71553,1.71553,0,0,1,.70557.2666,1.39452,1.39452,0,0,1,.45752.55078,1.86027,1.86027,0,0,1-.29,2.0127,2.22237,2.22237,0,0,1-1.67578.50488h-1.46484v2.32227Zm.75586-2.99609h1.47656a1.5619,1.5619,0,0,0,1.04053-.27344.97159.97159,0,0,0,.30762-.76758,1.03011,1.03011,0,0,0-.18115-.61328.84772.84772,0,0,0-.47705-.33691,3.203,3.203,0,0,0-.70557-.05078h-1.46094Z" transform="translate(-118.46 -1.8187)"/>
    <path d="M145.49121,90.13867V84.42676h3.85352v.67383h-3.09766v1.76855h2.68066v.6748h-2.68066v2.59473Z" transform="translate(-118.46 -1.8187)"/>
  </g>
  <g>
    <path d="M123.20508,98.231l.70166-.09375a1.54547,1.54547,0,0,0,.41113.85938,1.01707,1.01707,0,0,0,.707.2627,1.1346,1.1346,0,0,0,.83594-.34277,1.15784,1.15784,0,0,0,.34082-.84961,1.07728,1.07728,0,0,0-.31543-.79687,1.09154,1.09154,0,0,0-.80273-.31348,2.02308,2.02308,0,0,0-.49512.07813l.07813-.61523a1.11763,1.11763,0,0,0,.11279.00684,1.44033,1.44033,0,0,0,.80664-.2334.80025.80025,0,0,0,.3584-.7207.85322.85322,0,0,0-.26074-.63867.92854.92854,0,0,0-.67432-.25391.95263.95263,0,0,0-.68164.25781,1.28726,1.28726,0,0,0-.35107.77148l-.70117-.125a1.79883,1.79883,0,0,1,.58447-1.09277,1.687,1.687,0,0,1,1.13379-.3877,1.86846,1.86846,0,0,1,.86133.2002,1.4529,1.4529,0,0,1,.60205.54785,1.40945,1.40945,0,0,1,.2085.73633,1.20437,1.20437,0,0,1-.19873.67383,1.35621,1.35621,0,0,1-.58838.4834,1.32629,1.32629,0,0,1,.78711.48535,1.47533,1.47533,0,0,1,.28027.9209,1.68556,1.68556,0,0,1-.54541,1.26855,1.91994,1.91994,0,0,1-1.37939.52051,1.795,1.795,0,0,1-1.249-.44824A1.73349,1.73349,0,0,1,123.20508,98.231Z" transform="translate(-118.46 -1.8187)"/>
    <path d="M128.29395,101.41846h-.50244a7.03545,7.03545,0,0,0,1.165-3.74512,6.39085,6.39085,0,0,0-.168-1.45312,6.09214,6.09214,0,0,0-.37012-1.12207,13.184,13.184,0,0,0-.627-1.16895h.50244a7.46383,7.46383,0,0,1,1.083,1.96387,5.36491,5.36491,0,0,1-.103,3.81055A7.1548,7.1548,0,0,1,128.29395,101.41846Z" transform="translate(-118.46 -1.8187)"/>
    <path d="M133.83594,99.73877l-1.51562-5.71191h.77539l.86865,3.74414q.14063.58887.2417,1.16895.21826-.91553.25684-1.05566l1.0874-3.85742h.91162l.81836,2.89063a15.41536,15.41536,0,0,1,.44434,2.02246q.10913-.542.28418-1.24316l.89648-3.66992h.75977l-1.56641,5.71191h-.72852l-1.2041-4.35254q-.15234-.54492-.1792-.66992c-.06006.2627-.11572.48535-.16748.66992l-1.21191,4.35254Z" transform="translate(-118.46 -1.8187)"/>
    <path d="M140.37012,99.73877V94.02686h2.15479a5.11707,5.11707,0,0,1,.86865.05469,1.71553,1.71553,0,0,1,.70557.2666,1.39452,1.39452,0,0,1,.45752.55078,1.86027,1.86027,0,0,1-.29,2.0127,2.22237,2.22237,0,0,1-1.67578.50488H141.126v2.32227Zm.75586-2.99609h1.47656a1.5619,1.5619,0,0,0,1.04053-.27344.97159.97159,0,0,0,.30762-.76758,1.03011,1.03011,0,0,0-.18115-.61328.84772.84772,0,0,0-.47705-.33691,3.203,3.203,0,0,0-.70557-.05078H141.126Z" transform="translate(-118.46 -1.8187)"/>
    <path d="M145.66162,99.73877V94.02686h.75586v5.03809H149.231v.67383Z" transform="translate(-118.46 -1.8187)"/>
  </g>
  <g>
    <path d="M122.78564,110.53125v-4.30371h.48047v.4043a1.1719,1.1719,0,0,1,.38379-.35547,1.044,1.044,0,0,1,.51855-.11914,1.22943,1.22943,0,0,1,.70313.20508,1.26227,1.26227,0,0,1,.46.57813,2.11858,2.11858,0,0,1,.15527.81934,2.08538,2.08538,0,0,1-.17139.86035,1.30129,1.30129,0,0,1-1.18506.78906.99239.99239,0,0,1-.47314-.11133,1.07749,1.07749,0,0,1-.34424-.28125v1.51465Zm.47754-2.73047a1.35337,1.35337,0,0,0,.24316.8877.74568.74568,0,0,0,.58887.28711.76182.76182,0,0,0,.60205-.29687,1.41232,1.41232,0,0,0,.25049-.92187,1.3746,1.3746,0,0,0-.24463-.89062.73647.73647,0,0,0-.58447-.2959.76.76,0,0,0-.59619.31543A1.4076,1.4076,0,0,0,123.26318,107.80078Z" transform="translate(-118.46 -1.8187)"/>
    <path d="M128.17676,108.95508a1.96365,1.96365,0,0,1-.564.35156,1.62961,1.62961,0,0,1-.58154.10254,1.13574,1.13574,0,0,1-.78809-.25.82924.82924,0,0,1-.27539-.64062.85592.85592,0,0,1,.104-.418.86787.86787,0,0,1,.27246-.30273,1.28117,1.28117,0,0,1,.37939-.17285,3.7682,3.7682,0,0,1,.46875-.0791,4.82,4.82,0,0,0,.94043-.18164q.00293-.1084.00293-.1377a.5822.5822,0,0,0-.14941-.4541.88254.88254,0,0,0-.60059-.17871.939.939,0,0,0-.54932.12988.80134.80134,0,0,0-.26221.46191l-.51562-.07031a1.27542,1.27542,0,0,1,.23145-.53418,1.02331,1.02331,0,0,1,.46582-.31445,2.10241,2.10241,0,0,1,.70605-.10937,1.86878,1.86878,0,0,1,.64746.09375.85357.85357,0,0,1,.36621.23633.82745.82745,0,0,1,.16406.3584,2.9692,2.9692,0,0,1,.02637.48633v.70313a7.473,7.473,0,0,0,.03369.93066,1.17089,1.17089,0,0,0,.1333.373h-.55078A1.11811,1.11811,0,0,1,128.17676,108.95508Zm-.04395-1.17773a3.869,3.869,0,0,1-.86133.19922,1.9923,1.9923,0,0,0-.46.10547.46376.46376,0,0,0-.208.1709.45418.45418,0,0,0-.07324.251.44911.44911,0,0,0,.15967.35156.687.687,0,0,0,.46729.14063,1.07762,1.07762,0,0,0,.542-.13379.81486.81486,0,0,0,.34863-.36426,1.27389,1.27389,0,0,0,.085-.52734Z" transform="translate(-118.46 -1.8187)"/>
    <path d="M129.44141,109.33887v-3.11133h.47461v.47168a1.28713,1.28713,0,0,1,.33545-.43652.58555.58555,0,0,1,.33838-.10547,1.0286,1.0286,0,0,1,.542.16992l-.18164.48926a.75453.75453,0,0,0-.38672-.11426.50783.50783,0,0,0-.31055.10352.56882.56882,0,0,0-.19629.28906,2.05408,2.05408,0,0,0-.08789.61523v1.62891Z" transform="translate(-118.46 -1.8187)"/>
    <path d="M132.62109,108.86719l.07617.46582a1.95606,1.95606,0,0,1-.39844.04688.902.902,0,0,1-.44531-.09082.50514.50514,0,0,1-.22266-.23926,1.88049,1.88049,0,0,1-.06445-.62207v-1.79h-.38672v-.41016h.38672V105.457l.52441-.31641v1.08691h.53027v.41016h-.53027V108.457a.919.919,0,0,0,.02783.29.21963.21963,0,0,0,.09082.10254.35082.35082,0,0,0,.18018.03809A1.71546,1.71546,0,0,0,132.62109,108.86719Z" transform="translate(-118.46 -1.8187)"/>
    <path d="M133.09766,105.65039v-.60645h.52734v.60645Zm0,3.68848v-3.11133h.52734v3.11133Z" transform="translate(-118.46 -1.8187)"/>
    <path d="M136.48193,108.19922l.51855.06738a1.34871,1.34871,0,0,1-.43506.83984,1.27189,1.27189,0,0,1-.85986.30273,1.33281,1.33281,0,0,1-1.02686-.418,1.69094,1.69094,0,0,1-.38818-1.19629,2.16571,2.16571,0,0,1,.167-.88184,1.159,1.159,0,0,1,.5083-.56641,1.49817,1.49817,0,0,1,.74268-.18945,1.29651,1.29651,0,0,1,.8291.25586,1.17936,1.17936,0,0,1,.41309.72852l-.5127.0791a.85135.85135,0,0,0-.25928-.47168.67091.67091,0,0,0-.44971-.1582.8212.8212,0,0,0-.64746.28516,1.35925,1.35925,0,0,0-.249.9043,1.40171,1.40171,0,0,0,.24023.91113.78179.78179,0,0,0,.627.28418.7389.7389,0,0,0,.51855-.19043A.945.945,0,0,0,136.48193,108.19922Z" transform="translate(-118.46 -1.8187)"/>
    <path d="M137.47852,105.65039v-.60645h.52734v.60645Zm0,3.68848v-3.11133h.52734v3.11133Z" transform="translate(-118.46 -1.8187)"/>
    <path d="M138.79639,110.53125v-4.30371h.48047v.4043a1.1719,1.1719,0,0,1,.38379-.35547,1.044,1.044,0,0,1,.51855-.11914,1.22943,1.22943,0,0,1,.70313.20508,1.26227,1.26227,0,0,1,.46.57813,2.11858,2.11858,0,0,1,.15527.81934,2.08538,2.08538,0,0,1-.17139.86035,1.30129,1.30129,0,0,1-1.18506.78906.99239.99239,0,0,1-.47314-.11133,1.07749,1.07749,0,0,1-.34424-.28125v1.51465Zm.47754-2.73047a1.35337,1.35337,0,0,0,.24316.8877.74568.74568,0,0,0,.58887.28711.76182.76182,0,0,0,.60205-.29687,1.41232,1.41232,0,0,0,.25049-.92187,1.3746,1.3746,0,0,0-.24463-.89062.73647.73647,0,0,0-.58447-.2959.76.76,0,0,0-.59619.31543A1.4076,1.4076,0,0,0,139.27393,107.80078Z" transform="translate(-118.46 -1.8187)"/>
    <path d="M144.12793,108.95508a1.96365,1.96365,0,0,1-.564.35156,1.62961,1.62961,0,0,1-.58154.10254,1.13574,1.13574,0,0,1-.78809-.25.82924.82924,0,0,1-.27539-.64062.85592.85592,0,0,1,.104-.418.86787.86787,0,0,1,.27246-.30273,1.28117,1.28117,0,0,1,.37939-.17285,3.7682,3.7682,0,0,1,.46875-.0791,4.82,4.82,0,0,0,.94043-.18164q.00293-.1084.00293-.1377a.5822.5822,0,0,0-.14941-.4541.88254.88254,0,0,0-.60059-.17871.939.939,0,0,0-.54932.12988.80134.80134,0,0,0-.26221.46191l-.51562-.07031a1.27542,1.27542,0,0,1,.23145-.53418,1.02331,1.02331,0,0,1,.46582-.31445,2.10241,2.10241,0,0,1,.70605-.10937,1.86878,1.86878,0,0,1,.64746.09375.85357.85357,0,0,1,.36621.23633.82745.82745,0,0,1,.16406.3584,2.96921,2.96921,0,0,1,.02637.48633v.70313a7.473,7.473,0,0,0,.03369.93066,1.17088,1.17088,0,0,0,.1333.373h-.55078A1.11811,1.11811,0,0,1,144.12793,108.95508Zm-.04395-1.17773a3.869,3.869,0,0,1-.86133.19922,1.9923,1.9923,0,0,0-.46.10547.46376.46376,0,0,0-.208.1709.45418.45418,0,0,0-.07324.251.44911.44911,0,0,0,.15967.35156.687.687,0,0,0,.46729.14063,1.07762,1.07762,0,0,0,.542-.13379.81486.81486,0,0,0,.34863-.36426,1.27389,1.27389,0,0,0,.085-.52734Z" transform="translate(-118.46 -1.8187)"/>
    <path d="M145.4585,109.33887v-3.11133h.47461v.44238a1.11843,1.11843,0,0,1,.99023-.5127,1.28253,1.28253,0,0,1,.51709.10156.80524.80524,0,0,1,.353.26465,1.01772,1.01772,0,0,1,.16406.38965,3.01959,3.01959,0,0,1,.0293.5127v1.91309h-.52734v-1.89258a1.42775,1.42775,0,0,0-.06152-.48242.50883.50883,0,0,0-.21826-.25391.69448.69448,0,0,0-.36768-.0957.85438.85438,0,0,0-.58154.21387,1.055,1.055,0,0,0-.24463.81152v1.69922Z" transform="translate(-118.46 -1.8187)"/>
    <path d="M149.9707,108.86719l.07617.46582a1.95606,1.95606,0,0,1-.39844.04688.902.902,0,0,1-.44531-.09082.50514.50514,0,0,1-.22266-.23926,1.88049,1.88049,0,0,1-.06445-.62207v-1.79h-.38672v-.41016h.38672V105.457l.52441-.31641v1.08691h.53027v.41016h-.53027V108.457a.919.919,0,0,0,.02783.29.21963.21963,0,0,0,.09082.10254.35082.35082,0,0,0,.18018.03809A1.71546,1.71546,0,0,0,149.9707,108.86719Z" transform="translate(-118.46 -1.8187)"/>
  </g>
  <path class="cls-1" d="M303.89,112.39869h27.24a3.40611,3.40611,0,0,0,3.36-3.42v-32.88a3.368,3.368,0,0,0-3.36-3.42H303.89a3.4184,3.4184,0,0,0-3.42,3.42v32.88a3.4576,3.4576,0,0,0,3.42,3.42" transform="translate(-118.46 -1.8187)"/>
  <g>
    <path class="cls-2" d="M313.78223,79.939V75.644h1.9043a2.5606,2.5606,0,0,1,.873.11523.96047.96047,0,0,1,.47754.40918,1.21928,1.21928,0,0,1,.17871.64746,1.08013,1.08013,0,0,1-.2959.77051,1.49746,1.49746,0,0,1-.91406.39844,1.47391,1.47391,0,0,1,.34277.21387,2.95321,2.95321,0,0,1,.47168.57129l.74707,1.16895h-.71484l-.56836-.89355q-.249-.38672-.41016-.5918a1.28923,1.28923,0,0,0-.28809-.28711.85549.85549,0,0,0-.25977-.11426,1.70744,1.70744,0,0,0-.31641-.02051h-.65918V79.939Zm.56836-2.39941h1.22168a1.80523,1.80523,0,0,0,.60938-.08105.63862.63862,0,0,0,.334-.25781.69341.69341,0,0,0,.11426-.38477.63954.63954,0,0,0-.2207-.501,1.03635,1.03635,0,0,0-.69922-.19629h-1.35937Z" transform="translate(-118.46 -1.8187)"/>
    <path class="cls-2" d="M317.90137,78.55908l.53613-.04687a1.17742,1.17742,0,0,0,.17676.52832.95577.95577,0,0,0,.43262.334,1.62019,1.62019,0,0,0,.65918.12793,1.57954,1.57954,0,0,0,.57422-.09668.78893.78893,0,0,0,.37012-.26562.612.612,0,0,0,.12207-.36719.56225.56225,0,0,0-.11719-.35352.87582.87582,0,0,0-.38672-.25293,7.79408,7.79408,0,0,0-.76465-.21,3.8564,3.8564,0,0,1-.8291-.26758,1.15756,1.15756,0,0,1-.459-.40039.97571.97571,0,0,1-.15039-.53418,1.09546,1.09546,0,0,1,.18457-.6084,1.14788,1.14788,0,0,1,.53906-.42871,2.04507,2.04507,0,0,1,.78809-.14648,2.16841,2.16841,0,0,1,.8418.15332,1.22308,1.22308,0,0,1,.56152.45313,1.3,1.3,0,0,1,.21094.67676l-.54492.041a.87961.87961,0,0,0-.29785-.61523,1.156,1.156,0,0,0-.748-.208,1.19631,1.19631,0,0,0-.752.18945.564.564,0,0,0-.23535.45508.48839.48839,0,0,0,.167.38086,2.2569,2.2569,0,0,0,.85645.30664,5.69014,5.69014,0,0,1,.95117.27344,1.30865,1.30865,0,0,1,.55371.4375,1.0708,1.0708,0,0,1,.17871.61133,1.17217,1.17217,0,0,1-.19629.64648,1.29193,1.29193,0,0,1-.56445.4707,1.96262,1.96262,0,0,1-.82715.16895,2.47378,2.47378,0,0,1-.97754-.16992,1.36738,1.36738,0,0,1-.61816-.51074A1.45074,1.45074,0,0,1,317.90137,78.55908Z" transform="translate(-118.46 -1.8187)"/>
  </g>
  <line class="cls-3" x1="194.85" y1="78.72" x2="203.19" y2="78.72"/>
  <g>
    <path class="cls-2" d="M310.70313,88.93848H310.002V84.46875a3.64679,3.64679,0,0,1-.66406.4834,4.69487,4.69487,0,0,1-.73828.3623v-.67773a4.27645,4.27645,0,0,0,1.02832-.66992,2.65647,2.65647,0,0,0,.623-.76367h.45215Z" transform="translate(-118.46 -1.8187)"/>
    <path class="cls-2" d="M313.1543,90.61816h-.50293a7.03545,7.03545,0,0,0,1.165-3.74512,6.36346,6.36346,0,0,0-.168-1.45312,6.01958,6.01958,0,0,0-.37012-1.12207,12.92108,12.92108,0,0,0-.627-1.16895h.50293a7.46384,7.46384,0,0,1,1.083,1.96387,5.3687,5.3687,0,0,1-.10352,3.81055A7.15377,7.15377,0,0,1,313.1543,90.61816Z" transform="translate(-118.46 -1.8187)"/>
    <path class="cls-2" d="M317.7373,88.93848V83.22656h3.85352v.67383h-3.09766v1.76855h2.68066v.6748h-2.68066v2.59473Z" transform="translate(-118.46 -1.8187)"/>
    <path class="cls-2" d="M324.20508,88.93848l-2.21289-5.71191h.81836l1.48438,4.14941q.18018.49951.2998.93555.1333-.46875.30859-.93555l1.543-4.14941h.77148l-2.2373,5.71191Z" transform="translate(-118.46 -1.8187)"/>
  </g>
  <g>
    <path class="cls-2" d="M311.74512,97.86426v.67383h-3.77539a1.25188,1.25188,0,0,1,.082-.4873,2.57627,2.57627,0,0,1,.46191-.75977,7.36518,7.36518,0,0,1,.917-.86523,7.766,7.766,0,0,0,1.25879-1.209,1.44688,1.44688,0,0,0,.32715-.84375.93716.93716,0,0,0-.29785-.7041,1.07662,1.07662,0,0,0-.77734-.28613,1.09776,1.09776,0,0,0-.81055.30371,1.15448,1.15448,0,0,0-.30762.8418l-.7207-.07422a1.76915,1.76915,0,0,1,.55664-1.22852,1.89986,1.89986,0,0,1,1.29785-.42285,1.80833,1.80833,0,0,1,1.30176.45605,1.4949,1.4949,0,0,1,.47852,1.12988,1.70756,1.70756,0,0,1-.13965.67383,2.62562,2.62562,0,0,1-.46582.69727,11.41871,11.41871,0,0,1-1.08105,1.00586q-.63135.52881-.81055.71875a2.20533,2.20533,0,0,0-.2959.37988Z" transform="translate(-118.46 -1.8187)"/>
    <path class="cls-2" d="M313.15234,100.21777h-.50293a7.03545,7.03545,0,0,0,1.165-3.74512,6.36346,6.36346,0,0,0-.168-1.45312,6.01958,6.01958,0,0,0-.37012-1.12207,12.92108,12.92108,0,0,0-.627-1.16895h.50293a7.46384,7.46384,0,0,1,1.083,1.96387,5.3687,5.3687,0,0,1-.10352,3.81055A7.15377,7.15377,0,0,1,313.15234,100.21777Z" transform="translate(-118.46 -1.8187)"/>
    <path class="cls-2" d="M317.69629,98.53809V92.82617h2.15527a5.10667,5.10667,0,0,1,.86816.05469,1.71777,1.71777,0,0,1,.70605.2666,1.39351,1.39351,0,0,1,.457.55078,1.85759,1.85759,0,0,1-.29,2.0127,2.22088,2.22088,0,0,1-1.67578.50488h-1.46484v2.32227Zm.75586-2.99609h1.47656a1.5634,1.5634,0,0,0,1.041-.27344.97159.97159,0,0,0,.30762-.76758,1.03039,1.03039,0,0,0-.18164-.61328.845.845,0,0,0-.47656-.33691,3.20832,3.20832,0,0,0-.70605-.05078h-1.46094Z" transform="translate(-118.46 -1.8187)"/>
    <path class="cls-2" d="M323.05762,98.53809V92.82617h3.85352V93.5h-3.09766v1.76855h2.68066v.6748h-2.68066v2.59473Z" transform="translate(-118.46 -1.8187)"/>
  </g>
  <g>
    <path class="cls-2" d="M311.92773,107.46484v.67383h-3.77539a1.21692,1.21692,0,0,1,.082-.4873,2.59293,2.59293,0,0,1,.46094-.75977,7.384,7.384,0,0,1,.918-.86523,7.766,7.766,0,0,0,1.25879-1.209,1.4535,1.4535,0,0,0,.32715-.84375.94071.94071,0,0,0-.29785-.7041,1.07662,1.07662,0,0,0-.77734-.28613,1.09623,1.09623,0,0,0-.81055.30371,1.15048,1.15048,0,0,0-.30762.8418l-.7207-.07422a1.76915,1.76915,0,0,1,.55664-1.22852,1.89986,1.89986,0,0,1,1.29785-.42285,1.80992,1.80992,0,0,1,1.30176.45605,1.4984,1.4984,0,0,1,.47852,1.12988,1.70882,1.70882,0,0,1-.14062.67383,2.59631,2.59631,0,0,1-.46484.69727,11.45788,11.45788,0,0,1-1.082,1.00586q-.62988.52881-.81055.71875a2.24658,2.24658,0,0,0-.29492.37988Z" transform="translate(-118.46 -1.8187)"/>
    <path class="cls-2" d="M313.334,109.81836h-.502a7.03545,7.03545,0,0,0,1.165-3.74512,6.36346,6.36346,0,0,0-.168-1.45312,6.16648,6.16648,0,0,0-.37012-1.12207q-.15234-.3501-.627-1.16895h.502a7.49662,7.49662,0,0,1,1.084,1.96387,5.3687,5.3687,0,0,1-.10352,3.81055A7.15583,7.15583,0,0,1,313.334,109.81836Z" transform="translate(-118.46 -1.8187)"/>
    <path class="cls-2" d="M317.87891,108.13867v-5.71191h2.1543a5.11968,5.11968,0,0,1,.86914.05469,1.708,1.708,0,0,1,.70508.2666,1.39553,1.39553,0,0,1,.458.55078,1.863,1.863,0,0,1-.29,2.0127,2.22088,2.22088,0,0,1-1.67578.50488h-1.46484v2.32227Zm.75586-2.99609h1.47656a1.5634,1.5634,0,0,0,1.041-.27344.971.971,0,0,0,.30664-.76758,1.02983,1.02983,0,0,0-.18066-.61328.84722.84722,0,0,0-.47754-.33691,3.19166,3.19166,0,0,0-.70508-.05078h-1.46094Z" transform="translate(-118.46 -1.8187)"/>
    <path class="cls-2" d="M323.16992,108.13867v-5.71191h.75586v5.03809h2.81348v.67383Z" transform="translate(-118.46 -1.8187)"/>
  </g>
</svg>
