<svg id="Ebene_1" data-name="Ebene 1" xmlns="http://www.w3.org/2000/svg" width="148.08199mm" height="13.67367mm" viewBox="0 0 419.75998 38.76">
  <defs>
    <style>
      .cls-1 {
        fill: #bcd277;
      }

      .cls-1, .cls-2, .cls-3, .cls-5, .cls-8 {
        fill-rule: evenodd;
      }

      .cls-2 {
        fill: #f8b891;
      }

      .cls-3 {
        fill: #7f8080;
      }

      .cls-4 {
        fill: #fff;
      }

      .cls-5 {
        fill: #5c9bd4;
      }

      .cls-6 {
        fill: #bfbebf;
      }

      .cls-7, .cls-9 {
        fill: none;
        stroke: #010101;
        stroke-linecap: round;
        stroke-linejoin: round;
      }

      .cls-8 {
        fill: #010101;
      }

      .cls-9 {
        stroke-width: 0.25px;
      }
    </style>
  </defs>
  <title>FIG_Annex_JOINTAIL</title>
  <path class="cls-1" d="M508.04,16.297h11.1a2.178,2.178,0,0,0,2.22-2.22v-2.22a2.178,2.178,0,0,0-2.22-2.22h-11.1a2.178,2.178,0,0,0-2.22,2.22v2.22a2.178,2.178,0,0,0,2.22,2.22" transform="translate(-101.60001 -3.277)"/>
  <g>
    <path d="M512.53125,14.79736V10.50244h1.9043a2.53446,2.53446,0,0,1,.873.11572.9547.9547,0,0,1,.47754.40869,1.21928,1.21928,0,0,1,.17871.64746,1.08013,1.08013,0,0,1-.2959.77051,1.49746,1.49746,0,0,1-.91406.39844,1.47391,1.47391,0,0,1,.34277.21387,2.95321,2.95321,0,0,1,.47168.57129l.74707,1.16895h-.71484l-.56836-.89355q-.249-.38672-.41016-.5918a1.29,1.29,0,0,0-.28906-.28711.85054.85054,0,0,0-.25879-.11426,1.70744,1.70744,0,0,0-.31641-.02051h-.65918v1.90723Zm.56836-2.39941h1.22168a1.83219,1.83219,0,0,0,.60938-.08057.64847.64847,0,0,0,.334-.25781.69733.69733,0,0,0,.11426-.38525.64038.64038,0,0,0-.22168-.501,1.03346,1.03346,0,0,0-.69824-.19629h-1.35937Z" transform="translate(-101.60001 -3.277)"/>
    <path d="M516.64941,13.41748l.53613-.04687a1.184,1.184,0,0,0,.17773.52881.966.966,0,0,0,.43164.334,1.63649,1.63649,0,0,0,.65918.12744,1.57954,1.57954,0,0,0,.57422-.09668.79809.79809,0,0,0,.37109-.26514.61447.61447,0,0,0,.12109-.36768.55893.55893,0,0,0-.11719-.353.868.868,0,0,0-.38672-.25342,7.55859,7.55859,0,0,0-.76465-.20947,3.907,3.907,0,0,1-.8291-.26807,1.16091,1.16091,0,0,1-.458-.3999.98048.98048,0,0,1-.15137-.53467,1.09157,1.09157,0,0,1,.18457-.60791,1.14287,1.14287,0,0,1,.53906-.4292,2.04507,2.04507,0,0,1,.78809-.14648,2.15546,2.15546,0,0,1,.84277.15381,1.21345,1.21345,0,0,1,.56055.45264,1.3,1.3,0,0,1,.21094.67676l-.54492.041a.87886.87886,0,0,0-.29687-.61523,1.159,1.159,0,0,0-.749-.208,1.19963,1.19963,0,0,0-.751.189.56724.56724,0,0,0-.23633.45557.4884.4884,0,0,0,.167.38086,2.26641,2.26641,0,0,0,.85742.30615,5.65856,5.65856,0,0,1,.9502.27393,1.30207,1.30207,0,0,1,.55371.438,1.067,1.067,0,0,1,.17871.61084,1.16824,1.16824,0,0,1-.19629.646,1.291,1.291,0,0,1-.56348.47168,1.967,1.967,0,0,1-.82812.16846,2.46869,2.46869,0,0,1-.97656-.16992,1.36837,1.36837,0,0,1-.61816-.51123A1.44992,1.44992,0,0,1,516.64941,13.41748Z" transform="translate(-101.60001 -3.277)"/>
  </g>
  <path class="cls-2" d="M508.04,35.677h11.1a2.178,2.178,0,0,0,2.22-2.22v-2.22a2.21485,2.21485,0,0,0-2.22-2.22h-11.1a2.21485,2.21485,0,0,0-2.22,2.22v2.22a2.178,2.178,0,0,0,2.22,2.22" transform="translate(-101.60001 -3.277)"/>
  <g>
    <path d="M509.17188,34.17725V29.88232h1.9043a2.53446,2.53446,0,0,1,.873.11572.9547.9547,0,0,1,.47754.40869,1.21928,1.21928,0,0,1,.17871.64746,1.08013,1.08013,0,0,1-.2959.77051,1.49746,1.49746,0,0,1-.91406.39844,1.47391,1.47391,0,0,1,.34277.21387,2.95321,2.95321,0,0,1,.47168.57129l.74707,1.16895h-.71484l-.56836-.89355q-.249-.38672-.41016-.5918a1.29,1.29,0,0,0-.28906-.28711.85054.85054,0,0,0-.25879-.11426,1.70744,1.70744,0,0,0-.31641-.02051h-.65918v1.90723Zm.56836-2.39941h1.22168a1.83219,1.83219,0,0,0,.60938-.08057.64847.64847,0,0,0,.334-.25781.69733.69733,0,0,0,.11426-.38525.64038.64038,0,0,0-.22168-.501,1.03346,1.03346,0,0,0-.69824-.19629h-1.35937Z" transform="translate(-101.60001 -3.277)"/>
    <path d="M513.01172,34.17725l1.64941-4.29492h.6123l1.75781,4.29492h-.64746l-.501-1.30078h-1.7959l-.47168,1.30078Zm1.23926-1.76367H515.707l-.44824-1.18945q-.20508-.542-.30469-.89062a5.475,5.475,0,0,1-.23145.82031Z" transform="translate(-101.60001 -3.277)"/>
    <path d="M517.293,33.04346l.52734-.07031a1.16162,1.16162,0,0,0,.30859.646.76467.76467,0,0,0,.53223.19775.85094.85094,0,0,0,.62793-.25781.87035.87035,0,0,0,.25684-.63867.809.809,0,0,0-.2373-.59912.82029.82029,0,0,0-.60352-.23584,1.514,1.514,0,0,0-.37207.05859l.05859-.46289a.80606.80606,0,0,0,.085.00586,1.08591,1.08591,0,0,0,.60645-.17578.60166.60166,0,0,0,.26953-.542.64121.64121,0,0,0-.19629-.48047.69744.69744,0,0,0-.50684-.19043.7182.7182,0,0,0-.5127.19336.97074.97074,0,0,0-.26367.58008l-.52734-.09375a1.3554,1.3554,0,0,1,.43945-.82178,1.27034,1.27034,0,0,1,.85254-.2915,1.40448,1.40448,0,0,1,.64746.15088,1.09,1.09,0,0,1,.45215.41162,1.05793,1.05793,0,0,1,.15723.55371.90659.90659,0,0,1-.14941.50684,1.02023,1.02023,0,0,1-.44238.36328.99673.99673,0,0,1,.5918.36475,1.11015,1.11015,0,0,1,.21094.69287,1.26771,1.26771,0,0,1-.41016.95361,1.44256,1.44256,0,0,1-1.03711.39111,1.35044,1.35044,0,0,1-.93945-.33691A1.30228,1.30228,0,0,1,517.293,33.04346Z" transform="translate(-101.60001 -3.277)"/>
  </g>
  <path class="cls-2" d="M370.1,35.677h11.16a2.21485,2.21485,0,0,0,2.22-2.22v-2.22a2.25425,2.25425,0,0,0-2.22-2.22H370.1a2.25425,2.25425,0,0,0-2.22,2.22v2.22a2.21485,2.21485,0,0,0,2.22,2.22" transform="translate(-101.60001 -3.277)"/>
  <g>
    <path d="M371.291,34.17725V29.88232h1.9043a2.5606,2.5606,0,0,1,.873.11523.96047.96047,0,0,1,.47754.40918,1.21928,1.21928,0,0,1,.17871.64746,1.08013,1.08013,0,0,1-.2959.77051,1.49746,1.49746,0,0,1-.91406.39844,1.47391,1.47391,0,0,1,.34277.21387,2.95321,2.95321,0,0,1,.47168.57129l.74707,1.16895h-.71484l-.56836-.89355q-.249-.38672-.41016-.5918a1.29,1.29,0,0,0-.28906-.28711.85054.85054,0,0,0-.25879-.11426,1.70744,1.70744,0,0,0-.31641-.02051h-.65918v1.90723Zm.56836-2.39941h1.22168a1.80523,1.80523,0,0,0,.60938-.08105.63862.63862,0,0,0,.334-.25781.69341.69341,0,0,0,.11426-.38477.64038.64038,0,0,0-.22168-.501,1.03346,1.03346,0,0,0-.69824-.19629h-1.35937Z" transform="translate(-101.60001 -3.277)"/>
    <path d="M375.13086,34.17725l1.64941-4.29492h.6123l1.75781,4.29492h-.64746l-.501-1.30078h-1.7959l-.47168,1.30078Zm1.23926-1.76367h1.45605l-.44824-1.18945q-.20508-.542-.30469-.89062a5.475,5.475,0,0,1-.23145.82031Z" transform="translate(-101.60001 -3.277)"/>
    <path d="M382.18066,33.67041v.50684H379.3418a.93285.93285,0,0,1,.06152-.36621,1.93525,1.93525,0,0,1,.34668-.57129,5.44823,5.44823,0,0,1,.69043-.65039,5.80472,5.80472,0,0,0,.94629-.91016,1.08561,1.08561,0,0,0,.24609-.63379.70262.70262,0,0,0-.22461-.52832.80349.80349,0,0,0-.584-.21582.82358.82358,0,0,0-.60937.22852.86464.86464,0,0,0-.23145.63281l-.542-.05566a1.33293,1.33293,0,0,1,.41895-.92383,1.42929,1.42929,0,0,1,.97559-.31836,1.36134,1.36134,0,0,1,.97852.34277,1.12534,1.12534,0,0,1,.36035.84961,1.28858,1.28858,0,0,1-.10547.50684,1.96983,1.96983,0,0,1-.35059.52441,8.50969,8.50969,0,0,1-.8125.75586c-.31641.26563-.51953.44629-.60937.54a1.77844,1.77844,0,0,0-.22266.28613Z" transform="translate(-101.60001 -3.277)"/>
  </g>
  <path class="cls-2" d="M232.4,35.677h11.16a2.21486,2.21486,0,0,0,2.22-2.22v-2.22a2.25426,2.25426,0,0,0-2.22-2.22H232.4a2.21485,2.21485,0,0,0-2.22,2.22v2.22a2.178,2.178,0,0,0,2.22,2.22" transform="translate(-101.60001 -3.277)"/>
  <g>
    <path d="M233.53125,34.17725V29.88232h1.9043a2.5606,2.5606,0,0,1,.873.11523.96047.96047,0,0,1,.47754.40918,1.21928,1.21928,0,0,1,.17871.64746,1.08013,1.08013,0,0,1-.2959.77051,1.49746,1.49746,0,0,1-.91406.39844,1.47391,1.47391,0,0,1,.34277.21387,2.95321,2.95321,0,0,1,.47168.57129l.74707,1.16895h-.71484l-.56836-.89355q-.249-.38672-.41016-.5918a1.28959,1.28959,0,0,0-.28857-.28711.853.853,0,0,0-.25928-.11426,1.70744,1.70744,0,0,0-.31641-.02051h-.65918v1.90723Zm.56836-2.39941h1.22168a1.80523,1.80523,0,0,0,.60938-.08105.63862.63862,0,0,0,.334-.25781.69341.69341,0,0,0,.11426-.38477.64.64,0,0,0-.22119-.501,1.0349,1.0349,0,0,0-.69873-.19629h-1.35937Z" transform="translate(-101.60001 -3.277)"/>
    <path d="M237.37158,34.17725l1.64941-4.29492h.6123l1.75781,4.29492h-.64746l-.501-1.30078h-1.7959l-.47168,1.30078Zm1.23926-1.76367h1.45605l-.44824-1.18945q-.20508-.542-.30469-.89062a5.475,5.475,0,0,1-.23145.82031Z" transform="translate(-101.60001 -3.277)"/>
    <path d="M243.63574,34.17725h-.52734V30.81689a2.72551,2.72551,0,0,1-.49951.36328,3.54085,3.54085,0,0,1-.55518.27246v-.50977a3.18474,3.18474,0,0,0,.77344-.50391,1.9821,1.9821,0,0,0,.46875-.57422h.33984Z" transform="translate(-101.60001 -3.277)"/>
  </g>
  <path class="cls-3" d="M128.18,42.037h75.54a3.75177,3.75177,0,0,0,3.78-3.72V6.997a3.75177,3.75177,0,0,0-3.78-3.72H128.18a3.70025,3.70025,0,0,0-3.72,3.72v31.32a3.70025,3.70025,0,0,0,3.72,3.72" transform="translate(-101.60001 -3.277)"/>
  <g>
    <path class="cls-4" d="M133.15234,13.35693V7.645H134.29l1.35205,4.04395q.1875.56543.27295.8457.09741-.312.30371-.916L137.58643,7.645h1.01709v5.71191H137.875V8.57568l-1.66016,4.78125h-.68164l-1.65234-4.86328v4.86328Z" transform="translate(-101.60001 -3.277)"/>
    <path class="cls-4" d="M139.60938,10.57471a3.1022,3.1022,0,0,1,.76367-2.22656,2.59813,2.59813,0,0,1,1.97168-.80469,2.73692,2.73692,0,0,1,1.42627.37793,2.47121,2.47121,0,0,1,.96826,1.05371,3.424,3.424,0,0,1,.333,1.5332,3.36178,3.36178,0,0,1-.35059,1.55469,2.39288,2.39288,0,0,1-.99365,1.03906,2.84719,2.84719,0,0,1-1.38721.35254,2.70179,2.70179,0,0,1-1.44189-.38965,2.50544,2.50544,0,0,1-.9624-1.06445A3.219,3.219,0,0,1,139.60938,10.57471Zm.7793.01172a2.28945,2.28945,0,0,0,.55518,1.627,1.93825,1.93825,0,0,0,2.79785-.00586,2.4269,2.4269,0,0,0,.55127-1.70312,2.929,2.929,0,0,0-.23584-1.21777,1.80908,1.80908,0,0,0-.68945-.80566,1.86743,1.86743,0,0,0-1.019-.28711,1.93072,1.93072,0,0,0-1.38135.55176A2.462,2.462,0,0,0,140.38867,10.58643Z" transform="translate(-101.60001 -3.277)"/>
    <path class="cls-4" d="M147.69434,13.35693,145.48145,7.645h.81836l1.48438,4.14941q.17944.49951.2998.93555.13257-.46875.30811-.93555l1.543-4.14941h.77148l-2.23682,5.71191Z" transform="translate(-101.60001 -3.277)"/>
    <path class="cls-4" d="M151.4165,13.35693V7.645h4.13037v.67383h-3.37451v1.749h3.16016v.6709h-3.16016v1.94434h3.50684v.67383Z" transform="translate(-101.60001 -3.277)"/>
    <path class="cls-4" d="M158.19238,13.35693V8.31885h-1.88184V7.645h4.52783v.67383h-1.88965v5.03809Z" transform="translate(-101.60001 -3.277)"/>
    <path class="cls-4" d="M161.3999,10.57471a3.1022,3.1022,0,0,1,.76367-2.22656,2.59813,2.59813,0,0,1,1.97168-.80469,2.73692,2.73692,0,0,1,1.42627.37793,2.47121,2.47121,0,0,1,.96826,1.05371,3.424,3.424,0,0,1,.333,1.5332,3.36178,3.36178,0,0,1-.35059,1.55469,2.39288,2.39288,0,0,1-.99365,1.03906,2.84719,2.84719,0,0,1-1.38721.35254,2.7018,2.7018,0,0,1-1.44189-.38965,2.50544,2.50544,0,0,1-.9624-1.06445A3.219,3.219,0,0,1,161.3999,10.57471Zm.7793.01172a2.28945,2.28945,0,0,0,.55518,1.627,1.93825,1.93825,0,0,0,2.79785-.00586,2.4269,2.4269,0,0,0,.55127-1.70312,2.929,2.929,0,0,0-.23584-1.21777,1.80908,1.80908,0,0,0-.68945-.80566,1.86743,1.86743,0,0,0-1.019-.28711,1.93072,1.93072,0,0,0-1.38135.55176A2.462,2.462,0,0,0,162.1792,10.58643Z" transform="translate(-101.60001 -3.277)"/>
    <path class="cls-4" d="M167.85254,13.35693V7.645h2.15479a5.11708,5.11708,0,0,1,.86865.05469,1.71553,1.71553,0,0,1,.70557.2666,1.39452,1.39452,0,0,1,.45752.55078,1.86027,1.86027,0,0,1-.29,2.0127,2.22237,2.22237,0,0,1-1.67578.50488H168.6084v2.32227Zm.75586-2.99609H170.085a1.5619,1.5619,0,0,0,1.04053-.27344.97159.97159,0,0,0,.30762-.76758,1.03011,1.03011,0,0,0-.18115-.61328.84772.84772,0,0,0-.47705-.33691,3.203,3.203,0,0,0-.70557-.05078H168.6084Z" transform="translate(-101.60001 -3.277)"/>
    <path class="cls-4" d="M172.96143,10.57471a3.1022,3.1022,0,0,1,.76367-2.22656,2.59813,2.59813,0,0,1,1.97168-.80469,2.73692,2.73692,0,0,1,1.42627.37793,2.47121,2.47121,0,0,1,.96826,1.05371,3.424,3.424,0,0,1,.333,1.5332,3.36178,3.36178,0,0,1-.35059,1.55469,2.39288,2.39288,0,0,1-.99365,1.03906,2.84719,2.84719,0,0,1-1.38721.35254,2.70179,2.70179,0,0,1-1.44189-.38965,2.50544,2.50544,0,0,1-.9624-1.06445A3.219,3.219,0,0,1,172.96143,10.57471Zm.7793.01172a2.28945,2.28945,0,0,0,.55518,1.627,1.93825,1.93825,0,0,0,2.79785-.00586,2.4269,2.4269,0,0,0,.55127-1.70312,2.929,2.929,0,0,0-.23584-1.21777,1.80908,1.80908,0,0,0-.68945-.80566,1.86743,1.86743,0,0,0-1.019-.28711,1.93072,1.93072,0,0,0-1.38135.55176A2.462,2.462,0,0,0,173.74072,10.58643Z" transform="translate(-101.60001 -3.277)"/>
    <path class="cls-4" d="M179.11719,11.522l.71289-.0625a1.579,1.579,0,0,0,.23584.70313,1.28658,1.28658,0,0,0,.57471.44434,2.17287,2.17287,0,0,0,.877.16895,2.09694,2.09694,0,0,0,.76367-.12793,1.05818,1.05818,0,0,0,.49268-.35254.81823.81823,0,0,0,.16211-.48926.74281.74281,0,0,0-.15625-.46973,1.15179,1.15179,0,0,0-.51416-.33691,10.12217,10.12217,0,0,0-1.01709-.27832,5.22353,5.22353,0,0,1-1.10254-.35645,1.54949,1.54949,0,0,1-.60986-.53223,1.30256,1.30256,0,0,1-.20068-.71094,1.45411,1.45411,0,0,1,.24561-.80859,1.51754,1.51754,0,0,1,.7168-.57129,2.7202,2.7202,0,0,1,1.04834-.19434,2.87417,2.87417,0,0,1,1.12012.2041,1.62021,1.62021,0,0,1,.74609.60254,1.7307,1.7307,0,0,1,.28076.90039l-.7251.05371a1.16825,1.16825,0,0,0-.39551-.81836,1.543,1.543,0,0,0-.99512-.27637,1.594,1.594,0,0,0-.99951.252.75159.75159,0,0,0-.314.60547.65129.65129,0,0,0,.22217.50684,3.03358,3.03358,0,0,0,1.13965.40723,7.459,7.459,0,0,1,1.26465.36426,1.73773,1.73773,0,0,1,.73633.582,1.42173,1.42173,0,0,1,.23779.8125,1.55218,1.55218,0,0,1-.26123.85938,1.71817,1.71817,0,0,1-.75.627,2.61266,2.61266,0,0,1-1.10059.22461,3.27561,3.27561,0,0,1-1.2998-.22656,1.81746,1.81746,0,0,1-.82178-.67969A1.92594,1.92594,0,0,1,179.11719,11.522Z" transform="translate(-101.60001 -3.277)"/>
  </g>
  <g>
    <path class="cls-4" d="M186.78271,13.35693V9.062h1.62012a3.91171,3.91171,0,0,1,.65332.041,1.29451,1.29451,0,0,1,.53027.20117,1.05136,1.05136,0,0,1,.34424.41406,1.39874,1.39874,0,0,1-.21826,1.51367,1.67237,1.67237,0,0,1-1.25977.37891h-1.10156v1.74609Zm.56836-2.25293h1.11035a1.17757,1.17757,0,0,0,.78223-.20508.73071.73071,0,0,0,.23145-.57715.77479.77479,0,0,0-.13623-.46094.63761.63761,0,0,0-.35889-.25391,2.42846,2.42846,0,0,0-.53027-.03809h-1.09863Z" transform="translate(-101.60001 -3.277)"/>
    <path class="cls-4" d="M190.78516,13.35693V9.062h.85547l1.0166,3.041q.14063.4248.20508.63574.07324-.23437.22852-.68848L194.11914,9.062h.76465v4.29492h-.54785V9.76221l-1.248,3.59473h-.5127L191.333,9.70068v3.65625Z" transform="translate(-101.60001 -3.277)"/>
    <path class="cls-4" d="M195.79443,13.35693V9.062h3.10547v.50684h-2.53711v1.31543h2.376v.50391h-2.376V12.8501h2.63672v.50684Z" transform="translate(-101.60001 -3.277)"/>
  </g>
  <path class="cls-5" d="M128.18,42.037h75.54a3.75177,3.75177,0,0,0,3.78-3.72v-4.5H124.46v4.5a3.70025,3.70025,0,0,0,3.72,3.72" transform="translate(-101.60001 -3.277)"/>
  <g>
    <path class="cls-4" d="M128.82617,40.94922v-5.4873h1.16309v.43652h-.63574V40.5127h.63574v.43652Z" transform="translate(-101.60001 -3.277)"/>
    <path class="cls-4" d="M131.79443,39.75684l-1.66406-4.29492h.61523l1.11621,3.12012q.13477.375.22559.70313.09961-.35156.23145-.70312l1.16016-3.12012h.58008l-1.68164,4.29492Z" transform="translate(-101.60001 -3.277)"/>
    <path class="cls-4" d="M134.50928,39.75684V35.46191h1.61133a1.99349,1.99349,0,0,1,.78955.13086,1.01887,1.01887,0,0,1,.46582.40039,1.06212,1.06212,0,0,1,.16846.56738.97384.97384,0,0,1-.14941.51855,1.06684,1.06684,0,0,1-.45117.39258,1.12175,1.12175,0,0,1,.59912.38965,1.04357,1.04357,0,0,1,.20947.65039,1.25962,1.25962,0,0,1-.12744.56152,1.09242,1.09242,0,0,1-.31494.39941,1.29742,1.29742,0,0,1-.47021.21191,2.80956,2.80956,0,0,1-.69287.07227Zm.56836-2.49023h.92871a2.07229,2.07229,0,0,0,.542-.0498.60242.60242,0,0,0,.32666-.21387.61607.61607,0,0,0,.10986-.375.69471.69471,0,0,0-.10254-.377.5275.5275,0,0,0-.293-.22266,2.49457,2.49457,0,0,0-.65332-.05957h-.8584Zm0,1.9834H136.147a2.46138,2.46138,0,0,0,.38672-.02051.92664.92664,0,0,0,.32813-.11719.62066.62066,0,0,0,.2168-.23828.74928.74928,0,0,0,.085-.3623.71215.71215,0,0,0-.123-.417.65581.65581,0,0,0-.34131-.25,2.15217,2.15217,0,0,0-.62842-.07129h-.99316Z" transform="translate(-101.60001 -3.277)"/>
    <path class="cls-4" d="M138.626,37.24609v-.60059h.60059v.60059Zm0,2.51074v-.60059h.60059v.60059Z" transform="translate(-101.60001 -3.277)"/>
    <path class="cls-4" d="M141.17822,40.96387l.09961-.44824a1.06,1.06,0,0,0,.249.041.28157.28157,0,0,0,.24023-.10645,1.09671,1.09671,0,0,0,.0791-.53516V36.64551h.52734v3.28125a1.539,1.539,0,0,1-.14941.7998.69733.69733,0,0,1-.63281.293A1.52781,1.52781,0,0,1,141.17822,40.96387Zm.668-4.88965v-.6123h.52734v.6123Z" transform="translate(-101.60001 -3.277)"/>
    <path class="cls-4" d="M142.97412,38.20117a1.60368,1.60368,0,0,1,.48047-1.28027,1.44776,1.44776,0,0,1,.97852-.3457,1.39919,1.39919,0,0,1,1.04883.41992,1.60222,1.60222,0,0,1,.40723,1.16211,2.06051,2.06051,0,0,1-.18018.94531,1.27429,1.27429,0,0,1-.52441.53418,1.52678,1.52678,0,0,1-.75146.19043,1.39854,1.39854,0,0,1-1.05615-.41895A1.67341,1.67341,0,0,1,142.97412,38.20117Zm.542,0a1.32665,1.32665,0,0,0,.26074.89551.86865.86865,0,0,0,1.30957-.002,1.35663,1.35663,0,0,0,.26074-.91113,1.2841,1.2841,0,0,0-.26221-.874.86891.86891,0,0,0-1.30811-.002A1.31927,1.31927,0,0,0,143.51611,38.20117Z" transform="translate(-101.60001 -3.277)"/>
    <path class="cls-4" d="M146.522,36.06836v-.60645h.52734v.60645Zm0,3.68848V36.64551h.52734v3.11133Z" transform="translate(-101.60001 -3.277)"/>
    <path class="cls-4" d="M147.84033,39.75684V36.64551h.47461v.44238a1.11843,1.11843,0,0,1,.99023-.5127,1.28253,1.28253,0,0,1,.51709.10156.80524.80524,0,0,1,.353.26465,1.01772,1.01772,0,0,1,.16406.38965,3.0196,3.0196,0,0,1,.0293.5127v1.91309h-.52734V37.86426a1.42775,1.42775,0,0,0-.06152-.48242.50883.50883,0,0,0-.21826-.25391.69448.69448,0,0,0-.36768-.0957.85438.85438,0,0,0-.58154.21387,1.055,1.055,0,0,0-.24463.81152v1.69922Z" transform="translate(-101.60001 -3.277)"/>
    <path class="cls-4" d="M151.19189,36.06836v-.60645h.52734v.60645Zm0,3.68848V36.64551h.52734v3.11133Z" transform="translate(-101.60001 -3.277)"/>
    <path class="cls-4" d="M152.51025,39.75684V36.64551h.47461v.44238a1.11843,1.11843,0,0,1,.99023-.5127,1.28253,1.28253,0,0,1,.51709.10156.80524.80524,0,0,1,.353.26465,1.01772,1.01772,0,0,1,.16406.38965,3.01958,3.01958,0,0,1,.0293.5127v1.91309h-.52734V37.86426a1.42774,1.42774,0,0,0-.06152-.48242.50883.50883,0,0,0-.21826-.25391.69448.69448,0,0,0-.36768-.0957.85438.85438,0,0,0-.58154.21387,1.055,1.055,0,0,0-.24463.81152v1.69922Z" transform="translate(-101.60001 -3.277)"/>
    <path class="cls-4" d="M155.76221,40.01465l.5127.07617a.48857.48857,0,0,0,.17871.3457.878.878,0,0,0,.53613.14648.94155.94155,0,0,0,.56543-.14648.72088.72088,0,0,0,.26953-.41016,3.36813,3.36813,0,0,0,.03809-.67676,1.08466,1.08466,0,0,1-.86133.40723,1.17427,1.17427,0,0,1-.99316-.46289,1.78256,1.78256,0,0,1-.35156-1.11035,2.06419,2.06419,0,0,1,.16113-.82129,1.29054,1.29054,0,0,1,.46729-.582,1.26175,1.26175,0,0,1,.71924-.20508,1.11537,1.11537,0,0,1,.9082.44531v-.375h.48633V39.335a2.54483,2.54483,0,0,1-.14795,1.0293,1.07823,1.07823,0,0,1-.46875.47949,1.62452,1.62452,0,0,1-.78955.17578,1.48239,1.48239,0,0,1-.89941-.251A.845.845,0,0,1,155.76221,40.01465Zm.43652-1.86914a1.34976,1.34976,0,0,0,.24316.89355.80169.80169,0,0,0,1.21875.001,1.30269,1.30269,0,0,0,.24609-.877,1.27582,1.27582,0,0,0-.25342-.86133.78363.78363,0,0,0-.61084-.29.75871.75871,0,0,0-.59766.28613A1.26534,1.26534,0,0,0,156.19873,38.14551Z" transform="translate(-101.60001 -3.277)"/>
    <path class="cls-4" d="M158.67383,40.94922v-.38086h3.49512v.38086Z" transform="translate(-101.60001 -3.277)"/>
    <path class="cls-4" d="M163.373,39.75684l-1.18359-3.11133h.55664l.668,1.86328q.1084.30176.19922.627.07031-.24609.19629-.5918l.69141-1.89844h.542l-1.17773,3.11133Z" transform="translate(-101.60001 -3.277)"/>
    <path class="cls-4" d="M167.65088,38.75488l.54492.06738a1.32952,1.32952,0,0,1-.47754.74121,1.61859,1.61859,0,0,1-1.97314-.15625,1.644,1.644,0,0,1-.3999-1.17969,1.7192,1.7192,0,0,1,.4043-1.21875,1.36853,1.36853,0,0,1,1.04883-.43359A1.33015,1.33015,0,0,1,167.81787,37a1.68786,1.68786,0,0,1,.39551,1.19531q0,.04688-.00293.14063h-2.32031a1.19562,1.19562,0,0,0,.29.78516.86326.86326,0,0,0,.65039.27246.80693.80693,0,0,0,.49512-.15234A1.01127,1.01127,0,0,0,167.65088,38.75488Zm-1.73145-.85254h1.7373a1.054,1.054,0,0,0-.19922-.58887.80821.80821,0,0,0-.65332-.30469.83774.83774,0,0,0-.61084.24316A.9624.9624,0,0,0,165.91943,37.90234Z" transform="translate(-101.60001 -3.277)"/>
    <path class="cls-4" d="M168.82178,39.75684V35.46191h.52734v1.541a1.17809,1.17809,0,0,1,.93164-.42773,1.24512,1.24512,0,0,1,.60059.13672.79461.79461,0,0,1,.36475.376,1.73547,1.73547,0,0,1,.10986.69727v1.97168h-.52734V37.78516a.81169.81169,0,0,0-.17139-.5752.63393.63393,0,0,0-.48486-.18066.85547.85547,0,0,0-.44092.12207.68564.68564,0,0,0-.29443.3291,1.51378,1.51378,0,0,0-.08789.57422v1.70215Z" transform="translate(-101.60001 -3.277)"/>
    <path class="cls-4" d="M172.17969,36.06836v-.60645h.52734v.60645Zm0,3.68848V36.64551h.52734v3.11133Z" transform="translate(-101.60001 -3.277)"/>
    <path class="cls-4" d="M175.52783,38.61719l.51855.06738a1.34871,1.34871,0,0,1-.43506.83984,1.27189,1.27189,0,0,1-.85986.30273,1.33281,1.33281,0,0,1-1.02686-.418,1.69094,1.69094,0,0,1-.38818-1.19629,2.16571,2.16571,0,0,1,.167-.88184,1.159,1.159,0,0,1,.5083-.56641,1.49817,1.49817,0,0,1,.74268-.18945,1.29651,1.29651,0,0,1,.8291.25586,1.17935,1.17935,0,0,1,.41309.72852l-.5127.0791a.85135.85135,0,0,0-.25928-.47168.67091.67091,0,0,0-.44971-.1582.8212.8212,0,0,0-.64746.28516,1.35925,1.35925,0,0,0-.249.9043,1.40171,1.40171,0,0,0,.24023.91113.78179.78179,0,0,0,.627.28418.7389.7389,0,0,0,.51855-.19043A.945.945,0,0,0,175.52783,38.61719Z" transform="translate(-101.60001 -3.277)"/>
    <path class="cls-4" d="M176.48584,39.75684V35.46191h.52734v4.29492Z" transform="translate(-101.60001 -3.277)"/>
    <path class="cls-4" d="M179.94873,38.75488l.54492.06738a1.32952,1.32952,0,0,1-.47754.74121,1.61859,1.61859,0,0,1-1.97314-.15625,1.644,1.644,0,0,1-.3999-1.17969,1.7192,1.7192,0,0,1,.4043-1.21875,1.36853,1.36853,0,0,1,1.04883-.43359A1.33015,1.33015,0,0,1,180.11572,37a1.68786,1.68786,0,0,1,.39551,1.19531q0,.04688-.00293.14063H178.188a1.19562,1.19562,0,0,0,.29.78516.86326.86326,0,0,0,.65039.27246.80693.80693,0,0,0,.49512-.15234A1.01127,1.01127,0,0,0,179.94873,38.75488Zm-1.73145-.85254h1.7373a1.054,1.054,0,0,0-.19922-.58887.80821.80821,0,0,0-.65332-.30469.83774.83774,0,0,0-.61084.24316A.9624.9624,0,0,0,178.21729,37.90234Z" transform="translate(-101.60001 -3.277)"/>
    <path class="cls-4" d="M182.05566,40.94922h-1.16309V40.5127h.63574V35.89844h-.63574v-.43652h1.16309Z" transform="translate(-101.60001 -3.277)"/>
  </g>
  <rect class="cls-6" x="22.86" y="15.3" width="83.04" height="15.24"/>
  <g>
    <path d="M128.82617,25.64941v-5.4873h1.16309v.43652h-.63574v4.61426h.63574v.43652Z" transform="translate(-101.60001 -3.277)"/>
    <path d="M131.65381,24.457V20.66895h-1.415v-.50684h3.4043v.50684h-1.4209V24.457Z" transform="translate(-101.60001 -3.277)"/>
    <path d="M134.23486,24.457V20.16211h1.9043a2.5606,2.5606,0,0,1,.873.11523.96047.96047,0,0,1,.47754.40918,1.21928,1.21928,0,0,1,.17871.64746,1.08013,1.08013,0,0,1-.2959.77051,1.49746,1.49746,0,0,1-.91406.39844,1.47391,1.47391,0,0,1,.34277.21387,2.95321,2.95321,0,0,1,.47168.57129L138.02,24.457h-.71484l-.56836-.89355q-.249-.38672-.41016-.5918a1.28959,1.28959,0,0,0-.28857-.28711.853.853,0,0,0-.25928-.11426,1.70744,1.70744,0,0,0-.31641-.02051h-.65918V24.457Zm.56836-2.39941h1.22168a1.80523,1.80523,0,0,0,.60938-.08105.63862.63862,0,0,0,.334-.25781.69341.69341,0,0,0,.11426-.38477.64.64,0,0,0-.22119-.501,1.0349,1.0349,0,0,0-.69873-.19629h-1.35937Z" transform="translate(-101.60001 -3.277)"/>
    <path d="M138.60791,21.94629V21.3457h.60059v.60059Zm0,2.51074v-.60059h.60059V24.457Z" transform="translate(-101.60001 -3.277)"/>
    <path d="M141.80762,24.457V20.16211h.52734V24.457Z" transform="translate(-101.60001 -3.277)"/>
    <path d="M145.1709,24.07324a1.96365,1.96365,0,0,1-.564.35156,1.62961,1.62961,0,0,1-.58154.10254,1.13574,1.13574,0,0,1-.78809-.25.82924.82924,0,0,1-.27539-.64062.85592.85592,0,0,1,.104-.418.86787.86787,0,0,1,.27246-.30273,1.28117,1.28117,0,0,1,.37939-.17285,3.76818,3.76818,0,0,1,.46875-.0791,4.82,4.82,0,0,0,.94043-.18164q.00293-.1084.00293-.1377a.5822.5822,0,0,0-.14941-.4541.88255.88255,0,0,0-.60059-.17871.939.939,0,0,0-.54932.12988.80134.80134,0,0,0-.26221.46191l-.51562-.07031a1.27542,1.27542,0,0,1,.23145-.53418,1.02331,1.02331,0,0,1,.46582-.31445,2.10242,2.10242,0,0,1,.70605-.10937,1.86878,1.86878,0,0,1,.64746.09375.85357.85357,0,0,1,.36621.23633.82745.82745,0,0,1,.16406.3584,2.96921,2.96921,0,0,1,.02637.48633v.70313a7.473,7.473,0,0,0,.03369.93066,1.17088,1.17088,0,0,0,.1333.373h-.55078A1.11811,1.11811,0,0,1,145.1709,24.07324Zm-.04395-1.17773a3.869,3.869,0,0,1-.86133.19922,1.9923,1.9923,0,0,0-.46.10547.46376.46376,0,0,0-.208.1709.45418.45418,0,0,0-.07324.251.44911.44911,0,0,0,.15967.35156.687.687,0,0,0,.46729.14063,1.07762,1.07762,0,0,0,.542-.13379.81486.81486,0,0,0,.34863-.36426,1.27389,1.27389,0,0,0,.085-.52734Z" transform="translate(-101.60001 -3.277)"/>
    <path d="M146.28467,23.52832l.52148-.082a.72887.72887,0,0,0,.24463.48047.85263.85263,0,0,0,.561.167.81858.81858,0,0,0,.53906-.14844.44015.44015,0,0,0,.17578-.34668.32028.32028,0,0,0-.15527-.28125,2.2871,2.2871,0,0,0-.53906-.17871,4.81141,4.81141,0,0,1-.8042-.25391.77708.77708,0,0,1-.33984-.29492.788.788,0,0,1-.11572-.418.79942.79942,0,0,1,.09521-.38477.85534.85534,0,0,1,.25928-.29492,1.10988,1.10988,0,0,1,.33545-.1543,1.63039,1.63039,0,0,1,.45557-.0625,1.80077,1.80077,0,0,1,.64307.10547.881.881,0,0,1,.40869.28516,1.12336,1.12336,0,0,1,.18164.48242l-.51562.07031a.564.564,0,0,0-.20361-.375.74475.74475,0,0,0-.47607-.13477.86214.86214,0,0,0-.51855.12012.3497.3497,0,0,0-.15527.28125.2911.2911,0,0,0,.06445.18457.465.465,0,0,0,.20215.14063q.0791.0293.46582.13477a6.69649,6.69649,0,0,1,.78076.24414.8.8,0,0,1,.34717.27734.77279.77279,0,0,1,.126.45117.88152.88152,0,0,1-.15381.49609.99593.99593,0,0,1-.44385.36133,1.632,1.632,0,0,1-.65625.127,1.46193,1.46193,0,0,1-.92432-.252A1.17168,1.17168,0,0,1,146.28467,23.52832Z" transform="translate(-101.60001 -3.277)"/>
    <path d="M150.647,23.98535l.07617.46582a1.95606,1.95606,0,0,1-.39844.04688.902.902,0,0,1-.44531-.09082.50514.50514,0,0,1-.22266-.23926,1.88049,1.88049,0,0,1-.06445-.62207v-1.79h-.38672V21.3457h.38672V20.5752l.52441-.31641V21.3457h.53027v.41016h-.53027V23.5752a.919.919,0,0,0,.02783.29.21963.21963,0,0,0,.09082.10254.35082.35082,0,0,0,.18018.03809A1.71546,1.71546,0,0,0,150.647,23.98535Z" transform="translate(-101.60001 -3.277)"/>
    <path d="M150.646,25.64941v-.38086h3.49512v.38086Z" transform="translate(-101.60001 -3.277)"/>
    <path d="M154.4873,25.64941V21.3457h.48047V21.75a1.17191,1.17191,0,0,1,.38379-.35547,1.044,1.044,0,0,1,.51855-.11914,1.22943,1.22943,0,0,1,.70313.20508,1.26227,1.26227,0,0,1,.46.57813,2.11858,2.11858,0,0,1,.15527.81934,2.08538,2.08538,0,0,1-.17139.86035,1.30129,1.30129,0,0,1-1.18506.78906.99239.99239,0,0,1-.47314-.11133,1.07749,1.07749,0,0,1-.34424-.28125v1.51465Zm.47754-2.73047a1.35337,1.35337,0,0,0,.24316.8877.74568.74568,0,0,0,.58887.28711.76182.76182,0,0,0,.60205-.29687,1.41232,1.41232,0,0,0,.25049-.92187,1.3746,1.3746,0,0,0-.24463-.89062.73647.73647,0,0,0-.58447-.2959.76.76,0,0,0-.59619.31543A1.4076,1.4076,0,0,0,154.96484,22.91895Z" transform="translate(-101.60001 -3.277)"/>
    <path d="M157.78271,24.457V20.16211h.52734V24.457Z" transform="translate(-101.60001 -3.277)"/>
    <path d="M161.12744,24.07324a1.96365,1.96365,0,0,1-.564.35156,1.62961,1.62961,0,0,1-.58154.10254,1.13574,1.13574,0,0,1-.78809-.25.82924.82924,0,0,1-.27539-.64062.85592.85592,0,0,1,.104-.418.86787.86787,0,0,1,.27246-.30273,1.28117,1.28117,0,0,1,.37939-.17285,3.76818,3.76818,0,0,1,.46875-.0791,4.82,4.82,0,0,0,.94043-.18164q.00293-.1084.00293-.1377a.5822.5822,0,0,0-.14941-.4541.88254.88254,0,0,0-.60059-.17871.939.939,0,0,0-.54932.12988.80134.80134,0,0,0-.26221.46191l-.51562-.07031a1.27542,1.27542,0,0,1,.23145-.53418,1.02331,1.02331,0,0,1,.46582-.31445,2.10242,2.10242,0,0,1,.70605-.10937,1.86878,1.86878,0,0,1,.64746.09375.85357.85357,0,0,1,.36621.23633.82745.82745,0,0,1,.16406.3584,2.9692,2.9692,0,0,1,.02637.48633v.70313a7.473,7.473,0,0,0,.03369.93066,1.17089,1.17089,0,0,0,.1333.373h-.55078A1.11811,1.11811,0,0,1,161.12744,24.07324Zm-.04395-1.17773a3.869,3.869,0,0,1-.86133.19922,1.9923,1.9923,0,0,0-.46.10547.46376.46376,0,0,0-.208.1709.45418.45418,0,0,0-.07324.251.44911.44911,0,0,0,.15967.35156.687.687,0,0,0,.46729.14063,1.07762,1.07762,0,0,0,.542-.13379.81486.81486,0,0,0,.34863-.36426,1.27389,1.27389,0,0,0,.085-.52734Z" transform="translate(-101.60001 -3.277)"/>
    <path d="M163.60352,23.98535l.07617.46582a1.95606,1.95606,0,0,1-.39844.04688.902.902,0,0,1-.44531-.09082.50514.50514,0,0,1-.22266-.23926,1.88049,1.88049,0,0,1-.06445-.62207v-1.79h-.38672V21.3457h.38672V20.5752l.52441-.31641V21.3457h.53027v.41016h-.53027V23.5752a.919.919,0,0,0,.02783.29.21963.21963,0,0,0,.09082.10254.35082.35082,0,0,0,.18018.03809A1.71546,1.71546,0,0,0,163.60352,23.98535Z" transform="translate(-101.60001 -3.277)"/>
    <path d="M163.93506,22.90137a1.60368,1.60368,0,0,1,.48047-1.28027,1.44776,1.44776,0,0,1,.97852-.3457,1.39919,1.39919,0,0,1,1.04883.41992,1.60222,1.60222,0,0,1,.40723,1.16211,2.06051,2.06051,0,0,1-.18018.94531,1.27429,1.27429,0,0,1-.52441.53418,1.52678,1.52678,0,0,1-.75146.19043,1.39854,1.39854,0,0,1-1.05615-.41895A1.67341,1.67341,0,0,1,163.93506,22.90137Zm.542,0a1.32665,1.32665,0,0,0,.26074.89551.86865.86865,0,0,0,1.30957-.002,1.35663,1.35663,0,0,0,.26074-.91113,1.2841,1.2841,0,0,0-.26221-.874.86891.86891,0,0,0-1.30811-.002A1.31927,1.31927,0,0,0,164.47705,22.90137Z" transform="translate(-101.60001 -3.277)"/>
    <path d="M167.2417,22.90137a1.60368,1.60368,0,0,1,.48047-1.28027,1.44776,1.44776,0,0,1,.97852-.3457,1.39919,1.39919,0,0,1,1.04883.41992,1.60222,1.60222,0,0,1,.40723,1.16211,2.06051,2.06051,0,0,1-.18018.94531,1.27429,1.27429,0,0,1-.52441.53418,1.52678,1.52678,0,0,1-.75146.19043,1.39854,1.39854,0,0,1-1.05615-.41895A1.67341,1.67341,0,0,1,167.2417,22.90137Zm.542,0a1.32665,1.32665,0,0,0,.26074.89551.86865.86865,0,0,0,1.30957-.002,1.35663,1.35663,0,0,0,.26074-.91113,1.2841,1.2841,0,0,0-.26221-.874.86891.86891,0,0,0-1.30811-.002A1.31927,1.31927,0,0,0,167.78369,22.90137Z" transform="translate(-101.60001 -3.277)"/>
    <path d="M170.793,24.457V21.3457h.47461v.44238a1.11843,1.11843,0,0,1,.99023-.5127,1.28253,1.28253,0,0,1,.51709.10156.80524.80524,0,0,1,.353.26465,1.01772,1.01772,0,0,1,.16406.38965,3.0196,3.0196,0,0,1,.0293.5127V24.457h-.52734V22.56445a1.42775,1.42775,0,0,0-.06152-.48242.50883.50883,0,0,0-.21826-.25391.69448.69448,0,0,0-.36768-.0957.85438.85438,0,0,0-.58154.21387,1.055,1.055,0,0,0-.24463.81152V24.457Z" transform="translate(-101.60001 -3.277)"/>
    <path d="M173.61377,25.64941v-.38086h3.49512v.38086Z" transform="translate(-101.60001 -3.277)"/>
    <path d="M178.31885,24.457l-1.18359-3.11133h.55664l.668,1.86328q.1084.30176.19922.627.07031-.24609.19629-.5918l.69141-1.89844h.542L178.811,24.457Z" transform="translate(-101.60001 -3.277)"/>
    <path d="M182.58447,23.45508l.54492.06738a1.32952,1.32952,0,0,1-.47754.74121,1.61859,1.61859,0,0,1-1.97314-.15625,1.644,1.644,0,0,1-.3999-1.17969,1.7192,1.7192,0,0,1,.4043-1.21875,1.36853,1.36853,0,0,1,1.04883-.43359,1.33015,1.33015,0,0,1,1.01953.4248,1.68786,1.68786,0,0,1,.39551,1.19531q0,.04688-.00293.14063h-2.32031a1.19562,1.19562,0,0,0,.29.78516.86326.86326,0,0,0,.65039.27246.80693.80693,0,0,0,.49512-.15234A1.01127,1.01127,0,0,0,182.58447,23.45508Zm-1.73145-.85254h1.7373a1.054,1.054,0,0,0-.19922-.58887.80821.80821,0,0,0-.65332-.30469.83774.83774,0,0,0-.61084.24316A.9624.9624,0,0,0,180.853,22.60254Z" transform="translate(-101.60001 -3.277)"/>
    <path d="M183.80957,24.457V20.16211h.52734v1.541a1.17809,1.17809,0,0,1,.93164-.42773,1.24512,1.24512,0,0,1,.60059.13672.79461.79461,0,0,1,.36475.376,1.73547,1.73547,0,0,1,.10986.69727V24.457h-.52734V22.48535a.81169.81169,0,0,0-.17139-.5752.63393.63393,0,0,0-.48486-.18066.85547.85547,0,0,0-.44092.12207.68564.68564,0,0,0-.29443.3291,1.51377,1.51377,0,0,0-.08789.57422V24.457Z" transform="translate(-101.60001 -3.277)"/>
    <path d="M187.11963,20.76855v-.60645h.52734v.60645Zm0,3.68848V21.3457h.52734V24.457Z" transform="translate(-101.60001 -3.277)"/>
    <path d="M190.44971,23.31738l.51855.06738a1.34871,1.34871,0,0,1-.43506.83984,1.27189,1.27189,0,0,1-.85986.30273,1.33281,1.33281,0,0,1-1.02686-.418,1.69094,1.69094,0,0,1-.38818-1.19629,2.16571,2.16571,0,0,1,.167-.88184,1.159,1.159,0,0,1,.5083-.56641,1.49817,1.49817,0,0,1,.74268-.18945,1.29651,1.29651,0,0,1,.8291.25586,1.17935,1.17935,0,0,1,.41309.72852l-.5127.0791a.85135.85135,0,0,0-.25928-.47168.67091.67091,0,0,0-.44971-.1582.8212.8212,0,0,0-.64746.28516,1.35925,1.35925,0,0,0-.249.9043,1.40171,1.40171,0,0,0,.24023.91113.78179.78179,0,0,0,.627.28418.7389.7389,0,0,0,.51855-.19043A.945.945,0,0,0,190.44971,23.31738Z" transform="translate(-101.60001 -3.277)"/>
    <path d="M191.40771,24.457V20.16211h.52734V24.457Z" transform="translate(-101.60001 -3.277)"/>
    <path d="M194.92432,23.45508l.54492.06738a1.32952,1.32952,0,0,1-.47754.74121,1.61859,1.61859,0,0,1-1.97314-.15625,1.644,1.644,0,0,1-.3999-1.17969,1.7192,1.7192,0,0,1,.4043-1.21875,1.36853,1.36853,0,0,1,1.04883-.43359,1.33015,1.33015,0,0,1,1.01953.4248,1.68786,1.68786,0,0,1,.39551,1.19531q0,.04688-.00293.14063h-2.32031a1.19562,1.19562,0,0,0,.29.78516.86326.86326,0,0,0,.65039.27246.80693.80693,0,0,0,.49512-.15234A1.01127,1.01127,0,0,0,194.92432,23.45508Zm-1.73145-.85254h1.7373a1.054,1.054,0,0,0-.19922-.58887.80821.80821,0,0,0-.65332-.30469.83774.83774,0,0,0-.61084.24316A.9624.9624,0,0,0,193.19287,22.60254Z" transform="translate(-101.60001 -3.277)"/>
    <path d="M196.23926,24.457v-.60059h.60059V24.457a1.07056,1.07056,0,0,1-.11719.53516.768.768,0,0,1-.37207.31445l-.14648-.22559a.50153.50153,0,0,0,.24609-.21582.91539.91539,0,0,0,.08789-.4082Z" transform="translate(-101.60001 -3.277)"/>
  </g>
  <g>
    <path d="M128.71045,29.56494a2.3327,2.3327,0,0,1,.57422-1.67383,1.95269,1.95269,0,0,1,1.48242-.60547,2.05654,2.05654,0,0,1,1.07227.28418,1.86022,1.86022,0,0,1,.728.792,2.57893,2.57893,0,0,1,.25049,1.15332,2.53073,2.53073,0,0,1-.26367,1.16895,1.80133,1.80133,0,0,1-.74707.78125,2.134,2.134,0,0,1-1.043.26465,2.03084,2.03084,0,0,1-1.084-.293,1.88529,1.88529,0,0,1-.72363-.7998A2.42388,2.42388,0,0,1,128.71045,29.56494Zm.58594.00879a1.72187,1.72187,0,0,0,.41748,1.22363,1.457,1.457,0,0,0,2.10352-.00488,1.82424,1.82424,0,0,0,.41455-1.28027,2.20574,2.20574,0,0,0-.17725-.916,1.35926,1.35926,0,0,0-.51855-.60547,1.398,1.398,0,0,0-.76611-.21582,1.45369,1.45369,0,0,0-1.03857.415A1.85026,1.85026,0,0,0,129.29639,29.57373Z" transform="translate(-101.60001 -3.277)"/>
    <path d="M133.58545,31.65674V27.36182h2.89746v.50684h-2.3291v1.33008h2.01563v.50684h-2.01562v1.95117Z" transform="translate(-101.60001 -3.277)"/>
    <path d="M137.30664,29.146v-.60059h.60059V29.146Zm0,2.51074v-.60059h.60059v.60059Z" transform="translate(-101.60001 -3.277)"/>
    <path d="M140.5498,31.65674V27.36182h1.61133a1.99349,1.99349,0,0,1,.78955.13086,1.01887,1.01887,0,0,1,.46582.40039,1.06212,1.06212,0,0,1,.16846.56738.97384.97384,0,0,1-.14941.51855,1.06684,1.06684,0,0,1-.45117.39258,1.12175,1.12175,0,0,1,.59912.38965,1.04357,1.04357,0,0,1,.20947.65039,1.25962,1.25962,0,0,1-.12744.56152,1.09242,1.09242,0,0,1-.31494.39941,1.29742,1.29742,0,0,1-.47021.21191,2.80956,2.80956,0,0,1-.69287.07227Zm.56836-2.49023h.92871a2.07229,2.07229,0,0,0,.542-.0498.60242.60242,0,0,0,.32666-.21387.61607.61607,0,0,0,.10986-.375.69471.69471,0,0,0-.10254-.377.5275.5275,0,0,0-.293-.22266,2.49457,2.49457,0,0,0-.65332-.05957h-.8584Zm0,1.9834h1.06934a2.46138,2.46138,0,0,0,.38672-.02051.92664.92664,0,0,0,.32813-.11719.62066.62066,0,0,0,.2168-.23828.74928.74928,0,0,0,.085-.3623.71215.71215,0,0,0-.123-.417.65581.65581,0,0,0-.34131-.25,2.15217,2.15217,0,0,0-.62842-.07129h-.99316Z" transform="translate(-101.60001 -3.277)"/>
    <path d="M144.06738,31.65674l1.64941-4.29492h.6123l1.75781,4.29492h-.64746l-.501-1.30078h-1.7959l-.47168,1.30078Zm1.23926-1.76367h1.45605l-.44824-1.18945q-.20508-.542-.30469-.89062a5.475,5.475,0,0,1-.23145.82031Z" transform="translate(-101.60001 -3.277)"/>
    <path d="M151.61182,30.15088l.56836.14355a1.90849,1.90849,0,0,1-.64307,1.06738,1.76661,1.76661,0,0,1-1.13525.36816,2.04007,2.04007,0,0,1-1.12939-.28223,1.76664,1.76664,0,0,1-.66211-.81934,2.92166,2.92166,0,0,1-.22705-1.15137,2.52875,2.52875,0,0,1,.25635-1.16992,1.764,1.764,0,0,1,.72949-.75977,2.14181,2.14181,0,0,1,1.0415-.25879,1.76071,1.76071,0,0,1,1.084.32813,1.704,1.704,0,0,1,.6123.92285l-.55957.13184a1.32735,1.32735,0,0,0-.43359-.68262,1.15542,1.15542,0,0,0-.71484-.21387,1.38856,1.38856,0,0,0-.82764.2373,1.256,1.256,0,0,0-.46729.63672,2.57267,2.57267,0,0,0-.13477.8252,2.6144,2.6144,0,0,0,.15967.95605,1.18669,1.18669,0,0,0,.49658.61133,1.39268,1.39268,0,0,0,.72949.20215,1.2224,1.2224,0,0,0,.80859-.27539A1.40937,1.40937,0,0,0,151.61182,30.15088Z" transform="translate(-101.60001 -3.277)"/>
    <path d="M152.86279,31.65674V27.36182h.56836V29.4917l2.13281-2.12988h.77051l-1.80176,1.74023,1.88086,2.55469h-.75l-1.5293-2.17383-.70312.68555v1.48828Z" transform="translate(-101.60001 -3.277)"/>
    <path d="M157.7085,32.84912h-1.16309V32.4126h.63574V27.79834h-.63574v-.43652h1.16309Z" transform="translate(-101.60001 -3.277)"/>
  </g>
  <line class="cls-7" x1="105.90001" y1="9.72" x2="155.64" y2="9.72"/>
  <polyline class="cls-8" points="154.92 6.9 160.56 9.72 154.92 12.48 154.92 6.9"/>
  <rect class="cls-4" x="111.72" y="5.88" width="8.34" height="7.2"/>
  <g>
    <path d="M213.7915,14.55762V10.2627h1.9043a2.5606,2.5606,0,0,1,.873.11523.96047.96047,0,0,1,.47754.40918,1.21928,1.21928,0,0,1,.17871.64746,1.08013,1.08013,0,0,1-.2959.77051,1.49746,1.49746,0,0,1-.91406.39844,1.47391,1.47391,0,0,1,.34277.21387,2.95321,2.95321,0,0,1,.47168.57129l.74707,1.16895h-.71484l-.56836-.89355q-.249-.38672-.41016-.5918a1.28959,1.28959,0,0,0-.28857-.28711.853.853,0,0,0-.25928-.11426,1.70744,1.70744,0,0,0-.31641-.02051h-.65918v1.90723Zm.56836-2.39941h1.22168a1.80523,1.80523,0,0,0,.60938-.08105.63862.63862,0,0,0,.334-.25781.69341.69341,0,0,0,.11426-.38477.64.64,0,0,0-.22119-.501,1.0349,1.0349,0,0,0-.69873-.19629h-1.35937Z" transform="translate(-101.60001 -3.277)"/>
    <path d="M217.91016,13.17773l.53613-.04687a1.17752,1.17752,0,0,0,.17725.52832.95422.95422,0,0,0,.43213.334,1.62019,1.62019,0,0,0,.65918.12793,1.57954,1.57954,0,0,0,.57422-.09668.79049.79049,0,0,0,.37061-.26562.61146.61146,0,0,0,.12158-.36719.56225.56225,0,0,0-.11719-.35352.87582.87582,0,0,0-.38672-.25293,7.79408,7.79408,0,0,0-.76465-.21,3.8564,3.8564,0,0,1-.8291-.26758,1.156,1.156,0,0,1-.4585-.40039.97609.97609,0,0,1-.15088-.53418,1.09546,1.09546,0,0,1,.18457-.6084,1.14788,1.14788,0,0,1,.53906-.42871,2.04507,2.04507,0,0,1,.78809-.14648,2.17093,2.17093,0,0,1,.84229.15332,1.22173,1.22173,0,0,1,.561.45313,1.3,1.3,0,0,1,.21094.67676l-.54492.041a.87923.87923,0,0,0-.29736-.61523,1.15746,1.15746,0,0,0-.74854-.208,1.19471,1.19471,0,0,0-.75146.18945.5645.5645,0,0,0-.23584.45508.4884.4884,0,0,0,.167.38086,2.26048,2.26048,0,0,0,.85693.30664,5.68047,5.68047,0,0,1,.95068.27344,1.30864,1.30864,0,0,1,.55371.4375,1.0708,1.0708,0,0,1,.17871.61133,1.17217,1.17217,0,0,1-.19629.64648,1.29054,1.29054,0,0,1-.564.4707,1.96489,1.96489,0,0,1-.82764.16895,2.47123,2.47123,0,0,1-.97705-.16992,1.36738,1.36738,0,0,1-.61816-.51074A1.45116,1.45116,0,0,1,217.91016,13.17773Z" transform="translate(-101.60001 -3.277)"/>
  </g>
  <line class="cls-9" x1="105.90001" y1="29.09999" x2="128.58" y2="29.09999"/>
  <path class="cls-8" d="M228.08,32.377a2.07462,2.07462,0,0,0,2.1,2.04,2.02317,2.02317,0,0,0,2.04-2.04,2.07464,2.07464,0,0,0-2.04-2.1,2.12587,2.12587,0,0,0-2.1,2.1" transform="translate(-101.60001 -3.277)"/>
  <rect class="cls-4" x="110.1" y="25.32" width="11.64" height="7.2"/>
  <g>
    <path d="M212.10986,34.05713V29.76221h1.9043a2.5606,2.5606,0,0,1,.873.11523.96047.96047,0,0,1,.47754.40918,1.21928,1.21928,0,0,1,.17871.64746,1.08013,1.08013,0,0,1-.2959.77051,1.49746,1.49746,0,0,1-.91406.39844,1.47391,1.47391,0,0,1,.34277.21387,2.95321,2.95321,0,0,1,.47168.57129l.74707,1.16895h-.71484l-.56836-.89355q-.249-.38672-.41016-.5918a1.28959,1.28959,0,0,0-.28857-.28711.853.853,0,0,0-.25928-.11426,1.70744,1.70744,0,0,0-.31641-.02051h-.65918v1.90723Zm.56836-2.39941h1.22168a1.80523,1.80523,0,0,0,.60938-.08105.63862.63862,0,0,0,.334-.25781.69341.69341,0,0,0,.11426-.38477.64.64,0,0,0-.22119-.501,1.0349,1.0349,0,0,0-.69873-.19629h-1.35937Z" transform="translate(-101.60001 -3.277)"/>
    <path d="M215.9502,34.05713l1.64941-4.29492h.6123l1.75781,4.29492h-.64746l-.501-1.30078h-1.7959l-.47168,1.30078Zm1.23926-1.76367h1.45605l-.44824-1.18945q-.20508-.542-.30469-.89062a5.475,5.475,0,0,1-.23145.82031Z" transform="translate(-101.60001 -3.277)"/>
    <path d="M222.21436,34.05713H221.687V30.69678a2.72551,2.72551,0,0,1-.49951.36328,3.54085,3.54085,0,0,1-.55518.27246v-.50977a3.18474,3.18474,0,0,0,.77344-.50391,1.98211,1.98211,0,0,0,.46875-.57422h.33984Z" transform="translate(-101.60001 -3.277)"/>
  </g>
  <line class="cls-7" x1="243.6" y1="9.72" x2="293.57998" y2="9.72"/>
  <polyline class="cls-8" points="292.86 6.9 298.44 9.72 292.86 12.48 292.86 6.9"/>
  <rect class="cls-4" x="248.94" y="5.88" width="8.34" height="7.2"/>
  <g>
    <path d="M351.01172,14.55664V10.26172h1.9043a2.5606,2.5606,0,0,1,.873.11523.96047.96047,0,0,1,.47754.40918,1.21928,1.21928,0,0,1,.17871.64746,1.08013,1.08013,0,0,1-.2959.77051,1.49746,1.49746,0,0,1-.91406.39844,1.47391,1.47391,0,0,1,.34277.21387,2.95321,2.95321,0,0,1,.47168.57129l.74707,1.16895H354.082l-.56836-.89355q-.249-.38672-.41016-.5918a1.29,1.29,0,0,0-.28906-.28711.85054.85054,0,0,0-.25879-.11426,1.70744,1.70744,0,0,0-.31641-.02051h-.65918v1.90723Zm.56836-2.39941h1.22168a1.80523,1.80523,0,0,0,.60938-.08105.63862.63862,0,0,0,.334-.25781.69341.69341,0,0,0,.11426-.38477.64038.64038,0,0,0-.22168-.501,1.03346,1.03346,0,0,0-.69824-.19629h-1.35937Z" transform="translate(-101.60001 -3.277)"/>
    <path d="M355.12988,13.17676l.53613-.04687a1.17763,1.17763,0,0,0,.17773.52832.95268.95268,0,0,0,.43164.334,1.62019,1.62019,0,0,0,.65918.12793,1.57954,1.57954,0,0,0,.57422-.09668.792.792,0,0,0,.37109-.26562.61094.61094,0,0,0,.12109-.36719.56225.56225,0,0,0-.11719-.35352.87582.87582,0,0,0-.38672-.25293,7.79408,7.79408,0,0,0-.76465-.21,3.8564,3.8564,0,0,1-.8291-.26758,1.15434,1.15434,0,0,1-.458-.40039.97648.97648,0,0,1-.15137-.53418,1.09546,1.09546,0,0,1,.18457-.6084,1.14788,1.14788,0,0,1,.53906-.42871,2.04507,2.04507,0,0,1,.78809-.14648,2.17346,2.17346,0,0,1,.84277.15332,1.22039,1.22039,0,0,1,.56055.45313,1.3,1.3,0,0,1,.21094.67676l-.54492.041a.87886.87886,0,0,0-.29687-.61523,1.159,1.159,0,0,0-.749-.208,1.19312,1.19312,0,0,0-.751.18945.565.565,0,0,0-.23633.45508.48839.48839,0,0,0,.167.38086,2.26407,2.26407,0,0,0,.85742.30664,5.67082,5.67082,0,0,1,.9502.27344,1.30864,1.30864,0,0,1,.55371.4375,1.0708,1.0708,0,0,1,.17871.61133,1.17217,1.17217,0,0,1-.19629.64648,1.28914,1.28914,0,0,1-.56348.4707,1.96716,1.96716,0,0,1-.82812.16895,2.46869,2.46869,0,0,1-.97656-.16992,1.36738,1.36738,0,0,1-.61816-.51074A1.45159,1.45159,0,0,1,355.12988,13.17676Z" transform="translate(-101.60001 -3.277)"/>
  </g>
  <line class="cls-9" x1="2.1" y1="19.38" x2="18" y2="19.38"/>
  <path class="cls-8" d="M105.74,22.657a2.02316,2.02316,0,0,0-2.04-2.04,2.07463,2.07463,0,0,0-2.1,2.04,2.12588,2.12588,0,0,0,2.1,2.1,2.07463,2.07463,0,0,0,2.04-2.1" transform="translate(-101.60001 -3.277)"/>
  <polyline class="cls-8" points="17.28 16.62 22.86 19.38 17.28 22.14 17.28 16.62"/>
  <path class="cls-3" d="M403.82,42.037h75.54a3.75176,3.75176,0,0,0,3.78-3.72V6.997a3.75176,3.75176,0,0,0-3.78-3.72H403.82a3.75179,3.75179,0,0,0-3.78,3.72v31.32a3.75179,3.75179,0,0,0,3.78,3.72" transform="translate(-101.60001 -3.277)"/>
  <g>
    <path class="cls-4" d="M415.26855,20.7168v-.6709l2.41992-.00391v2.12012a4.2779,4.2779,0,0,1-1.14941.668,3.40656,3.40656,0,0,1-1.21582.22461,3.24713,3.24713,0,0,1-1.5293-.36035,2.381,2.381,0,0,1-1.03809-1.043,3.27154,3.27154,0,0,1-.35059-1.52344,3.53857,3.53857,0,0,1,.34863-1.55664,2.31707,2.31707,0,0,1,1.00293-1.07324,3.15006,3.15006,0,0,1,1.50781-.35059,2.98374,2.98374,0,0,1,1.12012.2002,1.85361,1.85361,0,0,1,.78516.55957,2.46855,2.46855,0,0,1,.43262.93555l-.68164.18652a2.11722,2.11722,0,0,0-.31934-.68555,1.309,1.309,0,0,0-.5459-.39941,1.98784,1.98784,0,0,0-.78711-.15039,2.31145,2.31145,0,0,0-.89551.1582,1.67094,1.67094,0,0,0-.61035.415,1.98075,1.98075,0,0,0-.36035.56445,2.989,2.989,0,0,0-.21777,1.14941,2.78258,2.78258,0,0,0,.2627,1.27832,1.68525,1.68525,0,0,0,.76563.76367,2.37483,2.37483,0,0,0,1.06738.25,2.53921,2.53921,0,0,0,.959-.18945,2.48306,2.48306,0,0,0,.709-.40332V20.7168Z" transform="translate(-101.60001 -3.277)"/>
    <path class="cls-4" d="M418.19141,22.957l2.19434-5.71191h.81445l2.33789,5.71191h-.86133l-.667-1.73047h-2.3877l-.62793,1.73047Zm1.64844-2.3457h1.93652l-.5957-1.582q-.27393-.7207-.40527-1.18457a7.28164,7.28164,0,0,1-.30859,1.09082Z" transform="translate(-101.60001 -3.277)"/>
    <path class="cls-4" d="M424.15723,22.957V17.24512h2.15527a5.10667,5.10667,0,0,1,.86816.05469,1.71777,1.71777,0,0,1,.70605.2666,1.39351,1.39351,0,0,1,.457.55078,1.85759,1.85759,0,0,1-.29,2.0127,2.22088,2.22088,0,0,1-1.67578.50488h-1.46484V22.957Zm.75586-2.99609h1.47656a1.5634,1.5634,0,0,0,1.041-.27344.97159.97159,0,0,0,.30762-.76758,1.03039,1.03039,0,0,0-.18164-.61328.845.845,0,0,0-.47656-.33691,3.20832,3.20832,0,0,0-.70605-.05078h-1.46094Z" transform="translate(-101.60001 -3.277)"/>
    <path class="cls-4" d="M433.57129,20.9541l.75586.19141a2.54342,2.54342,0,0,1-.85547,1.41992,2.35458,2.35458,0,0,1-1.50977.48926,2.71937,2.71937,0,0,1-1.502-.376,2.35824,2.35824,0,0,1-.88086-1.08887,3.8921,3.8921,0,0,1-.30176-1.53223,3.37689,3.37689,0,0,1,.34082-1.55664,2.3358,2.3358,0,0,1,.9707-1.00879,2.836,2.836,0,0,1,1.38477-.34473,2.34376,2.34376,0,0,1,1.44238.43652,2.26733,2.26733,0,0,1,.81445,1.22754l-.74512.1748a1.76059,1.76059,0,0,0-.57617-.90723,1.53326,1.53326,0,0,0-.95117-.28516,1.8506,1.8506,0,0,0-1.10059.31543,1.66652,1.66652,0,0,0-.62109.84766,3.39688,3.39688,0,0,0-.17969,1.09668,3.48369,3.48369,0,0,0,.21289,1.27246,1.57945,1.57945,0,0,0,.66016.8125,1.84745,1.84745,0,0,0,.96973.26855,1.628,1.628,0,0,0,1.07617-.36621A1.87459,1.87459,0,0,0,433.57129,20.9541Z" transform="translate(-101.60001 -3.277)"/>
    <path class="cls-4" d="M435.23535,22.957V17.24512h.75586V22.2832h2.81348V22.957Z" transform="translate(-101.60001 -3.277)"/>
    <path class="cls-4" d="M439.4834,20.1748a3.10006,3.10006,0,0,1,.76367-2.22656,2.59665,2.59665,0,0,1,1.97168-.80469,2.73517,2.73517,0,0,1,1.42578.37793,2.47231,2.47231,0,0,1,.96875,1.05371,3.43058,3.43058,0,0,1,.333,1.5332,3.36788,3.36788,0,0,1-.35059,1.55469,2.39666,2.39666,0,0,1-.99414,1.03906,2.84533,2.84533,0,0,1-1.38672.35254,2.7035,2.7035,0,0,1-1.44238-.38965,2.50433,2.50433,0,0,1-.96191-1.06445A3.21233,3.21233,0,0,1,439.4834,20.1748Zm.7793.01172a2.28923,2.28923,0,0,0,.55469,1.627,1.93825,1.93825,0,0,0,2.79785-.00586,2.42476,2.42476,0,0,0,.55176-1.70312,2.929,2.929,0,0,0-.23633-1.21777,1.80607,1.80607,0,0,0-.68945-.80566,1.867,1.867,0,0,0-1.01855-.28711,1.93186,1.93186,0,0,0-1.38184.55176A2.462,2.462,0,0,0,440.2627,20.18652Z" transform="translate(-101.60001 -3.277)"/>
    <path class="cls-4" d="M445.67871,21.12207l.71289-.0625a1.57913,1.57913,0,0,0,.23633.70313,1.2823,1.2823,0,0,0,.57422.44434,2.17452,2.17452,0,0,0,.877.16895,2.09694,2.09694,0,0,0,.76367-.12793,1.05975,1.05975,0,0,0,.49316-.35254.82149.82149,0,0,0,.16211-.48926.74568.74568,0,0,0-.15625-.46973,1.15088,1.15088,0,0,0-.51465-.33691,10.1391,10.1391,0,0,0-1.0166-.27832,5.21348,5.21348,0,0,1-1.10254-.35645,1.5477,1.5477,0,0,1-.61035-.53223,1.30217,1.30217,0,0,1-.2002-.71094,1.45748,1.45748,0,0,1,.24512-.80859,1.51991,1.51991,0,0,1,.7168-.57129,2.7227,2.7227,0,0,1,1.04883-.19434,2.87588,2.87588,0,0,1,1.12012.2041,1.62021,1.62021,0,0,1,.74609.60254,1.72584,1.72584,0,0,1,.28027.90039l-.72461.05371a1.17209,1.17209,0,0,0-.39551-.81836,1.54389,1.54389,0,0,0-.99512-.27637,1.59459,1.59459,0,0,0-1,.252.7524.7524,0,0,0-.31348.60547.65247.65247,0,0,0,.22168.50684,3.03358,3.03358,0,0,0,1.13965.40723,7.459,7.459,0,0,1,1.26465.36426,1.7317,1.7317,0,0,1,.73633.582,1.42208,1.42208,0,0,1,.23828.8125,1.54881,1.54881,0,0,1-.26172.85938,1.71817,1.71817,0,0,1-.75.627,2.61108,2.61108,0,0,1-1.10059.22461,3.27726,3.27726,0,0,1-1.2998-.22656,1.81616,1.81616,0,0,1-.82129-.67969A1.92636,1.92636,0,0,1,445.67871,21.12207Z" transform="translate(-101.60001 -3.277)"/>
    <path class="cls-4" d="M451.29,22.957V17.24512h4.13086v.67383h-3.375v1.749h3.16016v.6709H452.0459V22.2832h3.50684V22.957Z" transform="translate(-101.60001 -3.277)"/>
  </g>
  <g>
    <path class="cls-4" d="M458.6416,22.957V18.66211h1.62012a3.91171,3.91171,0,0,1,.65332.041,1.29451,1.29451,0,0,1,.53027.20117,1.05238,1.05238,0,0,1,.34473.41406,1.4005,1.4005,0,0,1-.21875,1.51367,1.67237,1.67237,0,0,1-1.25977.37891H459.21V22.957ZM459.21,20.7041h1.11035a1.17757,1.17757,0,0,0,.78223-.20508.73071.73071,0,0,0,.23145-.57715.77452.77452,0,0,0-.13574-.46094.63872.63872,0,0,0-.35937-.25391,2.42846,2.42846,0,0,0-.53027-.03809H459.21Z" transform="translate(-101.60001 -3.277)"/>
    <path class="cls-4" d="M462.64453,22.957V18.66211H463.5l1.0166,3.041q.14063.4248.20508.63574.07324-.23437.22852-.68848l1.02832-2.98828h.76465V22.957h-.54785V19.3623l-1.248,3.59473h-.5127l-1.24219-3.65625V22.957Z" transform="translate(-101.60001 -3.277)"/>
    <path class="cls-4" d="M467.65332,22.957V18.66211h3.10547v.50684h-2.53711v1.31543h2.376v.50391h-2.376V22.4502h2.63672V22.957Z" transform="translate(-101.60001 -3.277)"/>
  </g>
  <path class="cls-5" d="M403.82,42.037h75.54a3.75176,3.75176,0,0,0,3.78-3.72v-4.5h-83.1v4.5a3.75179,3.75179,0,0,0,3.78,3.72" transform="translate(-101.60001 -3.277)"/>
  <g>
    <path class="cls-4" d="M404.4668,40.94971V35.4624h1.16309v.43652h-.63574v4.61426h.63574v.43652Z" transform="translate(-101.60001 -3.277)"/>
    <path class="cls-4" d="M407.43457,39.75732l-1.66406-4.29492h.61523l1.11621,3.12012q.13477.375.22559.70313.09961-.35156.23145-.70312l1.16016-3.12012h.58008l-1.68164,4.29492Z" transform="translate(-101.60001 -3.277)"/>
    <path class="cls-4" d="M410.14941,39.75732V35.4624h1.61133a1.9961,1.9961,0,0,1,.79.13086,1.01887,1.01887,0,0,1,.46582.40039,1.06152,1.06152,0,0,1,.168.56738.97384.97384,0,0,1-.14941.51855,1.06684,1.06684,0,0,1-.45117.39258,1.12311,1.12311,0,0,1,.59961.38965,1.04321,1.04321,0,0,1,.209.65039,1.25924,1.25924,0,0,1-.127.56152,1.09335,1.09335,0,0,1-.31543.39941,1.29492,1.29492,0,0,1-.46973.21191,2.81377,2.81377,0,0,1-.69336.07227Zm.56836-2.49023h.92871a2.07229,2.07229,0,0,0,.542-.0498.60377.60377,0,0,0,.32715-.21387.61587.61587,0,0,0,.10938-.375.69471.69471,0,0,0-.10254-.377.5275.5275,0,0,0-.293-.22266,2.49457,2.49457,0,0,0-.65332-.05957h-.8584Zm0,1.9834h1.06934a2.46138,2.46138,0,0,0,.38672-.02051.92664.92664,0,0,0,.32813-.11719.62066.62066,0,0,0,.2168-.23828.74928.74928,0,0,0,.085-.3623.71215.71215,0,0,0-.123-.417.65458.65458,0,0,0-.34082-.25,2.15589,2.15589,0,0,0-.62891-.07129h-.99316Z" transform="translate(-101.60001 -3.277)"/>
    <path class="cls-4" d="M414.27246,37.24658V36.646h.60059v.60059Zm0,2.51074v-.60059h.60059v.60059Z" transform="translate(-101.60001 -3.277)"/>
    <path class="cls-4" d="M416.76465,40.96436l.09961-.44824a1.06,1.06,0,0,0,.249.041.28157.28157,0,0,0,.24023-.10645,1.09671,1.09671,0,0,0,.0791-.53516V36.646H417.96v3.28125a1.539,1.539,0,0,1-.14941.7998.69733.69733,0,0,1-.63281.293A1.52781,1.52781,0,0,1,416.76465,40.96436Zm.668-4.88965v-.6123H417.96v.6123Z" transform="translate(-101.60001 -3.277)"/>
    <path class="cls-4" d="M418.56055,38.20166a1.60368,1.60368,0,0,1,.48047-1.28027,1.44776,1.44776,0,0,1,.97852-.3457,1.39919,1.39919,0,0,1,1.04883.41992,1.60222,1.60222,0,0,1,.40723,1.16211,2.06,2.06,0,0,1-.18066.94531,1.27429,1.27429,0,0,1-.52441.53418,1.52494,1.52494,0,0,1-.751.19043,1.39964,1.39964,0,0,1-1.05664-.41895A1.67325,1.67325,0,0,1,418.56055,38.20166Zm.542,0a1.32665,1.32665,0,0,0,.26074.89551.86865.86865,0,0,0,1.30957-.002,1.35663,1.35663,0,0,0,.26074-.91113,1.28415,1.28415,0,0,0-.2627-.874.86837.86837,0,0,0-1.30762-.002A1.31927,1.31927,0,0,0,419.10254,38.20166Z" transform="translate(-101.60001 -3.277)"/>
    <path class="cls-4" d="M422.1084,36.06885V35.4624h.52734v.60645Zm0,3.68848V36.646h.52734v3.11133Z" transform="translate(-101.60001 -3.277)"/>
    <path class="cls-4" d="M423.42676,39.75732V36.646h.47461v.44238a1.11843,1.11843,0,0,1,.99023-.5127,1.28017,1.28017,0,0,1,.5166.10156.80687.80687,0,0,1,.35352.26465,1.01772,1.01772,0,0,1,.16406.38965,3.0196,3.0196,0,0,1,.0293.5127v1.91309h-.52734V37.86475a1.42774,1.42774,0,0,0-.06152-.48242.50984.50984,0,0,0-.21875-.25391.69273.69273,0,0,0-.36719-.0957.85561.85561,0,0,0-.582.21387,1.0551,1.0551,0,0,0-.24414.81152v1.69922Z" transform="translate(-101.60001 -3.277)"/>
    <path class="cls-4" d="M426.77832,36.06885V35.4624h.52734v.60645Zm0,3.68848V36.646h.52734v3.11133Z" transform="translate(-101.60001 -3.277)"/>
    <path class="cls-4" d="M428.09668,39.75732V36.646h.47461v.44238a1.11843,1.11843,0,0,1,.99023-.5127,1.28017,1.28017,0,0,1,.5166.10156.80687.80687,0,0,1,.35352.26465,1.01772,1.01772,0,0,1,.16406.38965,3.01958,3.01958,0,0,1,.0293.5127v1.91309h-.52734V37.86475a1.42775,1.42775,0,0,0-.06152-.48242.50984.50984,0,0,0-.21875-.25391.69273.69273,0,0,0-.36719-.0957.85561.85561,0,0,0-.582.21387,1.0551,1.0551,0,0,0-.24414.81152v1.69922Z" transform="translate(-101.60001 -3.277)"/>
    <path class="cls-4" d="M431.34863,40.01514l.5127.07617a.48857.48857,0,0,0,.17871.3457.878.878,0,0,0,.53613.14648.94155.94155,0,0,0,.56543-.14648.72088.72088,0,0,0,.26953-.41016,3.36813,3.36813,0,0,0,.03809-.67676,1.08466,1.08466,0,0,1-.86133.40723,1.17427,1.17427,0,0,1-.99316-.46289,1.78256,1.78256,0,0,1-.35156-1.11035,2.06419,2.06419,0,0,1,.16113-.82129,1.29146,1.29146,0,0,1,.46777-.582,1.26016,1.26016,0,0,1,.71875-.20508,1.11537,1.11537,0,0,1,.9082.44531v-.375h.48633v2.68945a2.54667,2.54667,0,0,1-.14746,1.0293,1.07823,1.07823,0,0,1-.46875.47949,1.62652,1.62652,0,0,1-.79.17578,1.48239,1.48239,0,0,1-.89941-.251A.845.845,0,0,1,431.34863,40.01514Zm.43652-1.86914a1.34976,1.34976,0,0,0,.24316.89355.80169.80169,0,0,0,1.21875.001,1.30269,1.30269,0,0,0,.24609-.877,1.2758,1.2758,0,0,0-.25293-.86133.78458.78458,0,0,0-.61133-.29.75871.75871,0,0,0-.59766.28613A1.26534,1.26534,0,0,0,431.78516,38.146Z" transform="translate(-101.60001 -3.277)"/>
    <path class="cls-4" d="M434.30762,40.94971v-.38086h3.49512v.38086Z" transform="translate(-101.60001 -3.277)"/>
    <path class="cls-4" d="M439.00781,39.75732,437.82422,36.646h.55664l.668,1.86328q.1084.30176.19922.627.07031-.24609.19629-.5918l.69141-1.89844h.542L439.5,39.75732Z" transform="translate(-101.60001 -3.277)"/>
    <path class="cls-4" d="M443.291,38.75537l.54492.06738a1.32952,1.32952,0,0,1-.47754.74121,1.61787,1.61787,0,0,1-1.97266-.15625,1.64415,1.64415,0,0,1-.40039-1.17969,1.7192,1.7192,0,0,1,.4043-1.21875,1.36853,1.36853,0,0,1,1.04883-.43359,1.33015,1.33015,0,0,1,1.01953.4248,1.68786,1.68786,0,0,1,.39551,1.19531q0,.04688-.00293.14063h-2.32031a1.19562,1.19562,0,0,0,.29.78516.86326.86326,0,0,0,.65039.27246.80693.80693,0,0,0,.49512-.15234A1.01126,1.01126,0,0,0,443.291,38.75537Zm-1.73145-.85254h1.7373a1.054,1.054,0,0,0-.19922-.58887.80821.80821,0,0,0-.65332-.30469.83661.83661,0,0,0-.61035.24316A.96277.96277,0,0,0,441.55957,37.90283Z" transform="translate(-101.60001 -3.277)"/>
    <path class="cls-4" d="M444.46191,39.75732V35.4624h.52734v1.541a1.17809,1.17809,0,0,1,.93164-.42773,1.24512,1.24512,0,0,1,.60059.13672.79568.79568,0,0,1,.36523.376,1.73667,1.73667,0,0,1,.10938.69727v1.97168h-.52734V37.78564a.81171.81171,0,0,0-.1709-.5752.63506.63506,0,0,0-.48535-.18066.85375.85375,0,0,0-.44043.12207.68668.68668,0,0,0-.29492.3291,1.51378,1.51378,0,0,0-.08789.57422v1.70215Z" transform="translate(-101.60001 -3.277)"/>
    <path class="cls-4" d="M447.82031,36.06885V35.4624h.52734v.60645Zm0,3.68848V36.646h.52734v3.11133Z" transform="translate(-101.60001 -3.277)"/>
    <path class="cls-4" d="M451.168,38.61768l.51855.06738a1.34822,1.34822,0,0,1-.43457.83984,1.27316,1.27316,0,0,1-.86035.30273,1.33175,1.33175,0,0,1-1.02637-.418,1.69108,1.69108,0,0,1-.38867-1.19629,2.16571,2.16571,0,0,1,.167-.88184,1.1599,1.1599,0,0,1,.50879-.56641,1.49634,1.49634,0,0,1,.74219-.18945,1.29651,1.29651,0,0,1,.8291.25586,1.17935,1.17935,0,0,1,.41309.72852l-.5127.0791a.85091.85091,0,0,0-.25879-.47168.67219.67219,0,0,0-.4502-.1582.8212.8212,0,0,0-.64746.28516,1.35925,1.35925,0,0,0-.249.9043,1.40171,1.40171,0,0,0,.24023.91113.78179.78179,0,0,0,.627.28418.7389.7389,0,0,0,.51855-.19043A.945.945,0,0,0,451.168,38.61768Z" transform="translate(-101.60001 -3.277)"/>
    <path class="cls-4" d="M452.126,39.75732V35.4624h.52734v4.29492Z" transform="translate(-101.60001 -3.277)"/>
    <path class="cls-4" d="M455.58887,38.75537l.54492.06738a1.32952,1.32952,0,0,1-.47754.74121,1.61787,1.61787,0,0,1-1.97266-.15625,1.64415,1.64415,0,0,1-.40039-1.17969,1.7192,1.7192,0,0,1,.4043-1.21875,1.36853,1.36853,0,0,1,1.04883-.43359,1.33015,1.33015,0,0,1,1.01953.4248,1.68786,1.68786,0,0,1,.39551,1.19531q0,.04688-.00293.14063h-2.32031a1.19562,1.19562,0,0,0,.29.78516.86326.86326,0,0,0,.65039.27246.80693.80693,0,0,0,.49512-.15234A1.01127,1.01127,0,0,0,455.58887,38.75537Zm-1.73145-.85254h1.7373a1.054,1.054,0,0,0-.19922-.58887.80821.80821,0,0,0-.65332-.30469.83661.83661,0,0,0-.61035.24316A.96277.96277,0,0,0,453.85742,37.90283Z" transform="translate(-101.60001 -3.277)"/>
    <path class="cls-4" d="M457.6416,40.94971h-1.16309v-.43652h.63574V35.89893h-.63574V35.4624h1.16309Z" transform="translate(-101.60001 -3.277)"/>
  </g>
  <line class="cls-7" x1="381.54" y1="9.72" x2="404.22" y2="9.72"/>
  <path class="cls-8" d="M503.72,12.997a2.08692,2.08692,0,0,0,2.1,2.1,2.12587,2.12587,0,0,0,2.1-2.1,2.08693,2.08693,0,0,0-2.1-2.1,2.0506,2.0506,0,0,0-2.1,2.1" transform="translate(-101.60001 -3.277)"/>
  <rect class="cls-4" x="387.36001" y="5.94" width="8.34" height="7.2"/>
  <g>
    <path d="M489.43164,14.67676V10.38184h1.9043a2.53446,2.53446,0,0,1,.873.11572.9547.9547,0,0,1,.47754.40869,1.21928,1.21928,0,0,1,.17871.64746,1.08013,1.08013,0,0,1-.2959.77051,1.49746,1.49746,0,0,1-.91406.39844,1.47391,1.47391,0,0,1,.34277.21387,2.95321,2.95321,0,0,1,.47168.57129l.74707,1.16895H492.502l-.56836-.89355q-.249-.38672-.41016-.5918a1.29,1.29,0,0,0-.28906-.28711.85054.85054,0,0,0-.25879-.11426,1.70744,1.70744,0,0,0-.31641-.02051H490v1.90723ZM490,12.27734h1.22168a1.83219,1.83219,0,0,0,.60938-.08057.64847.64847,0,0,0,.334-.25781.69733.69733,0,0,0,.11426-.38525.64038.64038,0,0,0-.22168-.501,1.03346,1.03346,0,0,0-.69824-.19629H490Z" transform="translate(-101.60001 -3.277)"/>
    <path d="M493.5498,13.29688l.53613-.04687a1.184,1.184,0,0,0,.17773.52881.966.966,0,0,0,.43164.334,1.63649,1.63649,0,0,0,.65918.12744,1.57954,1.57954,0,0,0,.57422-.09668.79809.79809,0,0,0,.37109-.26514.61447.61447,0,0,0,.12109-.36768.55893.55893,0,0,0-.11719-.353.868.868,0,0,0-.38672-.25342,7.55858,7.55858,0,0,0-.76465-.20947,3.907,3.907,0,0,1-.8291-.26807,1.16091,1.16091,0,0,1-.458-.3999.98048.98048,0,0,1-.15137-.53467,1.09157,1.09157,0,0,1,.18457-.60791,1.14287,1.14287,0,0,1,.53906-.4292,2.04507,2.04507,0,0,1,.78809-.14648,2.15546,2.15546,0,0,1,.84277.15381,1.21345,1.21345,0,0,1,.56055.45264,1.3,1.3,0,0,1,.21094.67676l-.54492.041a.87886.87886,0,0,0-.29687-.61523,1.159,1.159,0,0,0-.749-.208,1.19963,1.19963,0,0,0-.751.189.56724.56724,0,0,0-.23633.45557.48839.48839,0,0,0,.167.38086,2.26641,2.26641,0,0,0,.85742.30615,5.65856,5.65856,0,0,1,.9502.27393,1.30207,1.30207,0,0,1,.55371.438,1.067,1.067,0,0,1,.17871.61084,1.16824,1.16824,0,0,1-.19629.646,1.291,1.291,0,0,1-.56348.47168,1.967,1.967,0,0,1-.82812.16846,2.46869,2.46869,0,0,1-.97656-.16992,1.36837,1.36837,0,0,1-.61816-.51123A1.44992,1.44992,0,0,1,493.5498,13.29688Z" transform="translate(-101.60001 -3.277)"/>
  </g>
  <line class="cls-9" x1="381.54" y1="29.09999" x2="404.22" y2="29.09999"/>
  <path class="cls-8" d="M503.72,32.377a2.07021,2.07021,0,0,0,4.14,0,2.07021,2.07021,0,1,0-4.14,0" transform="translate(-101.60001 -3.277)"/>
  <rect class="cls-4" x="385.67999" y="25.32" width="11.70001" height="7.2"/>
  <g>
    <path d="M487.751,34.05664V29.76172h1.9043a2.53445,2.53445,0,0,1,.873.11572.9547.9547,0,0,1,.47754.40869,1.21928,1.21928,0,0,1,.17871.64746,1.08013,1.08013,0,0,1-.2959.77051,1.49746,1.49746,0,0,1-.91406.39844,1.47391,1.47391,0,0,1,.34277.21387,2.95321,2.95321,0,0,1,.47168.57129l.74707,1.16895h-.71484l-.56836-.89355q-.249-.38672-.41016-.5918a1.28923,1.28923,0,0,0-.28809-.28711.85549.85549,0,0,0-.25977-.11426,1.70744,1.70744,0,0,0-.31641-.02051h-.65918v1.90723Zm.56836-2.39941H489.541a1.83219,1.83219,0,0,0,.60938-.08057.64847.64847,0,0,0,.334-.25781.69733.69733,0,0,0,.11426-.38525.63954.63954,0,0,0-.2207-.501,1.03635,1.03635,0,0,0-.69922-.19629h-1.35937Z" transform="translate(-101.60001 -3.277)"/>
    <path d="M491.5918,34.05664l1.64941-4.29492h.6123l1.75781,4.29492h-.64746l-.501-1.30078H492.667l-.47168,1.30078Zm1.23926-1.76367h1.45605l-.44824-1.18945q-.20508-.542-.30469-.89062a5.475,5.475,0,0,1-.23145.82031Z" transform="translate(-101.60001 -3.277)"/>
    <path d="M497.85547,34.05664h-.52734V30.69629a2.7203,2.7203,0,0,1-.499.36328,3.54369,3.54369,0,0,1-.55566.27246v-.50977a3.18474,3.18474,0,0,0,.77344-.50391,1.98211,1.98211,0,0,0,.46875-.57422h.33984Z" transform="translate(-101.60001 -3.277)"/>
  </g>
  <path class="cls-3" d="M265.88,42.037h75.6a3.73872,3.73872,0,0,0,3.72-3.72V6.997a3.73872,3.73872,0,0,0-3.72-3.72h-75.6a3.73872,3.73872,0,0,0-3.72,3.72v31.32a3.73872,3.73872,0,0,0,3.72,3.72" transform="translate(-101.60001 -3.277)"/>
  <g>
    <path class="cls-4" d="M280.02734,22.957l2.19385-5.71191h.81445l2.33789,5.71191h-.86133l-.6665-1.73047h-2.38818l-.62744,1.73047Zm1.64844-2.3457h1.93652l-.59619-1.582q-.27319-.7207-.40527-1.18457a7.222,7.222,0,0,1-.30811,1.09082Z" transform="translate(-101.60001 -3.277)"/>
    <path class="cls-4" d="M287.44629,22.957V17.91895h-1.88184v-.67383h4.52783v.67383h-1.88965V22.957Z" transform="translate(-101.60001 -3.277)"/>
    <path class="cls-4" d="M292.33691,22.957V17.91895h-1.88184v-.67383h4.52783v.67383h-1.88965V22.957Z" transform="translate(-101.60001 -3.277)"/>
    <path class="cls-4" d="M295.147,22.957l2.19385-5.71191h.81445l2.33789,5.71191h-.86133l-.6665-1.73047h-2.38818l-.62744,1.73047Zm1.64844-2.3457h1.93652l-.59619-1.582q-.27319-.7207-.40527-1.18457a7.222,7.222,0,0,1-.30811,1.09082Z" transform="translate(-101.60001 -3.277)"/>
    <path class="cls-4" d="M305.18848,20.9541l.75586.19141a2.54612,2.54612,0,0,1-.85547,1.41992,2.35552,2.35552,0,0,1-1.50977.48926,2.71824,2.71824,0,0,1-1.502-.376,2.35525,2.35525,0,0,1-.88086-1.08887,3.8921,3.8921,0,0,1-.30176-1.53223,3.37074,3.37074,0,0,1,.34082-1.55664,2.33746,2.33746,0,0,1,.97021-1.00879,2.8392,2.8392,0,0,1,1.38525-.34473,2.34228,2.34228,0,0,1,1.44189.43652,2.26733,2.26733,0,0,1,.81445,1.22754l-.74463.1748a1.76415,1.76415,0,0,0-.57666-.90723,1.53179,1.53179,0,0,0-.95068-.28516,1.84956,1.84956,0,0,0-1.10059.31543,1.67013,1.67013,0,0,0-.62158.84766,3.40971,3.40971,0,0,0-.1792,1.09668,3.484,3.484,0,0,0,.2124,1.27246,1.58181,1.58181,0,0,0,.66016.8125,1.84914,1.84914,0,0,0,.97021.26855,1.62574,1.62574,0,0,0,1.07568-.36621A1.875,1.875,0,0,0,305.18848,20.9541Z" transform="translate(-101.60001 -3.277)"/>
    <path class="cls-4" d="M306.915,22.957V17.24512h.75586v2.3457h2.96924v-2.3457h.75586V22.957h-.75586V20.26465H307.6709V22.957Z" transform="translate(-101.60001 -3.277)"/>
  </g>
  <g>
    <path class="cls-4" d="M314.76172,22.957V18.66211h1.62012a3.91171,3.91171,0,0,1,.65332.041,1.29451,1.29451,0,0,1,.53027.20117,1.05238,1.05238,0,0,1,.34473.41406,1.4005,1.4005,0,0,1-.21875,1.51367,1.67237,1.67237,0,0,1-1.25977.37891h-1.10156V22.957Zm.56836-2.25293h1.11035a1.17757,1.17757,0,0,0,.78223-.20508.73071.73071,0,0,0,.23145-.57715.77452.77452,0,0,0-.13574-.46094.63872.63872,0,0,0-.35937-.25391,2.42846,2.42846,0,0,0-.53027-.03809h-1.09863Z" transform="translate(-101.60001 -3.277)"/>
    <path class="cls-4" d="M318.76465,22.957V18.66211h.85547l1.0166,3.041q.14063.4248.20508.63574.07324-.23437.22852-.68848l1.02832-2.98828h.76465V22.957h-.54785V19.3623l-1.248,3.59473h-.5127l-1.24219-3.65625V22.957Z" transform="translate(-101.60001 -3.277)"/>
    <path class="cls-4" d="M323.77344,22.957V18.66211h3.10547v.50684H324.3418v1.31543h2.376v.50391h-2.376V22.4502h2.63672V22.957Z" transform="translate(-101.60001 -3.277)"/>
  </g>
  <path class="cls-5" d="M265.88,42.037h75.6a3.73872,3.73872,0,0,0,3.72-3.72v-4.5H262.16v4.5a3.73872,3.73872,0,0,0,3.72,3.72" transform="translate(-101.60001 -3.277)"/>
  <g>
    <path class="cls-4" d="M266.52734,40.94873v-5.4873h1.16309v.43652h-.63574v4.61426h.63574v.43652Z" transform="translate(-101.60001 -3.277)"/>
    <path class="cls-4" d="M269.49561,39.75635l-1.66406-4.29492h.61523l1.11621,3.12012q.13477.375.22559.70313.09961-.35156.23145-.70312l1.16016-3.12012h.58008l-1.68164,4.29492Z" transform="translate(-101.60001 -3.277)"/>
    <path class="cls-4" d="M272.21045,39.75635V35.46143h1.61133a1.99349,1.99349,0,0,1,.78955.13086,1.01887,1.01887,0,0,1,.46582.40039,1.06212,1.06212,0,0,1,.16846.56738.97384.97384,0,0,1-.14941.51855,1.06684,1.06684,0,0,1-.45117.39258,1.12175,1.12175,0,0,1,.59912.38965,1.04357,1.04357,0,0,1,.20947.65039,1.25962,1.25962,0,0,1-.12744.56152,1.09242,1.09242,0,0,1-.31494.39941,1.29742,1.29742,0,0,1-.47021.21191,2.80956,2.80956,0,0,1-.69287.07227Zm.56836-2.49023h.92871a2.07229,2.07229,0,0,0,.542-.0498.60242.60242,0,0,0,.32666-.21387.61607.61607,0,0,0,.10986-.375.69471.69471,0,0,0-.10254-.377.5275.5275,0,0,0-.293-.22266,2.49457,2.49457,0,0,0-.65332-.05957h-.8584Zm0,1.9834h1.06934a2.46138,2.46138,0,0,0,.38672-.02051.92664.92664,0,0,0,.32813-.11719.62066.62066,0,0,0,.2168-.23828.74928.74928,0,0,0,.085-.3623.71215.71215,0,0,0-.123-.417.65581.65581,0,0,0-.34131-.25,2.15217,2.15217,0,0,0-.62842-.07129h-.99316Z" transform="translate(-101.60001 -3.277)"/>
    <path class="cls-4" d="M276.32715,37.24561V36.645h.60059v.60059Zm0,2.51074v-.60059h.60059v.60059Z" transform="translate(-101.60001 -3.277)"/>
    <path class="cls-4" d="M278.87939,40.96338l.09961-.44824a1.06,1.06,0,0,0,.249.041.28157.28157,0,0,0,.24023-.10645,1.09671,1.09671,0,0,0,.0791-.53516V36.645h.52734v3.28125a1.539,1.539,0,0,1-.14941.7998.69733.69733,0,0,1-.63281.293A1.52781,1.52781,0,0,1,278.87939,40.96338Zm.668-4.88965v-.6123h.52734v.6123Z" transform="translate(-101.60001 -3.277)"/>
    <path class="cls-4" d="M280.67529,38.20068a1.60368,1.60368,0,0,1,.48047-1.28027,1.44776,1.44776,0,0,1,.97852-.3457,1.39919,1.39919,0,0,1,1.04883.41992,1.60222,1.60222,0,0,1,.40723,1.16211,2.06051,2.06051,0,0,1-.18018.94531,1.27429,1.27429,0,0,1-.52441.53418,1.52678,1.52678,0,0,1-.75146.19043,1.39854,1.39854,0,0,1-1.05615-.41895A1.67341,1.67341,0,0,1,280.67529,38.20068Zm.542,0a1.32665,1.32665,0,0,0,.26074.89551.86865.86865,0,0,0,1.30957-.002,1.35663,1.35663,0,0,0,.26074-.91113,1.2841,1.2841,0,0,0-.26221-.874.86891.86891,0,0,0-1.30811-.002A1.31927,1.31927,0,0,0,281.21729,38.20068Z" transform="translate(-101.60001 -3.277)"/>
    <path class="cls-4" d="M284.22314,36.06787v-.60645h.52734v.60645Zm0,3.68848V36.645h.52734v3.11133Z" transform="translate(-101.60001 -3.277)"/>
    <path class="cls-4" d="M285.5415,39.75635V36.645h.47461v.44238a1.11843,1.11843,0,0,1,.99023-.5127,1.28253,1.28253,0,0,1,.51709.10156.80524.80524,0,0,1,.353.26465,1.01772,1.01772,0,0,1,.16406.38965,3.01958,3.01958,0,0,1,.0293.5127v1.91309h-.52734V37.86377a1.42774,1.42774,0,0,0-.06152-.48242.50883.50883,0,0,0-.21826-.25391.69448.69448,0,0,0-.36768-.0957.85438.85438,0,0,0-.58154.21387,1.055,1.055,0,0,0-.24463.81152v1.69922Z" transform="translate(-101.60001 -3.277)"/>
    <path class="cls-4" d="M288.89307,36.06787v-.60645h.52734v.60645Zm0,3.68848V36.645h.52734v3.11133Z" transform="translate(-101.60001 -3.277)"/>
    <path class="cls-4" d="M290.21143,39.75635V36.645h.47461v.44238a1.11843,1.11843,0,0,1,.99023-.5127,1.28253,1.28253,0,0,1,.51709.10156.80524.80524,0,0,1,.353.26465,1.01772,1.01772,0,0,1,.16406.38965,3.01958,3.01958,0,0,1,.0293.5127v1.91309h-.52734V37.86377a1.42775,1.42775,0,0,0-.06152-.48242.50883.50883,0,0,0-.21826-.25391.69448.69448,0,0,0-.36768-.0957.85438.85438,0,0,0-.58154.21387,1.055,1.055,0,0,0-.24463.81152v1.69922Z" transform="translate(-101.60001 -3.277)"/>
    <path class="cls-4" d="M293.46338,40.01416l.5127.07617a.48857.48857,0,0,0,.17871.3457.878.878,0,0,0,.53613.14648.94155.94155,0,0,0,.56543-.14648.72088.72088,0,0,0,.26953-.41016,3.36812,3.36812,0,0,0,.03809-.67676,1.08466,1.08466,0,0,1-.86133.40723,1.17427,1.17427,0,0,1-.99316-.46289,1.78256,1.78256,0,0,1-.35156-1.11035,2.06419,2.06419,0,0,1,.16113-.82129,1.29054,1.29054,0,0,1,.46729-.582,1.26175,1.26175,0,0,1,.71924-.20508,1.11537,1.11537,0,0,1,.9082.44531v-.375h.48633v2.68945a2.54482,2.54482,0,0,1-.14795,1.0293,1.07823,1.07823,0,0,1-.46875.47949,1.62452,1.62452,0,0,1-.78955.17578,1.48239,1.48239,0,0,1-.89941-.251A.845.845,0,0,1,293.46338,40.01416Zm.43652-1.86914a1.34976,1.34976,0,0,0,.24316.89355.80169.80169,0,0,0,1.21875.001,1.30269,1.30269,0,0,0,.24609-.877,1.27582,1.27582,0,0,0-.25342-.86133.78363.78363,0,0,0-.61084-.29.75871.75871,0,0,0-.59766.28613A1.26534,1.26534,0,0,0,293.8999,38.145Z" transform="translate(-101.60001 -3.277)"/>
    <path class="cls-4" d="M296.375,40.94873v-.38086h3.49512v.38086Z" transform="translate(-101.60001 -3.277)"/>
    <path class="cls-4" d="M301.07422,39.75635,299.89063,36.645h.55664l.668,1.86328q.1084.30176.19922.627.07031-.24609.19629-.5918l.69141-1.89844h.542l-1.17773,3.11133Z" transform="translate(-101.60001 -3.277)"/>
    <path class="cls-4" d="M305.35205,38.75439l.54492.06738a1.32952,1.32952,0,0,1-.47754.74121,1.61859,1.61859,0,0,1-1.97314-.15625,1.644,1.644,0,0,1-.3999-1.17969,1.7192,1.7192,0,0,1,.4043-1.21875,1.36853,1.36853,0,0,1,1.04883-.43359,1.33015,1.33015,0,0,1,1.01953.4248,1.68786,1.68786,0,0,1,.39551,1.19531q0,.04688-.00293.14063h-2.32031a1.19562,1.19562,0,0,0,.29.78516.86326.86326,0,0,0,.65039.27246.80693.80693,0,0,0,.49512-.15234A1.01127,1.01127,0,0,0,305.35205,38.75439Zm-1.73145-.85254h1.7373a1.054,1.054,0,0,0-.19922-.58887.80821.80821,0,0,0-.65332-.30469.83774.83774,0,0,0-.61084.24316A.9624.9624,0,0,0,303.62061,37.90186Z" transform="translate(-101.60001 -3.277)"/>
    <path class="cls-4" d="M306.52295,39.75635V35.46143h.52734v1.541a1.17809,1.17809,0,0,1,.93164-.42773,1.24512,1.24512,0,0,1,.60059.13672.79461.79461,0,0,1,.36475.376,1.73547,1.73547,0,0,1,.10986.69727v1.97168h-.52734V37.78467a.81169.81169,0,0,0-.17139-.5752.63393.63393,0,0,0-.48486-.18066.85547.85547,0,0,0-.44092.12207.68564.68564,0,0,0-.29443.3291,1.51377,1.51377,0,0,0-.08789.57422v1.70215Z" transform="translate(-101.60001 -3.277)"/>
    <path class="cls-4" d="M309.88086,36.06787v-.60645h.52734v.60645Zm0,3.68848V36.645h.52734v3.11133Z" transform="translate(-101.60001 -3.277)"/>
    <path class="cls-4" d="M313.22949,38.6167l.51855.06738a1.3492,1.3492,0,0,1-.43555.83984,1.27189,1.27189,0,0,1-.85986.30273,1.33281,1.33281,0,0,1-1.02686-.418,1.69094,1.69094,0,0,1-.38818-1.19629,2.16571,2.16571,0,0,1,.167-.88184,1.159,1.159,0,0,1,.5083-.56641,1.49817,1.49817,0,0,1,.74268-.18945,1.29794,1.29794,0,0,1,.82959.25586,1.17936,1.17936,0,0,1,.41309.72852l-.5127.0791a.8518.8518,0,0,0-.25977-.47168.67091.67091,0,0,0-.44971-.1582.8212.8212,0,0,0-.64746.28516,1.35925,1.35925,0,0,0-.249.9043,1.40171,1.40171,0,0,0,.24023.91113.78179.78179,0,0,0,.627.28418.7389.7389,0,0,0,.51855-.19043A.94268.94268,0,0,0,313.22949,38.6167Z" transform="translate(-101.60001 -3.277)"/>
    <path class="cls-4" d="M314.1875,39.75635V35.46143h.52734v4.29492Z" transform="translate(-101.60001 -3.277)"/>
    <path class="cls-4" d="M317.65039,38.75439l.54492.06738a1.32952,1.32952,0,0,1-.47754.74121,1.6193,1.6193,0,0,1-1.97363-.15625,1.64377,1.64377,0,0,1-.39941-1.17969,1.7192,1.7192,0,0,1,.4043-1.21875,1.36853,1.36853,0,0,1,1.04883-.43359,1.33015,1.33015,0,0,1,1.01953.4248,1.68786,1.68786,0,0,1,.39551,1.19531q0,.04688-.00293.14063h-2.32031a1.19562,1.19562,0,0,0,.29.78516.86326.86326,0,0,0,.65039.27246.80693.80693,0,0,0,.49512-.15234A1.01126,1.01126,0,0,0,317.65039,38.75439Zm-1.73145-.85254h1.7373a1.054,1.054,0,0,0-.19922-.58887.80821.80821,0,0,0-.65332-.30469.83886.83886,0,0,0-.61133.24316A.962.962,0,0,0,315.91895,37.90186Z" transform="translate(-101.60001 -3.277)"/>
    <path class="cls-4" d="M319.75684,40.94873h-1.16309v-.43652h.63574V35.89795h-.63574v-.43652h1.16309Z" transform="translate(-101.60001 -3.277)"/>
  </g>
  <line class="cls-9" x1="243.6" y1="29.09999" x2="266.27999" y2="29.09999"/>
  <path class="cls-8" d="M365.78,32.377a2.10087,2.10087,0,0,0,4.2,0,2.1,2.1,0,1,0-4.2,0" transform="translate(-101.60001 -3.277)"/>
  <rect class="cls-4" x="247.80001" y="25.32" width="11.64001" height="7.2"/>
  <g>
    <path d="M349.87109,34.05713V29.76221h1.9043a2.5606,2.5606,0,0,1,.873.11523.96047.96047,0,0,1,.47754.40918,1.21928,1.21928,0,0,1,.17871.64746,1.08013,1.08013,0,0,1-.2959.77051,1.49746,1.49746,0,0,1-.91406.39844,1.47391,1.47391,0,0,1,.34277.21387,2.95321,2.95321,0,0,1,.47168.57129l.74707,1.16895h-.71484l-.56836-.89355q-.249-.38672-.41016-.5918a1.28923,1.28923,0,0,0-.28809-.28711.85549.85549,0,0,0-.25977-.11426,1.70744,1.70744,0,0,0-.31641-.02051h-.65918v1.90723Zm.56836-2.39941h1.22168a1.80523,1.80523,0,0,0,.60938-.08105.63862.63862,0,0,0,.334-.25781.69341.69341,0,0,0,.11426-.38477.63954.63954,0,0,0-.2207-.501,1.03635,1.03635,0,0,0-.69922-.19629h-1.35937Z" transform="translate(-101.60001 -3.277)"/>
    <path d="M353.71191,34.05713l1.64941-4.29492h.6123l1.75781,4.29492H357.084l-.501-1.30078h-1.7959l-.47168,1.30078Zm1.23926-1.76367h1.45605L355.959,31.104q-.20508-.542-.30469-.89062a5.475,5.475,0,0,1-.23145.82031Z" transform="translate(-101.60001 -3.277)"/>
    <path d="M359.97559,34.05713h-.52734V30.69678a2.7203,2.7203,0,0,1-.499.36328,3.54369,3.54369,0,0,1-.55566.27246v-.50977a3.18474,3.18474,0,0,0,.77344-.50391,1.98211,1.98211,0,0,0,.46875-.57422h.33984Z" transform="translate(-101.60001 -3.277)"/>
  </g>
</svg>
